<svg width="319" height="299" viewBox="0 0 319 299" fill="none" xmlns="http://www.w3.org/2000/svg">
<path d="M61.1031 122.459H17.5393V167.871H61.1031V122.459Z" fill="#E0E0E0"/>
<path d="M58.1537 122.46H14.5898V167.872H58.1537V122.46Z" fill="#FAFAFA"/>
<path d="M58.1664 167.885H14.5757V122.446H58.1664V167.885ZM14.6026 167.858H58.1395V122.473H14.6026V167.858Z" fill="#E0E0E0"/>
<path d="M52.2966 128.564H20.4456V161.767H52.2966V128.564Z" fill="#FAFAFA"/>
<path d="M20.4455 161.987C20.4703 162.017 20.1681 162.365 19.6595 162.901C19.151 163.438 18.4362 164.164 17.6351 164.954C16.8333 165.743 16.0971 166.446 15.554 166.946C15.011 167.445 14.6612 167.74 14.6336 167.712C14.606 167.685 14.9068 167.339 15.4154 166.802C15.9239 166.265 16.6408 165.537 17.4446 164.745C18.2485 163.954 18.9861 163.249 19.5291 162.75C20.0722 162.251 20.4199 161.958 20.4455 161.987Z" fill="#E0E0E0"/>
<path d="M52.2965 161.906C52.3262 161.881 52.6739 162.183 53.21 162.692C53.7469 163.2 54.4734 163.915 55.2628 164.716C56.0522 165.518 56.7553 166.254 57.2548 166.797C57.7537 167.34 58.049 167.69 58.0214 167.718C57.9938 167.745 57.6481 167.444 57.1113 166.936C56.5745 166.427 55.8465 165.71 55.0544 164.907C54.263 164.103 53.5585 163.365 53.0589 162.822C52.5608 162.279 52.2668 161.931 52.2965 161.906Z" fill="#E0E0E0"/>
<path d="M52.2097 128.652C52.1848 128.623 52.4871 128.276 52.9956 127.739C53.5041 127.202 54.219 126.476 55.02 125.686C55.8218 124.897 56.5581 124.194 57.1011 123.694C57.6441 123.195 57.9939 122.9 58.0215 122.928C58.0491 122.955 57.7483 123.301 57.2398 123.838C56.7312 124.374 56.0143 125.102 55.2105 125.895C54.4066 126.686 53.669 127.39 53.126 127.89C52.583 128.389 52.2345 128.682 52.2097 128.652Z" fill="#E0E0E0"/>
<path d="M20.3585 128.735C20.3289 128.759 19.9818 128.457 19.445 127.949C18.9082 127.44 18.1816 126.725 17.3922 125.924C16.6029 125.122 15.8998 124.386 15.4002 123.843C14.9013 123.3 14.606 122.95 14.6336 122.923C14.6612 122.895 15.0069 123.196 15.5437 123.704C16.0805 124.213 16.8085 124.93 17.6006 125.734C18.392 126.538 19.0965 127.275 19.5961 127.818C20.0943 128.361 20.3882 128.71 20.3585 128.735Z" fill="#E0E0E0"/>
<path d="M52.2096 161.766C52.2075 161.764 52.2048 161.71 52.2027 161.605C52.2013 161.492 52.1986 161.339 52.1958 161.141C52.1923 160.725 52.1875 160.126 52.1813 159.349C52.1737 157.776 52.1627 155.487 52.1489 152.582C52.1337 146.766 52.1123 138.482 52.0868 128.564L52.2096 128.686C42.9374 128.692 32.0478 128.698 20.4482 128.704H20.4454L20.5862 128.564C20.5786 140.75 20.5717 152.151 20.5662 161.766L20.4454 161.645C29.9633 161.67 37.8886 161.692 43.4445 161.707C46.2204 161.721 48.4042 161.731 49.905 161.739C50.6461 161.745 51.2167 161.75 51.6141 161.753C51.8018 161.755 51.9474 161.757 52.0557 161.76C52.1558 161.762 52.2075 161.764 52.2096 161.766C52.2117 161.768 52.1647 161.771 52.0695 161.773C51.9646 161.775 51.8232 161.777 51.641 161.78C51.2491 161.784 50.6861 161.788 49.9554 161.794C48.4608 161.802 46.2866 161.812 43.5225 161.826C37.948 161.841 29.9964 161.862 20.4461 161.888H20.3247V161.766C20.3192 152.151 20.3123 140.75 20.3047 128.564V128.423H20.4461H20.4489C32.0485 128.43 42.9381 128.436 52.2103 128.441H52.3338L52.3331 128.564C52.3076 138.515 52.2855 146.827 52.271 152.66C52.2572 155.554 52.2462 157.833 52.2386 159.4C52.2324 160.167 52.2275 160.758 52.2241 161.168C52.2213 161.36 52.2186 161.508 52.2172 161.618C52.2144 161.719 52.2117 161.768 52.2096 161.766Z" fill="#E0E0E0"/>
<path d="M41.6852 139.852H31.0571V150.48H41.6852V139.852Z" fill="#EBEBEB"/>
<path d="M291.812 20.964V14.3145H287.131C287.131 14.5746 287.131 20.964 287.131 20.964H282.427V59.0002H296.183V20.964H291.812Z" fill="#EBEBEB"/>
<path d="M305.142 59H201.342V64.7891H305.142V59Z" fill="#E0E0E0"/>
<path d="M288.549 64.79H285.246V84.3798H288.549V64.79Z" fill="#E0E0E0"/>
<path d="M218.013 64.79H214.71V84.3798H218.013V64.79Z" fill="#E0E0E0"/>
<path d="M256.128 31.1953V26.335H252.705C252.705 26.5247 252.705 31.1953 252.705 31.1953H249.268V59.0003H259.323V31.1953H256.128Z" fill="#F5F5F5"/>
<path d="M275.801 31.1953V26.335H272.379C272.379 26.5247 272.379 31.1953 272.379 31.1953H268.941V59.0003H278.997V31.1953H275.801Z" fill="#EBEBEB"/>
<path d="M236.077 40.9355H218.013V58.9997H236.077V40.9355Z" fill="#E0E0E0"/>
<path d="M235.989 45.5774C235.989 45.694 232.001 45.7885 227.083 45.7885C222.163 45.7885 218.176 45.694 218.176 45.5774C218.176 45.4607 222.163 45.3662 227.083 45.3662C232.001 45.3662 235.989 45.4607 235.989 45.5774Z" fill="#EBEBEB"/>
<path d="M227.731 47.961C227.735 47.9472 227.798 47.9562 227.915 47.9879C228.034 48.0128 228.2 48.088 228.396 48.2149C228.788 48.4695 229.227 49.0554 229.385 49.8778C229.534 50.6727 229.564 51.7546 228.921 52.7172C228.609 53.1829 228.123 53.6011 227.516 53.7812C226.915 53.9661 226.258 53.9316 225.64 53.7639C224.406 53.4493 223.336 52.4971 223.129 51.3482C222.89 50.229 223.336 49.1664 223.978 48.6165C224.618 48.05 225.323 47.9017 225.777 47.8906C226.241 47.8782 226.482 47.9865 226.476 48.0052C226.471 48.0431 226.223 47.9928 225.79 48.0542C225.367 48.1128 224.731 48.2991 224.183 48.8339C223.637 49.3486 223.282 50.2905 223.509 51.2647C223.704 52.2438 224.626 53.0636 225.752 53.3575C226.31 53.5093 226.891 53.5376 227.398 53.3858C227.905 53.2402 228.319 52.9 228.603 52.4964C229.18 51.6815 229.198 50.681 229.093 49.933C228.982 49.1637 228.626 48.6193 228.297 48.346C227.965 48.0693 227.716 48.001 227.731 47.961Z" fill="#EBEBEB"/>
<path d="M36.9138 4.66992H109.574V99.2455L37.4023 98.8749L36.9138 4.66992Z" fill="#E0E0E0"/>
<path d="M32.7303 98.5205L104.969 98.5205L104.969 4.67223L32.7303 4.67223L32.7303 98.5205Z" fill="white"/>
<path d="M105.326 4.31348V98.878H32.3716V4.31348H105.326ZM104.61 98.1618V5.0297H33.0878V98.1611H104.61V98.1618Z" fill="#E0E0E0"/>
<path d="M95.4596 14.8359H40.1541V88.3554H95.4596V14.8359Z" fill="white"/>
<path d="M40.1542 14.8358C40.1542 14.8358 40.1604 14.9593 40.1638 15.1925C40.1659 15.434 40.1693 15.777 40.1735 16.2268C40.1783 17.1445 40.1852 18.4866 40.1935 20.2316C40.2038 23.734 40.219 28.8414 40.2383 35.3102C40.259 48.2387 40.288 66.5955 40.3225 88.3553L40.1542 88.1869C56.7431 88.1814 75.5725 88.1752 95.4535 88.169H95.4597L95.2734 88.3553C95.2858 60.9782 95.2976 35.5993 95.3072 14.8365L95.4604 14.9897C78.7472 14.9565 64.941 14.9289 55.3017 14.9096C50.48 14.8931 46.7023 14.8793 44.1196 14.8703C42.8355 14.8627 41.8502 14.8572 41.1747 14.853C40.5061 14.8468 40.1542 14.8358 40.1542 14.8358C40.1542 14.8358 40.484 14.8248 41.1409 14.8192C41.8095 14.8151 42.7851 14.8096 44.0568 14.802C46.6319 14.793 50.3972 14.7799 55.2044 14.7627C64.8672 14.7433 78.7058 14.7157 95.459 14.6826H95.6122V14.8358C95.6219 35.5986 95.6336 60.9775 95.646 88.3546V88.5416H95.459H95.4528C75.5719 88.5347 56.7424 88.5292 40.1535 88.5237H39.9851V88.3553C40.0196 66.5506 40.0486 48.1559 40.0686 35.2005C40.0879 28.7483 40.1031 23.6533 40.1135 20.1598C40.1224 18.4293 40.1286 17.0983 40.1335 16.1882C40.1376 15.7466 40.1411 15.4099 40.1431 15.1725C40.1473 14.9462 40.1542 14.8358 40.1542 14.8358Z" fill="#E0E0E0"/>
<path d="M32.562 98.5196C32.52 98.4899 32.8953 97.8848 33.537 96.9326C34.1794 95.9804 35.0867 94.6783 36.1286 93.268C37.1712 91.8569 38.1559 90.6101 38.8935 89.7283C39.6311 88.8458 40.1155 88.3241 40.1541 88.3559C40.1955 88.389 39.7836 88.9693 39.1012 89.8911C38.3394 90.9178 37.4321 92.1391 36.4295 93.4895C35.4248 94.8391 34.5161 96.0597 33.7523 97.0857C33.0554 97.9993 32.6041 98.5499 32.562 98.5196Z" fill="#E0E0E0"/>
<path d="M32.7296 4.67113C32.8131 4.61041 34.5423 6.83705 36.5923 9.64328C38.6429 12.4509 40.2368 14.7748 40.1534 14.8355C40.0706 14.8962 38.3414 12.6703 36.2907 9.86339C34.2414 7.05716 32.6468 4.73185 32.7296 4.67113Z" fill="#E0E0E0"/>
<path d="M95.4596 15.2101C95.383 15.1411 97.4495 12.7261 100.075 9.81636C102.701 6.90594 104.891 4.60341 104.968 4.67241C105.044 4.74141 102.978 7.15641 100.352 10.0668C97.7269 12.9759 95.5362 15.2791 95.4596 15.2101Z" fill="#E0E0E0"/>
<path d="M104.968 98.5195C104.891 98.5885 102.796 96.3922 100.289 93.6143C97.7807 90.8357 95.8101 88.5276 95.8867 88.4586C95.9633 88.3896 98.0574 90.5852 100.566 93.3638C103.074 96.1425 105.044 98.4505 104.968 98.5195Z" fill="#E0E0E0"/>
<path d="M52.6707 67.2046C53.164 66.5332 53.6049 65.9336 54.0451 65.3326C55.1043 63.885 56.24 62.4864 57.204 60.9781C58.8137 58.4582 58.7137 55.8306 57.3599 53.2259C56.5429 51.6541 55.6618 50.1161 54.8386 48.5477C53.1136 45.2605 52.7058 41.825 53.7567 38.246C53.8816 37.8196 54.0921 37.418 54.2887 36.9426C54.1473 36.9557 54.0438 36.9647 53.825 36.9854C54.0893 36.4996 54.3253 36.0656 54.5613 35.6323C54.5219 35.5998 54.4826 35.5674 54.4433 35.5357C54.1293 35.8503 53.8154 36.165 53.5007 36.4796C53.4793 36.4658 53.4586 36.452 53.4372 36.4375C54.1673 35.4515 54.8973 34.4662 55.6273 33.4802C55.6604 33.4967 55.6935 33.5133 55.726 33.5299C55.5245 33.8818 55.3223 34.233 55.1208 34.5849C56.4677 33.0117 58.1548 31.9684 59.9419 31.0272C60.4752 30.7464 60.8582 30.1799 61.3957 29.6617C61.4964 30.4131 61.7904 30.389 62.2893 30.1516C64.1378 29.2725 66.1263 29.2263 68.1225 29.2698C70.9281 29.3305 73.6646 29.8604 76.3866 30.4918C77.8301 30.8264 78.3456 30.7043 79.4854 29.7618C80.0257 30.6022 80.1451 31.5102 80.1368 32.5204C80.3238 32.0795 80.5108 31.6386 80.7626 31.0438C81.147 31.818 81.4878 32.5031 81.8501 33.2338C82.1088 33.0468 82.3848 32.8481 82.6684 32.6432C83.0051 34.1136 82.0495 36.2947 80.6791 37.102C80.2865 37.3331 80.183 37.5194 80.2948 37.9859C80.7074 39.7074 81.0524 41.4455 81.4236 43.1774C81.5789 43.9026 81.5023 44.5837 81.0704 45.2088C80.6288 45.847 80.6557 46.4542 81.1076 47.1063C81.9687 48.349 82.7774 49.6275 83.6137 50.8875C84.3334 51.9715 84.2112 52.3993 83.0079 52.9292C82.6277 53.0969 82.0384 53.1555 81.9122 53.4322C81.7818 53.7172 82.0985 54.2071 82.2185 54.6073C82.3834 55.1586 82.2889 55.3794 81.5934 56.0156C81.6776 56.1846 81.7969 56.3578 81.8542 56.5496C81.9805 56.9698 82.0467 57.379 81.5789 57.6757C81.1366 57.9558 81.0524 58.3692 81.2166 58.8542C81.3153 59.1454 81.4105 59.4387 81.4782 59.7381C81.8866 61.5376 80.7999 62.8693 78.9196 62.7824C77.67 62.7244 76.426 62.5354 75.1791 62.4064C73.4569 62.2283 73.9268 62.0786 73.3148 63.4828C72.8759 64.4888 72.7283 65.59 72.0907 66.5512C71.8009 66.9879 71.9044 67.8091 72.0597 68.3956C72.6206 70.518 73.2996 72.6087 73.8923 74.7228C74.2608 76.0373 74.5554 77.3718 74.7969 78.7704C69.0713 71.8159 61.344 68.7668 52.6707 67.2046Z" fill="#EBEBEB"/>
<path d="M193.953 18.1424C193.95 18.139 193.946 18.0845 193.943 17.981C193.94 17.8623 193.936 17.7126 193.932 17.5256C193.925 17.1074 193.917 16.5251 193.906 15.7778C193.892 14.2446 193.873 12.0408 193.849 9.26144L193.953 9.36563C186.288 9.38081 174.098 9.40496 160.384 9.43256C160.46 9.35666 160.212 9.60299 160.554 9.26144V9.26351V9.26834V9.27731V9.29525V9.33113V9.40289V9.54572V9.83138V10.4006C160.554 10.7794 160.554 11.1576 160.554 11.5336C160.554 12.2864 160.553 13.0337 160.553 13.7747C160.552 15.2568 160.551 16.7148 160.55 18.1431L160.383 17.9761C169.942 18.0065 178.307 18.0334 184.306 18.052C187.294 18.072 189.692 18.0886 191.368 18.0996C192.182 18.1093 192.82 18.1162 193.277 18.1217C193.482 18.1259 193.647 18.1293 193.776 18.1321C193.889 18.1355 193.95 18.139 193.953 18.1424C193.956 18.1459 193.904 18.1493 193.798 18.1535C193.674 18.1562 193.516 18.1597 193.319 18.1645C192.871 18.17 192.245 18.1769 191.446 18.1866C189.78 18.1976 187.395 18.2142 184.423 18.2342C178.394 18.2535 169.989 18.2797 160.383 18.3101L160.216 18.3108V18.1431C160.215 16.7148 160.214 15.2568 160.213 13.7747C160.213 13.0337 160.213 12.2864 160.213 11.5336C160.213 11.1576 160.213 10.7794 160.213 10.4006V9.83138V9.54572V9.40289V9.33113V9.29525V9.27731V9.26834V9.26351V9.26144C160.555 8.9192 160.309 9.16622 160.386 9.09032C174.099 9.11792 186.289 9.14207 193.954 9.15725H194.059L194.059 9.26144C194.034 12.067 194.014 14.2922 194.001 15.8399C193.99 16.5768 193.982 17.1516 193.976 17.5642C193.971 17.7436 193.967 17.8871 193.965 18.0017C193.96 18.0983 193.956 18.1459 193.953 18.1424Z" fill="#E0E0E0"/>
<path d="M184.732 9.30678C184.729 9.30333 184.726 9.24882 184.722 9.14532C184.719 9.02664 184.716 8.87691 184.711 8.68992C184.705 8.27178 184.697 7.68942 184.686 6.94215C184.672 5.40897 184.652 3.20511 184.628 0.425787L184.732 0.529977C177.067 0.545157 164.877 0.569307 151.164 0.596907C151.24 0.521007 150.991 0.767337 151.333 0.425787V0.427855V0.432685V0.441656V0.459596V0.495478V0.567238V0.710066V0.995727V1.56498C151.333 1.94379 151.333 2.32191 151.333 2.69796C151.333 3.45075 151.332 4.19802 151.332 4.93908C151.332 6.4212 151.33 7.87917 151.33 9.30747L151.163 9.14049C160.722 9.17085 169.086 9.19776 175.086 9.21639C178.074 9.2364 180.472 9.25296 182.147 9.264C182.962 9.27366 183.6 9.28056 184.056 9.28608C184.262 9.29022 184.426 9.29436 184.556 9.29712C184.67 9.29988 184.729 9.30333 184.732 9.30678C184.736 9.31023 184.684 9.31437 184.577 9.31782C184.453 9.32058 184.296 9.32403 184.098 9.32886C183.651 9.33438 183.025 9.34128 182.225 9.35094C180.559 9.36198 178.174 9.37854 175.202 9.39855C169.174 9.41787 160.768 9.44409 151.163 9.47445L150.996 9.47514V9.30747C150.995 7.87917 150.994 6.4212 150.993 4.93908C150.993 4.19802 150.992 3.45075 150.992 2.69796C150.992 2.32191 150.992 1.94379 150.992 1.56498V0.995727V0.710066V0.567238V0.495478V0.459596V0.441656V0.432685V0.428548V0.426476C151.334 0.0842362 151.088 0.331255 151.165 0.255355C164.878 0.282955 177.069 0.307106 184.734 0.322286H184.839L184.838 0.426476C184.813 3.23202 184.794 5.45727 184.781 7.00494C184.77 7.74186 184.761 8.31732 184.755 8.72925C184.75 8.90865 184.747 9.05217 184.744 9.16671C184.739 9.26262 184.736 9.31023 184.732 9.30678Z" fill="#E0E0E0"/>
<path d="M287.611 122.51C287.607 122.506 287.604 122.452 287.6 122.348C287.598 122.229 287.594 122.08 287.589 121.893C287.583 121.475 287.575 120.892 287.564 120.145C287.55 118.612 287.531 116.408 287.506 113.629L287.611 113.733C279.945 113.748 267.755 113.772 254.042 113.8C254.118 113.724 253.87 113.97 254.211 113.629V113.631V113.636V113.644V113.662V113.698V113.77V113.913V114.199V114.768C254.211 115.147 254.211 115.525 254.211 115.901C254.211 116.654 254.211 117.401 254.211 118.142C254.21 119.624 254.208 121.082 254.208 122.51L254.041 122.343C263.6 122.374 271.965 122.401 277.964 122.419C280.952 122.439 283.35 122.456 285.025 122.467C285.84 122.476 286.478 122.483 286.934 122.489C287.14 122.493 287.304 122.497 287.434 122.5C287.547 122.502 287.607 122.506 287.611 122.51C287.614 122.513 287.562 122.517 287.455 122.521C287.331 122.523 287.174 122.527 286.977 122.532C286.529 122.537 285.903 122.544 285.103 122.554C283.438 122.565 281.052 122.581 278.08 122.601C272.052 122.621 263.646 122.647 254.041 122.677L253.874 122.678V122.51C253.873 121.082 253.872 119.624 253.871 118.142C253.871 117.401 253.87 116.654 253.87 115.901C253.87 115.525 253.87 115.147 253.87 114.768V114.199V113.913V113.77V113.698V113.662V113.644V113.636V113.631V113.629C254.213 113.286 253.966 113.533 254.044 113.458C267.757 113.485 279.947 113.509 287.612 113.524H287.717L287.716 113.629C287.691 116.434 287.672 118.659 287.659 120.207C287.648 120.944 287.64 121.519 287.633 121.931C287.629 122.111 287.625 122.254 287.622 122.369C287.618 122.465 287.614 122.513 287.611 122.51Z" fill="#E0E0E0"/>
<path d="M292.162 113.629C292.158 113.625 292.154 113.567 292.149 113.46C292.145 113.332 292.141 113.178 292.136 112.989C292.128 112.552 292.118 111.958 292.105 111.208C292.09 109.651 292.067 107.452 292.039 104.748L292.162 104.871C286.937 104.883 279.828 104.9 271.993 104.919C271.839 105.071 272.2 104.711 272.163 104.749V104.751V104.755V104.764V104.782V104.819V104.892V105.038V105.329V105.909C272.163 106.296 272.163 106.679 272.162 107.061C272.162 107.824 272.162 108.578 272.161 109.321C272.159 110.807 272.157 112.247 272.155 113.627L271.992 113.465C277.815 113.496 282.828 113.523 286.42 113.542C288.192 113.561 289.612 113.576 290.623 113.587C291.095 113.595 291.471 113.602 291.757 113.607C292.017 113.616 292.155 113.622 292.162 113.629C292.169 113.636 292.043 113.642 291.796 113.649C291.519 113.654 291.154 113.661 290.696 113.67C289.694 113.681 288.286 113.696 286.53 113.714C282.909 113.734 277.858 113.761 271.991 113.792L271.828 113.792V113.629C271.826 112.249 271.824 110.808 271.822 109.323C271.821 108.579 271.821 107.825 271.821 107.062C271.821 106.681 271.821 106.296 271.82 105.911V105.33V105.039V104.893V104.82V104.784V104.766V104.757V104.752V104.75C271.783 104.786 272.144 104.425 271.993 104.578C279.828 104.597 286.936 104.614 292.161 104.626H292.285L292.284 104.749C292.257 107.485 292.234 109.71 292.218 111.285C292.205 112.023 292.194 112.608 292.188 113.038C292.179 113.434 292.171 113.637 292.162 113.629Z" fill="#E0E0E0"/>
<path d="M77.6023 207.951H44.0317V216.832H77.6023V207.951Z" fill="#E0E0E0"/>
<path d="M63.4071 226.186C63.4036 226.183 63.4002 226.128 63.3967 226.025C63.3939 225.906 63.3905 225.756 63.3857 225.569C63.3795 225.151 63.3712 224.569 63.3608 223.822C63.347 222.288 63.3277 220.084 63.3036 217.305L63.4077 217.409C55.7425 217.425 43.5523 217.449 29.8392 217.476C29.9151 217.4 29.6667 217.647 30.0083 217.306V217.308V217.313V217.322V217.34V217.376V217.447V217.59V217.876V218.445C30.0083 218.824 30.0083 219.201 30.0083 219.578C30.0083 220.331 30.0076 221.078 30.0076 221.819C30.0069 223.301 30.0055 224.759 30.0048 226.188L29.8379 226.021C39.3971 226.051 47.7613 226.078 53.7609 226.096C56.7492 226.116 59.147 226.133 60.8223 226.144C61.6372 226.154 62.2748 226.161 62.7315 226.166C62.9372 226.171 63.1014 226.174 63.2311 226.177C63.3436 226.179 63.4036 226.182 63.4071 226.186C63.4105 226.19 63.3581 226.193 63.2518 226.197C63.1276 226.2 62.9703 226.203 62.7729 226.208C62.3251 226.214 61.6986 226.221 60.8996 226.23C59.2339 226.241 56.8486 226.258 53.8768 226.278C47.8482 226.297 39.4427 226.323 29.8372 226.354L29.6702 226.354V226.187C29.6695 224.759 29.6681 223.301 29.6674 221.818C29.6674 221.077 29.6667 220.33 29.6667 219.577C29.6667 219.201 29.6667 218.823 29.6667 218.444V217.875V217.589V217.447V217.375V217.339V217.321V217.312V217.307V217.305C30.009 216.963 29.7627 217.211 29.8399 217.134C43.553 217.162 55.7432 217.186 63.4084 217.201H63.5133L63.5126 217.305C63.4878 220.111 63.4685 222.335 63.4554 223.884C63.4443 224.621 63.436 225.196 63.4298 225.608C63.4257 225.787 63.4215 225.931 63.4188 226.045C63.414 226.142 63.4105 226.19 63.4071 226.186Z" fill="#E0E0E0"/>
<path d="M205.706 231.708L215.353 298.543L171.315 298.391L168.11 270.043L164.596 298.543H127.19L129.423 231.437L205.706 231.708Z" fill="#263238"/>
<path d="M157.173 101.463C157.173 101.463 178.826 96.7463 182.75 95.2373C182.75 95.2373 196.753 95.8141 202.969 99.4539C211.667 104.547 232.808 132.083 232.808 132.083L213.931 144.973H201.109L202.316 183.936L208.108 232.663L128.266 235.533L125.832 150.054L108.463 141.357L129.176 110.32L150.827 98.924L157.173 101.463Z" fill="#743089"/>
<g opacity="0.2">
<path d="M157.173 101.463C157.173 101.463 181.655 96.8547 182.75 95.2373C182.75 95.2373 196.753 95.8141 202.969 99.4539C211.667 104.547 232.808 132.083 232.808 132.083L213.931 144.973H201.109L202.316 183.936L208.108 232.663L128.266 235.533L125.832 150.054L108.463 141.357L129.176 110.32L150.827 98.924L157.173 101.463Z" fill="black"/>
</g>
<path d="M193.16 176.373C193.171 176.379 193.104 176.517 192.968 176.775C192.81 177.064 192.606 177.435 192.354 177.895C192.091 178.383 191.753 178.973 191.315 179.628C190.883 180.287 190.423 181.06 189.82 181.849C189.527 182.251 189.22 182.671 188.901 183.108C188.579 183.543 188.208 183.968 187.842 184.423C187.123 185.345 186.265 186.251 185.38 187.221C183.554 189.108 181.418 191.062 179 192.893C176.564 194.7 174.088 196.202 171.764 197.425C170.585 198.003 169.474 198.573 168.387 199.004C167.848 199.227 167.336 199.464 166.827 199.651C166.318 199.835 165.829 200.011 165.361 200.18C164.434 200.536 163.563 200.761 162.809 200.991C162.057 201.228 161.397 201.386 160.854 201.502C160.343 201.614 159.93 201.705 159.608 201.776C159.322 201.835 159.171 201.86 159.168 201.848C159.165 201.836 159.312 201.787 159.592 201.706C159.909 201.618 160.316 201.506 160.82 201.366C161.356 201.23 162.008 201.052 162.752 200.799C163.497 200.552 164.359 200.312 165.275 199.942C165.738 199.767 166.222 199.584 166.726 199.394C167.229 199.202 167.735 198.959 168.269 198.731C169.344 198.291 170.443 197.714 171.611 197.133C173.912 195.901 176.365 194.402 178.785 192.606C181.187 190.787 183.314 188.855 185.142 186.992C186.028 186.035 186.89 185.142 187.614 184.234C187.982 183.785 188.357 183.367 188.683 182.939C189.007 182.509 189.318 182.095 189.616 181.7C190.228 180.925 190.701 180.165 191.147 179.519C191.6 178.877 191.953 178.3 192.234 177.824C192.51 177.379 192.732 177.02 192.905 176.74C193.062 176.494 193.15 176.367 193.16 176.373Z" fill="#263238"/>
<path d="M187.375 117.244C187.351 117.251 187.26 116.946 187.114 116.387C187.034 116.108 186.952 115.764 186.907 115.355C186.855 114.948 186.761 114.486 186.761 113.967C186.751 113.706 186.741 113.435 186.731 113.154C186.724 112.871 186.757 112.578 186.769 112.274C186.78 111.662 186.898 111.02 186.998 110.342C187.266 108.997 187.709 107.546 188.39 106.113C189.093 104.691 189.96 103.444 190.851 102.402C191.321 101.903 191.753 101.414 192.227 101.027C192.458 100.829 192.668 100.621 192.894 100.451C193.121 100.285 193.341 100.126 193.552 99.9722C193.96 99.6514 194.381 99.4389 194.733 99.2277C195.082 99.0104 195.403 98.862 195.671 98.7516C196.2 98.5198 196.496 98.4039 196.506 98.4266C196.543 98.5032 195.34 98.9614 193.702 100.178C193.499 100.334 193.288 100.498 193.07 100.666C192.852 100.838 192.65 101.047 192.427 101.247C191.971 101.636 191.556 102.124 191.101 102.618C190.242 103.652 189.402 104.877 188.714 106.27C188.047 107.673 187.604 109.09 187.323 110.404C187.216 111.067 187.089 111.696 187.066 112.295C187.047 112.593 187.008 112.881 187.007 113.159C187.01 113.435 187.012 113.701 187.014 113.958C187.074 115.997 187.459 117.226 187.375 117.244Z" fill="#263238"/>
<path d="M191.316 125.034C191.312 125.038 191.239 124.989 191.101 124.89C190.949 124.78 190.747 124.634 190.49 124.448C189.932 124.095 189.092 123.581 187.903 123.171C186.72 122.764 185.188 122.463 183.408 122.535C181.643 122.636 179.598 123.109 177.74 124.363C177.258 124.647 176.856 125.065 176.399 125.425C175.952 125.802 175.581 126.277 175.155 126.712C174.405 127.674 173.68 128.722 173.086 129.903C171.847 132.237 170.923 134.923 169.798 137.692C169.227 139.073 168.62 140.49 167.819 141.848C167.451 142.544 166.971 143.185 166.513 143.846C166.254 144.155 165.993 144.465 165.731 144.777C165.481 145.099 165.15 145.35 164.861 145.642C162.462 147.944 159.047 149.081 155.619 149.413C153.892 149.582 152.173 149.578 150.493 149.451C148.81 149.334 147.161 149.079 145.573 148.692C142.406 147.917 139.45 146.513 137.261 144.416C135.049 142.328 133.719 139.737 132.465 137.415C131.232 135.068 130.018 132.909 128.533 131.222C127.072 129.535 125.348 128.321 123.638 127.853C121.927 127.38 120.334 127.501 119.154 127.892C117.95 128.259 117.178 128.911 116.724 129.376C116.491 129.612 116.343 129.815 116.245 129.955C116.144 130.091 116.089 130.16 116.084 130.156C116.078 130.153 116.122 130.078 116.215 129.934C116.303 129.787 116.443 129.574 116.671 129.327C117.113 128.839 117.888 128.154 119.109 127.759C120.308 127.339 121.932 127.193 123.691 127.658C125.457 128.123 127.225 129.35 128.724 131.053C130.243 132.755 131.483 134.934 132.727 137.274C133.992 139.59 135.323 142.145 137.488 144.174C139.632 146.217 142.531 147.589 145.657 148.349C147.225 148.728 148.855 148.979 150.519 149.094C152.183 149.218 153.881 149.222 155.583 149.055C158.964 148.728 162.292 147.615 164.623 145.382C164.905 145.098 165.228 144.857 165.472 144.541C165.728 144.237 165.983 143.935 166.236 143.634C166.686 142.987 167.158 142.361 167.522 141.675C168.313 140.341 168.918 138.939 169.491 137.566C170.619 134.813 171.557 132.119 172.822 129.763C173.428 128.573 174.171 127.508 174.941 126.533C175.379 126.091 175.76 125.609 176.219 125.227C176.69 124.86 177.102 124.438 177.599 124.15C179.513 122.878 181.604 122.416 183.399 122.333C185.209 122.279 186.758 122.606 187.949 123.038C189.146 123.474 189.982 124.012 190.531 124.387C190.798 124.586 190.99 124.753 191.123 124.86C191.254 124.971 191.32 125.029 191.316 125.034Z" fill="white"/>
<path d="M219.729 117.901C219.742 117.903 219.73 118.004 219.698 118.195C219.66 118.384 219.624 118.67 219.525 119.025C219.355 119.74 219.025 120.761 218.457 121.952C217.348 124.322 215.038 127.387 211.449 129.324C207.855 131.252 204.023 131.491 201.435 131.111C200.128 130.929 199.094 130.642 198.403 130.389C198.053 130.277 197.796 130.148 197.617 130.076C197.44 129.998 197.349 129.952 197.354 129.94C197.378 129.857 198.874 130.562 201.466 130.858C204.025 131.169 207.769 130.891 211.28 129.007C214.785 127.116 217.079 124.145 218.23 121.839C219.411 119.513 219.646 117.876 219.729 117.901Z" fill="white"/>
<path d="M199.118 161.964C199.092 162.033 198.152 161.351 196.181 160.982C195.198 160.828 193.964 160.775 192.564 161.015C191.166 161.249 189.616 161.762 188.018 162.56C186.42 163.359 184.761 164.424 183.145 165.77C181.536 167.125 179.935 168.721 178.202 170.35C176.465 171.973 174.593 173.662 172.368 175.032C171.259 175.716 170.062 176.32 168.774 176.734C167.489 177.156 166.126 177.392 164.74 177.459C161.954 177.542 159.278 176.887 156.851 175.973C154.415 175.053 152.187 173.9 150.097 172.764C148.005 171.625 146.055 170.492 144.149 169.591C142.249 168.679 140.42 167.951 138.701 167.455C135.262 166.424 132.286 166.446 130.338 166.869C129.842 166.945 129.422 167.091 129.052 167.199C128.678 167.296 128.375 167.419 128.133 167.524C127.903 167.615 127.719 167.689 127.575 167.746C127.448 167.795 127.382 167.817 127.379 167.811C127.376 167.806 127.437 167.773 127.559 167.713C127.701 167.647 127.88 167.562 128.106 167.457C128.345 167.341 128.644 167.205 129.018 167.096C129.388 166.977 129.81 166.819 130.309 166.731C132.268 166.262 135.29 166.199 138.77 167.21C140.51 167.696 142.36 168.415 144.276 169.321C146.2 170.216 148.166 171.345 150.254 172.472C152.343 173.598 154.563 174.737 156.974 175.642C159.377 176.543 162.007 177.181 164.726 177.099C166.079 177.034 167.407 176.805 168.661 176.395C169.919 175.992 171.091 175.402 172.183 174.732C174.374 173.39 176.237 171.72 177.975 170.109C179.711 168.49 181.32 166.9 182.954 165.54C184.596 164.19 186.281 163.126 187.904 162.331C189.529 161.538 191.107 161.035 192.53 160.817C193.955 160.591 195.21 160.666 196.204 160.844C196.698 160.955 197.139 161.044 197.5 161.197C197.867 161.328 198.178 161.436 198.407 161.574C198.627 161.69 198.802 161.783 198.94 161.857C199.062 161.923 199.121 161.959 199.118 161.964Z" fill="white"/>
<path d="M162.791 199.523C162.786 199.555 162.234 199.466 161.235 199.368C160.237 199.266 158.78 199.21 156.992 199.345C153.418 199.582 148.533 200.9 143.757 203.593C138.978 206.29 135.168 209.534 132.441 211.872C131.113 213.034 130.025 213.985 129.231 214.68C128.874 214.989 128.583 215.239 128.352 215.438C128.148 215.608 128.037 215.693 128.029 215.684C128.021 215.675 128.115 215.572 128.303 215.385C128.522 215.173 128.798 214.905 129.137 214.577C129.867 213.882 130.931 212.885 132.273 211.681C134.961 209.291 138.762 205.999 143.582 203.279C148.401 200.56 153.359 199.264 156.974 199.091C158.782 198.988 160.251 199.084 161.251 199.23C161.754 199.282 162.136 199.38 162.397 199.425C162.658 199.477 162.793 199.511 162.791 199.523Z" fill="white"/>
<path d="M205.316 208.634C205.318 208.666 204.776 208.696 203.816 208.874C202.853 209.043 201.491 209.42 199.828 209.966C198.994 210.234 198.081 210.537 197.083 210.813C196.586 210.959 196.06 211.067 195.516 211.168C194.975 211.28 194.416 211.391 193.833 211.432C191.516 211.703 188.915 211.59 186.29 210.982C183.662 210.379 181.277 209.351 179.283 208.145C177.287 206.936 175.672 205.567 174.458 204.291C173.263 202.994 172.431 201.83 171.918 200.993C171.692 200.593 171.508 200.267 171.361 200.007C171.237 199.78 171.178 199.659 171.188 199.653C171.199 199.646 171.28 199.757 171.424 199.971C171.585 200.22 171.787 200.534 172.035 200.917C172.581 201.726 173.436 202.855 174.64 204.114C175.864 205.353 177.474 206.684 179.452 207.861C181.427 209.035 183.782 210.038 186.369 210.633C188.955 211.231 191.512 211.352 193.795 211.103C194.37 211.067 194.92 210.963 195.455 210.857C195.992 210.764 196.511 210.664 197.005 210.526C197.997 210.265 198.912 209.978 199.751 209.724C201.427 209.208 202.815 208.863 203.792 208.736C204.279 208.664 204.66 208.636 204.919 208.627C205.179 208.62 205.315 208.621 205.316 208.634Z" fill="white"/>
<path d="M174.444 233.22C174.438 233.231 174.321 233.187 174.102 233.092C173.848 232.977 173.535 232.835 173.153 232.663C172.331 232.285 171.144 231.733 169.66 231.096C168.177 230.46 166.39 229.744 164.35 229.129C162.314 228.511 160.012 228.02 157.563 227.889C155.117 227.78 152.777 228.126 150.758 228.768C148.741 229.423 147.036 230.34 145.779 231.335C144.517 232.325 143.653 233.315 143.143 234.054C142.625 234.788 142.385 235.23 142.353 235.212C142.342 235.207 142.394 235.093 142.505 234.881C142.625 234.675 142.761 234.344 143.027 233.975C143.507 233.203 144.357 232.169 145.621 231.136C146.881 230.097 148.608 229.137 150.656 228.454C152.706 227.782 155.088 227.419 157.58 227.531C160.067 227.664 162.397 228.172 164.446 228.813C166.499 229.451 168.286 230.195 169.762 230.864C171.238 231.533 172.41 232.121 173.214 232.538C173.584 232.735 173.888 232.897 174.134 233.028C174.343 233.143 174.449 233.209 174.444 233.22Z" fill="white"/>
<path d="M182.481 57.7591C182.684 57.6777 190.638 55.5911 190.157 63.6351C189.676 71.6785 181.7 69.536 181.699 69.3042C181.699 69.073 182.481 57.7591 182.481 57.7591Z" fill="#FFBE9D"/>
<path d="M184.339 66.4044C184.375 66.3809 184.473 66.5107 184.703 66.6335C184.928 66.7529 185.321 66.8501 185.749 66.7177C186.617 66.4568 187.414 65.1507 187.54 63.7031C187.604 62.9723 187.493 62.2658 187.268 61.6731C187.057 61.07 186.701 60.636 186.278 60.5346C185.859 60.4104 185.541 60.6484 185.428 60.8685C185.307 61.0873 185.348 61.2508 185.305 61.2618C185.281 61.2812 185.141 61.1169 185.225 60.7885C185.268 60.6305 185.373 60.4463 185.572 60.3034C185.774 60.1578 186.062 60.095 186.359 60.1447C186.977 60.2248 187.501 60.8292 187.748 61.4799C188.029 62.1354 188.172 62.9303 188.1 63.7507C187.952 65.3687 187.031 66.8356 185.848 67.102C185.273 67.2151 184.811 67.0171 184.579 66.8122C184.342 66.5997 184.31 66.4168 184.339 66.4044Z" fill="#EB996E"/>
<path d="M162.394 29.0225C158.307 29.0225 154.146 29.0225 149.029 31.6941C145.803 33.3791 143.791 36.0494 142.109 39.2772C140.822 41.7474 140.06 44.9842 140.208 47.7656C140.356 50.5477 140.366 52.4928 141.477 55.0472" fill="#263238"/>
<path d="M164.028 29.6542C151.933 28.8097 141.486 38.0384 140.853 50.1465C140.327 60.2233 139.863 71.1219 139.974 76.6101C140.214 88.3891 152.011 90.1265 152.011 90.1265C152.011 90.1265 151.751 93.6193 151.459 97.9525C150.874 106.679 157.612 114.17 166.352 114.501C174.92 114.826 182.127 108.139 182.443 99.5699L184.196 52.0951C184.628 40.3996 175.704 30.4698 164.028 29.6542Z" fill="#FFBE9D"/>
<path d="M152.011 90.1275C152.011 90.1275 159.25 90.5043 167.123 85.4707C167.123 85.4707 163.56 94.0412 151.798 93.0738L152.011 90.1275Z" fill="#EB996E"/>
<path d="M145.365 58.311C145.34 59.1997 146.073 59.9532 147.001 59.9953C147.926 60.0374 148.698 59.3529 148.722 58.4649C148.746 57.5761 148.014 56.822 147.088 56.7792C146.161 56.7371 145.389 57.4223 145.365 58.311Z" fill="#263238"/>
<path d="M143.733 54.3201C143.943 54.5375 145.21 53.5839 147.021 53.5742C148.828 53.5384 150.164 54.4595 150.359 54.236C150.455 54.1373 150.239 53.7426 149.658 53.3258C149.084 52.9112 148.11 52.511 146.983 52.5248C145.855 52.5399 144.91 52.9629 144.368 53.3921C143.815 53.824 143.629 54.2222 143.733 54.3201Z" fill="#263238"/>
<path d="M163.118 58.0581C163.093 58.9468 163.826 59.6996 164.754 59.7424C165.679 59.7845 166.451 59.1007 166.476 58.212C166.5 57.3233 165.767 56.5691 164.842 56.5263C163.914 56.4835 163.142 57.1694 163.118 58.0581Z" fill="#263238"/>
<path d="M161.53 54.5151C161.74 54.7331 163.009 53.7795 164.818 53.7699C166.626 53.7347 167.962 54.6551 168.157 54.4316C168.252 54.3329 168.039 53.9382 167.454 53.5221C166.882 53.1068 165.907 52.7073 164.78 52.7211C163.652 52.7362 162.707 53.1585 162.165 53.5877C161.613 54.0196 161.427 54.4178 161.53 54.5151Z" fill="#263238"/>
<path d="M155.067 67.9936C155.075 67.8908 153.948 67.7052 152.122 67.4865C151.66 67.4423 151.222 67.354 151.141 67.0394C151.03 66.7061 151.219 66.2065 151.439 65.6663C151.865 64.5443 152.31 63.3679 152.778 62.1355C154.637 57.1082 155.978 52.9765 155.775 52.9033C155.571 52.8302 153.901 56.846 152.042 61.8719C151.595 63.1119 151.167 64.2932 150.76 65.4234C150.59 65.9498 150.294 66.5481 150.535 67.2395C150.662 67.5838 151.003 67.8322 151.301 67.9094C151.597 67.9978 151.858 68.0005 152.087 68.0123C153.923 68.0971 155.061 68.0964 155.067 67.9936Z" fill="#263238"/>
<path d="M160.405 69.2024C160.111 69.1879 160.122 71.153 158.452 72.5606C156.784 73.973 154.687 73.7688 154.674 74.0441C154.648 74.1676 155.144 74.4222 156.028 74.4388C156.895 74.4616 158.16 74.1731 159.182 73.3113C160.201 72.4481 160.634 71.3034 160.694 70.4968C160.763 69.675 160.539 69.19 160.405 69.2024Z" fill="#263238"/>
<path d="M161.005 47.4247C161.188 47.9153 162.994 47.6676 165.119 47.907C167.251 48.1029 168.968 48.7108 169.246 48.2679C169.37 48.0553 169.068 47.5951 168.372 47.1238C167.682 46.6533 166.583 46.2103 165.307 46.0785C164.031 45.9495 162.865 46.1606 162.094 46.4821C161.317 46.8016 160.927 47.1915 161.005 47.4247Z" fill="#263238"/>
<path d="M143.987 47.8755C144.308 48.284 145.552 47.8472 147.052 47.8154C148.55 47.7306 149.823 48.0694 150.112 47.6367C150.239 47.427 150.035 47.0164 149.477 46.6314C148.928 46.2485 148.011 45.9387 146.98 45.978C145.95 46.0187 145.06 46.3989 144.541 46.8239C144.015 47.251 143.845 47.6754 143.987 47.8755Z" fill="#263238"/>
<path d="M184.33 55.8237C184.33 55.8237 184.057 58.3442 183.92 59.5745C183.869 60.0237 183.417 65.1649 182.205 65.4147C181.163 65.6293 179.09 64.6798 178.167 62.6153C177.244 60.5508 175.488 55.598 175.678 53.3452C175.937 50.2726 176.08 47.1511 175.466 44.1295C174.852 41.108 173.408 38.161 170.979 36.2615C168.55 34.3619 165.049 33.6967 162.293 35.0795C160.592 35.933 159.32 37.4448 157.734 38.4978C156.309 39.4451 154.569 40.013 152.876 39.7618C151.183 39.5107 149.583 38.3308 149.121 36.6831C148.617 34.8849 149.543 32.9157 150.981 31.7254C152.42 30.5345 154.279 29.9887 156.111 29.6244C161.191 28.6156 166.577 28.8157 171.404 30.6925C176.231 32.5686 180.515 36.1718 182.578 40.9224C184.965 46.4155 184.96 49.8358 184.33 55.8237Z" fill="#263238"/>
<path d="M149.003 36.0495C148.887 35.4381 149.089 35.0959 148.745 34.8454C148.352 34.5598 147.61 35.3091 147.339 35.6079C147.253 35.7031 146.975 35.3312 146.868 35.2594C146.781 35.2015 146.649 34.5811 146.661 34.4776C146.712 34.0526 147.381 33.9367 147.696 33.6469C148.012 33.3564 148.402 33.1591 148.806 33.0169C149.159 32.8927 149.596 32.8251 149.87 33.0797C150.079 33.2743 150.115 33.591 150.106 33.8767C150.098 34.1602 150.059 34.4466 149.946 34.706C149.832 34.9655 149.637 35.1973 149.378 35.3139" fill="#263238"/>
<path d="M235.21 143.876C233.658 139.582 232.06 135.376 231.231 133.158L221.608 139.729L175.68 115.133C174.458 114.039 165.688 106.184 164.038 104.675C161.957 102.771 158.711 100.411 158.711 100.411L145.556 108.898L147.379 111.197C147.297 113.172 147.531 112.283 149.084 113.507C149.776 114.052 150.729 117.128 151.483 118.119C152.127 118.965 153.024 119.852 153.978 120.688C156.471 122.875 159.611 124.158 162.894 124.351L162.863 124.377L202.305 160.555C205.726 163.693 209.877 165.938 214.389 167.032C218.693 168.075 223.818 168.749 226.938 167.207C227.152 167.102 227.416 166.945 227.719 166.746C235.227 161.831 238.261 152.314 235.21 143.876Z" fill="#FFBE9D"/>
<path d="M159.836 113.968L133.41 93.7857C132.227 92.8825 130.558 93.0026 129.516 94.0652L125.831 98.635L126.736 99.3085L129.828 95.5873C129.91 95.4721 130.167 95.6142 130.06 95.7798L126.978 99.4886L127.483 99.8646L130.596 96.1186C130.679 96.0034 130.936 96.1462 130.828 96.3111L127.725 100.045L128.23 100.421L131.364 96.6499C131.447 96.5347 131.704 96.6775 131.596 96.8424L128.473 100.602L128.978 100.978L132.133 97.1805C132.215 97.0653 132.473 97.2081 132.364 97.373L129.219 101.158L129.724 101.534L132.9 97.7111C132.982 97.5959 133.24 97.7387 133.132 97.9036L129.966 101.714L130.471 102.09L133.668 98.2417C133.75 98.1265 134.008 98.2693 133.899 98.4342L130.712 102.27L131.217 102.646L134.436 98.773C134.518 98.6578 134.776 98.8006 134.668 98.9656L131.46 102.827L131.965 103.203L135.204 99.3043C135.286 99.1891 135.544 99.3319 135.436 99.4969L132.207 103.383L132.712 103.759L135.973 99.8349C136.055 99.7197 136.312 99.8626 136.205 100.027L132.954 103.939L133.459 104.315L136.741 100.366C136.823 100.25 137.08 100.393 136.973 100.558L133.701 104.495L134.207 104.871L137.51 100.896C137.592 100.781 137.849 100.924 137.741 101.089L134.449 105.051L134.954 105.427L138.278 101.427C138.36 101.312 138.617 101.455 138.509 101.62L135.195 105.607L135.7 105.984L139.045 101.958C139.127 101.843 139.384 101.985 139.276 102.151L135.941 106.164L136.446 106.54L139.812 102.489C139.894 102.373 140.152 102.516 140.044 102.681L136.688 106.72L137.193 107.096L140.58 103.019C140.662 102.904 140.92 103.047 140.811 103.212L137.434 107.276L137.939 107.652L141.348 103.55C141.43 103.435 141.687 103.578 141.579 103.742L138.181 107.832L138.686 108.208L142.115 104.081C142.197 103.966 142.455 104.109 142.347 104.274L138.928 108.388L139.433 108.764L142.884 104.612C142.966 104.497 143.223 104.639 143.116 104.804L139.675 108.944L140.181 109.32L143.652 105.142C143.734 105.027 143.991 105.17 143.884 105.335L140.422 109.5L140.927 109.877L144.42 105.673C144.502 105.558 144.759 105.701 144.651 105.866L141.169 110.057L141.656 110.42L145.1 106.275C145.182 106.16 145.44 106.303 145.332 106.468L141.899 110.6L142.386 110.963L145.781 106.877C145.863 106.762 146.121 106.904 146.013 107.07L142.629 111.143L143.116 111.506L146.462 107.479C146.544 107.364 146.802 107.507 146.694 107.672L143.359 111.686L143.847 112.049L147.143 108.081C147.225 107.966 147.483 108.109 147.374 108.274L144.088 112.229L144.576 112.592L147.824 108.684C147.906 108.568 148.163 108.711 148.056 108.876L144.818 112.772L145.306 113.135L148.505 109.285C148.587 109.17 148.844 109.312 148.736 109.478L145.547 113.315L146.035 113.678L149.185 109.888C149.267 109.772 149.525 109.915 149.416 110.08L146.277 113.858L146.765 114.221L149.865 110.489C149.947 110.374 150.204 110.517 150.097 110.682L147.006 114.401L147.494 114.764L150.545 111.092C150.627 110.976 150.885 111.119 150.777 111.284L147.735 114.944L148.223 115.307L151.226 111.693C151.308 111.578 151.566 111.721 151.457 111.886L148.465 115.487L148.953 115.85L151.906 112.296C151.988 112.18 152.245 112.323 152.137 112.488L149.194 116.03L149.682 116.393L152.586 112.897C152.668 112.782 152.926 112.925 152.817 113.09L149.923 116.573L150.411 116.936L153.266 113.5C153.348 113.384 153.606 113.527 153.498 113.692L150.653 117.116L151.141 117.479L153.947 114.101C154.03 113.986 154.287 114.129 154.179 114.294L151.383 117.659L151.871 118.022L154.628 114.704C154.71 114.589 154.967 114.731 154.86 114.896L152.113 118.202L152.601 118.565L155.309 115.305C155.391 115.19 155.648 115.333 155.541 115.498L152.843 118.745L153.331 119.108L155.99 115.908C156.072 115.793 156.329 115.935 156.222 116.1L153.573 119.288L154.061 119.651L156.671 116.509C156.753 116.394 157.01 116.537 156.902 116.702L154.302 119.831L154.79 120.194L157.351 117.112C157.433 116.997 157.691 117.139 157.582 117.304L155.031 120.374L155.519 120.737L158.032 117.714C158.114 117.598 158.371 117.741 158.263 117.906L155.761 120.917L156.938 121.793L160.191 118.326C161.391 117.053 161.223 115.027 159.836 113.968Z" fill="#263238"/>
<path d="M154.515 105.707C153.313 106.981 152.166 108.381 151.646 110.053C151.043 111.994 151.353 114.116 152.016 116.038C152.364 117.046 152.924 118.128 153.945 118.435C154.851 118.707 155.872 118.224 156.407 117.444C156.941 116.664 157.049 115.652 156.902 114.717C156.754 113.782 156.376 112.902 156 112.034C157.13 110.935 158.076 109.648 158.789 108.241" fill="#FFBE9D"/>
<path d="M158.789 108.24C158.801 108.246 158.761 108.354 158.671 108.55C158.579 108.746 158.436 109.032 158.228 109.386C157.813 110.094 157.137 111.088 156.094 112.129L156.124 111.979C156.368 112.53 156.641 113.131 156.851 113.809C157.059 114.484 157.196 115.254 157.091 116.057C156.996 116.846 156.622 117.708 155.874 118.224C155.509 118.479 155.07 118.654 154.601 118.684C154.132 118.72 153.644 118.569 153.258 118.291C152.409 117.662 152.053 116.698 151.768 115.845C151.487 114.975 151.292 114.107 151.212 113.266C151.029 111.583 151.373 110.023 151.978 108.899C152.571 107.765 153.257 106.989 153.729 106.469C154.209 105.952 154.499 105.692 154.515 105.707C154.535 105.725 154.279 106.019 153.835 106.561C153.399 107.105 152.751 107.898 152.206 109.012C151.65 110.116 151.348 111.603 151.541 113.232C151.628 114.045 151.824 114.887 152.102 115.737C152.378 116.569 152.741 117.47 153.465 117.998C154.125 118.502 155.04 118.388 155.672 117.935C156.322 117.491 156.662 116.742 156.759 116.013C156.956 114.515 156.322 113.185 155.877 112.086L155.841 111.999L155.906 111.937C156.952 110.94 157.651 109.985 158.1 109.308C158.548 108.628 158.762 108.227 158.789 108.24Z" fill="#EB996E"/>
<path d="M158.483 108.191C159.466 109.63 160.579 110.98 161.804 112.219C160.77 112.487 159.358 115.48 159.378 116.547C159.425 118.951 160.272 121.58 163.506 121.793" fill="#FFBE9D"/>
<path d="M163.506 121.793C163.505 121.812 163.253 121.825 162.799 121.767C162.351 121.704 161.677 121.534 161.005 121.029C160.337 120.525 159.754 119.654 159.482 118.593C159.337 118.066 159.251 117.498 159.217 116.909C159.195 116.628 159.195 116.287 159.271 115.983C159.337 115.677 159.438 115.382 159.546 115.088C159.788 114.461 160.083 113.876 160.421 113.343C160.598 113.081 160.773 112.825 160.989 112.6C161.204 112.381 161.426 112.156 161.763 112.061L161.688 112.334C160.606 111.218 159.792 110.184 159.256 109.431C158.721 108.678 158.456 108.21 158.483 108.191C158.516 108.169 158.837 108.598 159.413 109.312C159.99 110.025 160.831 111.021 161.92 112.104L162.103 112.285L161.845 112.377C161.415 112.53 161.038 113.043 160.717 113.532C160.399 114.044 160.114 114.612 159.882 115.215C159.779 115.498 159.682 115.78 159.62 116.06C159.551 116.341 159.552 116.595 159.569 116.891C159.597 117.461 159.673 118.006 159.802 118.509C160.046 119.522 160.563 120.337 161.164 120.831C161.768 121.326 162.398 121.528 162.826 121.63C163.259 121.728 163.509 121.762 163.506 121.793Z" fill="#EB996E"/>
<path d="M158.805 100.458C158.805 100.458 152.723 100.317 150.742 100.175C148.762 100.034 148.322 100.412 148.322 100.412C148.322 100.412 145.295 98.9169 144.022 98.7755C142.983 98.6602 138.325 103.518 136.65 105.306C136.261 105.722 136.417 106.39 136.944 106.608C138.473 107.242 140.559 106.399 140.559 106.399L139.35 108.453C141.627 113.459 145.42 106.802 145.42 106.802L151.324 104.596L157.774 105.369L158.805 100.458Z" fill="#FFBE9D"/>
<path d="M174.678 114.597C174.672 114.603 174.605 114.551 174.478 114.443C174.333 114.316 174.153 114.156 173.931 113.96C173.432 113.505 172.746 112.878 171.887 112.094C170.114 110.446 167.631 108.137 164.667 105.381L164.675 105.389C162.853 103.928 160.834 102.31 158.695 100.594L158.799 100.633C156.941 100.576 154.999 100.515 153.006 100.453C152.178 100.436 151.363 100.381 150.563 100.384C149.761 100.388 148.967 100.421 148.193 100.496C147.423 100.573 146.671 100.712 146.005 101.019C145.335 101.313 144.814 101.824 144.323 102.358C142.333 104.487 140.566 106.498 139.47 108.519L139.482 108.42C139.677 109.099 140.069 109.739 140.629 110.035C141.198 110.331 141.853 110.198 142.37 109.957C143.426 109.45 144.089 108.606 144.592 107.948C145.085 107.267 145.409 106.694 145.624 106.304C145.838 105.913 145.939 105.7 145.952 105.706C145.959 105.708 145.942 105.765 145.901 105.873C145.858 105.98 145.792 106.138 145.696 106.34C145.502 106.744 145.198 107.333 144.718 108.037C144.223 108.718 143.577 109.595 142.463 110.156C141.923 110.42 141.189 110.592 140.515 110.256C139.858 109.91 139.439 109.232 139.215 108.486L139.201 108.438L139.228 108.387C140.32 106.317 142.095 104.268 144.075 102.129C144.563 101.592 145.129 101.028 145.86 100.703C146.578 100.37 147.369 100.224 148.157 100.144C148.947 100.065 149.747 100.03 150.561 100.026C151.377 100.021 152.196 100.077 153.021 100.094C155.012 100.159 156.952 100.222 158.809 100.282L158.868 100.284L158.914 100.32C161.045 102.047 163.055 103.675 164.87 105.145L164.876 105.15L164.88 105.153C167.808 107.948 170.261 110.288 172.012 111.959C172.846 112.77 173.512 113.418 173.997 113.888C174.206 114.099 174.375 114.269 174.512 114.406C174.627 114.527 174.684 114.591 174.678 114.597Z" fill="#EB996E"/>
<path d="M155.587 104.674C152.216 107.274 149.712 110.981 148.572 115.084C148.445 115.538 148.208 115.969 147.826 116.246C146.695 117.067 145.625 116.048 144.902 115.147V114.655C144.91 114.452 145.434 110.433 145.627 108.958C145.673 108.603 145.806 108.267 146.017 107.976C146.783 106.92 148.933 103.848 149.532 103.582L152.687 102.611" fill="#FFBE9D"/>
<path d="M152.687 102.61C152.692 102.629 152.409 102.737 151.876 102.919C151.291 103.112 150.518 103.367 149.563 103.682L149.574 103.678C149.315 103.843 149.05 104.164 148.79 104.475C148.527 104.795 148.258 105.144 147.98 105.517C147.423 106.263 146.832 107.099 146.193 108C146.032 108.214 145.915 108.441 145.845 108.698C145.777 108.944 145.763 109.242 145.721 109.53C145.65 110.112 145.576 110.709 145.5 111.32C145.423 111.932 145.345 112.558 145.265 113.196C145.225 113.514 145.184 113.837 145.143 114.162L145.081 114.651L145.08 115.146L145.041 115.033C145.18 115.206 145.336 115.386 145.5 115.555C145.892 115.955 146.355 116.312 146.856 116.36C147.348 116.408 147.839 116.107 148.11 115.691C148.251 115.48 148.347 115.244 148.416 114.992C148.496 114.731 148.576 114.472 148.654 114.216C148.824 113.708 149.011 113.218 149.206 112.744C150.004 110.858 151.014 109.298 151.976 108.092C152.939 106.883 153.86 106.029 154.515 105.472C154.843 105.193 155.109 104.991 155.295 104.86C155.479 104.728 155.579 104.663 155.586 104.673C155.608 104.7 155.232 104.992 154.608 105.577C153.986 106.162 153.102 107.035 152.177 108.248C151.252 109.459 150.281 111.01 149.512 112.872C149.324 113.339 149.145 113.822 148.982 114.322C148.906 114.575 148.83 114.83 148.752 115.086C148.679 115.357 148.57 115.636 148.404 115.885C148.081 116.383 147.484 116.774 146.823 116.715C146.168 116.646 145.663 116.227 145.244 115.806C145.069 115.625 144.906 115.436 144.762 115.257L144.722 115.21V115.146L144.724 114.644L144.786 114.151C144.828 113.824 144.87 113.5 144.911 113.179C144.994 112.537 145.076 111.907 145.155 111.291C145.236 110.676 145.315 110.075 145.391 109.491C145.437 109.2 145.449 108.915 145.533 108.61C145.614 108.317 145.765 108.039 145.938 107.815C146.586 106.924 147.192 106.092 147.765 105.353C148.051 104.983 148.331 104.637 148.605 104.318C148.89 104.003 149.124 103.701 149.489 103.484L149.492 103.482L149.5 103.479C150.468 103.203 151.25 102.979 151.843 102.81C152.387 102.662 152.681 102.592 152.687 102.61Z" fill="#EB996E"/>
<path d="M233.683 146.671C233.671 146.693 233.305 146.509 232.655 146.158C231.953 145.774 231.029 145.267 229.913 144.655C227.55 143.351 224.382 141.602 220.881 139.67C217.372 137.749 214.198 136.011 211.83 134.715C210.715 134.1 209.792 133.591 209.091 133.204C208.447 132.843 208.096 132.632 208.108 132.61C208.12 132.588 208.493 132.757 209.156 133.08C209.821 133.404 210.775 133.884 211.949 134.491C214.297 135.701 217.52 137.413 221.053 139.355C224.585 141.297 227.758 143.099 230.038 144.434C231.178 145.101 232.095 145.65 232.725 146.038C233.354 146.425 233.695 146.65 233.683 146.671Z" fill="#EB996E"/>
<path d="M141.037 117.789C142.834 118.005 143.526 115.684 141.639 114.552C139.589 113.322 129.786 111.592 129.786 111.592L131.325 110.853C131.325 110.853 138.456 113.003 140.362 111.096C142.269 109.191 130.209 106.274 129.065 105.893C127.921 105.511 114.374 110.219 112.849 111.363C111.324 112.507 104.87 123.422 104.87 123.422L82.3207 156.729C79.9105 160.289 78.7996 164.626 79.4675 168.873C79.631 169.915 79.8884 170.945 80.2431 171.95C80.575 172.892 80.951 173.694 81.345 174.232C82.4497 175.738 83.9677 176.828 85.6644 177.42L85.6106 177.507C85.6106 177.507 97.6062 183.254 110.01 171.578C122.414 159.9 125.833 150.054 125.833 150.054L113.539 143.882L117.572 134.916L118.087 133.778C118.087 133.778 124.906 128.36 126.189 125.622C127.474 122.882 128.843 122.54 128.843 122.54C130.298 122.882 135.433 125.437 136.519 125.695C138.1 126.071 139.004 124.49 137.915 123.422C137.251 122.77 129.969 119.825 129.969 119.825C129.969 119.825 139.171 122.364 140.226 122.454C142.015 122.608 141.915 120.082 140.509 119.22C139.464 118.579 129.698 116.463 130.212 116.12C130.726 115.779 139.239 117.573 141.037 117.789Z" fill="#FFBE9D"/>
<path d="M118.235 133.32C118.325 133.362 114.715 141.27 110.173 150.981C105.63 160.695 101.875 168.533 101.785 168.491C101.695 168.449 105.304 160.543 109.847 150.828C114.389 141.118 118.145 133.277 118.235 133.32Z" fill="#EB996E"/>
<path d="M289.619 243.283C290.375 240.661 291.996 238.127 294.502 237.046C297.109 235.923 300.128 236.562 302.796 237.531C305.465 238.501 308.085 239.798 310.918 239.972C313.751 240.147 316.949 238.804 317.797 236.095C318.595 233.548 317.059 230.832 315.136 228.981C311.096 225.093 305.027 223.444 299.575 224.753C294.123 226.062 289.464 230.287 287.629 235.585" fill="#743089"/>
<g opacity="0.5">
<path d="M289.619 243.283C290.375 240.661 291.996 238.127 294.502 237.046C297.109 235.923 300.128 236.562 302.796 237.531C305.465 238.501 308.085 239.798 310.918 239.972C313.751 240.147 316.949 238.804 317.797 236.095C318.595 233.548 317.059 230.832 315.136 228.981C311.096 225.093 305.027 223.444 299.575 224.753C294.123 226.062 289.464 230.287 287.629 235.585" fill="black"/>
</g>
<path d="M267.173 254.664C263.015 250.715 263.224 243.842 265.297 238.496C267.371 233.151 271.896 229.047 276.951 226.341C286.75 221.097 298.999 220.7 309.117 225.299C304.145 225.464 299.339 228.286 296.773 232.547C294.494 236.33 293.989 240.922 292.107 244.917C290.011 249.367 286.163 252.963 281.58 254.755C276.998 256.546 271.731 256.513 267.173 254.664Z" fill="#743089"/>
<path d="M265.174 230.94C260.573 225.508 259.959 216.787 260.638 209.7C261.315 202.613 262.958 195.48 261.84 188.448C261.178 184.283 259.562 180.306 259.016 176.123C258.47 171.94 259.244 167.211 262.485 164.511C266.209 161.408 272.075 162.14 275.949 165.053C279.824 167.967 282.069 172.544 283.71 177.105C287.314 187.128 288.637 198.242 285.676 208.473C282.716 218.704 275.768 227.852 265.575 230.94" fill="#743089"/>
<path d="M262.965 275.512C262.952 275.512 262.947 275.296 262.948 274.886C262.954 274.476 262.948 273.87 262.982 273.091C263.041 271.533 263.191 269.279 263.54 266.512C263.89 263.746 264.438 260.464 265.308 256.877C266.165 253.282 267.631 249.451 269.705 245.722C271.785 241.991 274.323 238.771 276.89 236.117C279.463 233.461 282.096 231.395 284.422 229.853C285.571 229.059 286.684 228.455 287.641 227.896C288.622 227.381 289.479 226.957 290.181 226.619C290.875 226.327 291.427 226.095 291.837 225.922C292.217 225.767 292.419 225.692 292.424 225.704C292.428 225.717 292.237 225.816 291.867 225.994C291.465 226.181 290.925 226.434 290.245 226.753C289.555 227.111 288.711 227.552 287.744 228.082C286.802 228.656 285.705 229.272 284.572 230.077C282.279 231.638 279.683 233.712 277.142 236.361C274.609 239.008 272.1 242.209 270.037 245.908C265.806 253.31 264.647 261.093 263.807 266.548C263.425 269.302 263.235 271.547 263.13 273.099C263.086 273.849 263.051 274.445 263.025 274.888C262.999 275.297 262.979 275.512 262.965 275.512Z" fill="#263238"/>
<path d="M223.271 209.509C214.756 214.647 214.782 219.323 216.204 223.737C217.626 228.15 222.852 231.216 227.185 229.564C229.634 228.629 231.408 226.501 232.924 224.362C234.439 222.223 235.862 219.933 237.986 218.397C240.11 216.86 243.189 216.272 245.322 217.796" fill="#743089"/>
<g opacity="0.5">
<path d="M223.271 209.509C214.756 214.647 214.782 219.323 216.204 223.737C217.626 228.15 222.852 231.216 227.185 229.564C229.634 228.629 231.408 226.501 232.924 224.362C234.439 222.223 235.862 219.933 237.986 218.397C240.11 216.86 243.189 216.272 245.322 217.796" fill="black"/>
</g>
<path d="M216.896 215.142C219.121 212.066 224.622 211.176 228.095 212.71C231.568 214.245 234.112 217.29 236.389 220.328C238.666 223.367 240.883 226.576 244.037 228.691C247.191 230.805 251.598 231.571 254.741 229.441C256.806 228.041 258.003 225.61 258.378 223.144C258.752 220.678 258.391 218.16 257.877 215.72C257.126 212.149 255.899 208.42 253.042 206.15C249.857 203.622 245.438 203.502 241.373 203.635C236.71 203.788 231.975 204.138 227.598 205.754C223.22 207.37 218.754 210.862 216.896 215.142Z" fill="#743089"/>
<path d="M255.888 268.692C255.881 268.692 255.874 268.629 255.865 268.505C255.858 268.359 255.848 268.178 255.836 267.956C255.818 267.443 255.794 266.737 255.762 265.843C255.709 263.976 255.633 261.329 255.54 258.071C255.436 254.79 255.303 250.884 255.066 246.552C254.823 242.221 254.503 237.459 253.845 232.502C253.511 230.027 253.12 227.607 252.435 225.367C251.744 223.124 250.825 221.035 249.825 219.123C248.815 217.214 247.708 215.477 246.533 213.956C245.352 212.439 244.134 211.124 242.938 210.009C240.522 207.801 238.21 206.452 236.565 205.664C236.149 205.475 235.787 205.287 235.461 205.154C235.14 205.03 234.863 204.923 234.629 204.831C234.423 204.748 234.255 204.68 234.119 204.625C234.005 204.577 233.947 204.549 233.95 204.542C233.952 204.536 234.013 204.551 234.132 204.588C234.271 204.633 234.443 204.689 234.655 204.758C234.893 204.84 235.175 204.936 235.503 205.048C235.835 205.17 236.204 205.348 236.627 205.528C238.302 206.279 240.657 207.605 243.119 209.808C244.337 210.92 245.579 212.239 246.782 213.761C247.979 215.288 249.107 217.035 250.135 218.957C251.153 220.884 252.085 222.983 252.791 225.254C253.492 227.534 253.886 229.963 254.222 232.449C254.882 237.426 255.193 242.196 255.417 246.532C255.634 250.87 255.74 254.779 255.809 258.062C255.876 261.345 255.903 264.002 255.912 265.839C255.912 266.733 255.913 267.439 255.914 267.953C255.91 268.176 255.907 268.357 255.905 268.503C255.9 268.628 255.895 268.692 255.888 268.692Z" fill="#263238"/>
<path d="M258.952 272.54C258.952 272.54 258.476 271.275 258.02 268.883C257.576 266.494 257.243 262.952 257.63 258.61C257.993 254.269 259.104 249.174 260.874 243.705C262.621 238.227 264.994 232.368 267.021 226.072C268.026 222.921 268.879 219.804 269.465 216.742C270.059 213.683 270.434 210.695 270.673 207.841C271.15 202.127 271.083 196.952 270.944 192.618C270.797 188.281 270.567 184.775 270.423 182.352C270.353 181.159 270.297 180.223 270.259 179.561C270.244 179.258 270.233 179.018 270.225 178.834C270.219 178.671 270.22 178.587 270.226 178.586C270.233 178.585 270.246 178.669 270.264 178.832C270.282 179.014 270.306 179.254 270.335 179.555C270.391 180.216 270.471 181.151 270.571 182.342C270.76 184.762 271.032 188.267 271.214 192.608C271.387 196.947 271.483 202.134 271.023 207.87C270.793 210.736 270.424 213.737 269.832 216.814C269.248 219.893 268.392 223.027 267.384 226.188C265.35 232.505 262.969 238.356 261.209 243.813C259.426 249.259 258.294 254.32 257.898 258.635C257.479 262.949 257.769 266.472 258.166 268.858C258.375 270.05 258.566 270.973 258.734 271.589C258.806 271.884 258.863 272.117 258.906 272.296C258.943 272.455 258.959 272.538 258.952 272.54Z" fill="#263238"/>
<path d="M280.062 276.387H240.082L239.169 268.692H280.062V276.387Z" fill="#455A64"/>
<path d="M244.371 275.512L249.37 298.597H271.095L275.772 275.512H244.371Z" fill="#455A64"/>
<path d="M280.062 276.387C280.062 276.493 271.271 276.553 260.431 276.522C249.587 276.492 240.799 276.382 240.799 276.277C240.799 276.172 249.588 276.111 260.432 276.142C271.272 276.173 280.062 276.282 280.062 276.387Z" fill="#455A64"/>
<path d="M273.2 287.783C273.149 287.86 272.02 286.697 269.679 285.764C268.517 285.303 267.048 284.943 265.397 284.905C263.743 284.851 261.949 285.246 260.133 285.871C258.311 286.487 256.609 287.204 254.951 287.599C253.286 287.958 251.736 287.932 250.473 287.734C249.206 287.536 248.224 287.16 247.595 286.822C247.285 286.644 247.047 286.501 246.901 286.381C246.751 286.268 246.677 286.204 246.684 286.194C246.706 286.163 247.026 286.392 247.661 286.69C248.298 286.98 249.268 287.307 250.511 287.467C251.749 287.627 253.265 287.623 254.873 287.257C256.473 286.857 258.175 286.131 260.011 285.51C261.842 284.878 263.701 284.478 265.405 284.554C267.105 284.613 268.606 285.011 269.779 285.515C270.963 286.007 271.823 286.602 272.385 287.035C272.666 287.254 272.873 287.438 273.006 287.571C273.142 287.701 273.209 287.773 273.2 287.783Z" fill="#263238"/>
<path d="M272.896 289.324C272.844 289.402 271.758 288.273 269.514 287.332C268.399 286.87 266.981 286.513 265.386 286.482C263.789 286.437 262.05 286.8 260.294 287.398C258.532 287.986 256.88 288.67 255.301 289.095C253.724 289.525 252.236 289.676 250.998 289.578C249.756 289.491 248.788 289.141 248.177 288.823C247.875 288.652 247.646 288.514 247.505 288.397C247.36 288.287 247.288 288.225 247.296 288.214C247.317 288.183 247.626 288.406 248.242 288.689C248.859 288.959 249.807 289.258 251.016 289.308C252.22 289.371 253.668 289.197 255.209 288.756C256.754 288.321 258.394 287.632 260.175 287.036C261.949 286.43 263.749 286.064 265.396 286.13C267.04 286.181 268.493 286.579 269.621 287.083C270.758 287.579 271.578 288.168 272.116 288.594C272.386 288.808 272.584 288.988 272.712 289.116C272.842 289.244 272.905 289.314 272.896 289.324Z" fill="white"/>
<path d="M273.596 286.252C273.547 286.324 272.374 285.146 269.98 284.121C268.792 283.616 267.293 283.168 265.592 283.066C263.889 282.947 262.033 283.381 260.16 284.023C258.276 284.655 256.528 285.421 254.795 285.775C253.063 286.089 251.471 285.992 250.171 285.783C248.869 285.557 247.854 285.185 247.2 284.843C246.877 284.663 246.63 284.519 246.479 284.395C246.323 284.279 246.247 284.214 246.254 284.203C246.276 284.171 246.606 284.408 247.265 284.709C247.926 285.004 248.932 285.329 250.213 285.517C251.492 285.689 253.056 285.754 254.729 285.431C256.388 285.075 258.143 284.3 260.039 283.662C261.926 283.014 263.849 282.572 265.614 282.716C267.368 282.84 268.892 283.328 270.089 283.875C271.295 284.414 272.176 285.031 272.756 285.48C273.046 285.707 273.26 285.896 273.396 286.033C273.536 286.168 273.605 286.242 273.596 286.252Z" fill="white"/>
<path d="M280.415 276.421C280.415 276.526 271.421 276.611 260.33 276.611C249.234 276.611 240.242 276.526 240.242 276.421C240.242 276.316 249.234 276.23 260.33 276.23C271.421 276.23 280.415 276.316 280.415 276.421Z" fill="#263238"/>
<path d="M112.148 143.442C113.097 131.355 123.17 122.027 135.294 122.002L136.498 121.999C149.49 122.731 156.125 134.173 155.034 147.139L152.793 199.12C152.755 199.992 152.236 200.771 151.445 201.143L122.29 214.825L123.191 187.545C123.191 187.545 110.699 185.629 110.52 173.144C110.433 167.115 111.264 154.684 112.148 143.442Z" fill="#B78876"/>
<path d="M123.088 187.527C123.088 187.527 131.061 187.99 139.437 182.705C139.437 182.705 135.608 191.698 123.148 190.599L123.088 187.527Z" fill="#EB996E"/>
<path d="M115.702 151.514C115.67 152.456 116.442 153.258 117.425 153.309C118.406 153.36 119.228 152.639 119.26 151.698C119.291 150.756 118.52 149.952 117.539 149.901C116.555 149.851 115.733 150.573 115.702 151.514Z" fill="#263238"/>
<path d="M114.726 148.906C114.947 149.138 116.295 148.135 118.214 148.137C120.13 148.111 121.541 149.095 121.748 148.859C121.85 148.755 121.625 148.336 121.011 147.89C120.406 147.447 119.376 147.017 118.181 147.025C116.986 147.033 115.981 147.475 115.405 147.927C114.815 148.381 114.617 148.802 114.726 148.906Z" fill="#263238"/>
<path d="M133.491 151.514C133.46 152.456 134.232 153.258 135.214 153.309C136.195 153.36 137.017 152.64 137.049 151.698C137.08 150.757 136.309 149.952 135.327 149.902C134.345 149.851 133.522 150.573 133.491 151.514Z" fill="#263238"/>
<path d="M133.704 148.906C133.926 149.138 135.276 148.136 137.193 148.137C139.109 148.111 140.52 149.094 140.727 148.859C140.829 148.755 140.605 148.336 139.989 147.891C139.385 147.447 138.355 147.018 137.159 147.024C135.964 147.034 134.96 147.476 134.383 147.927C133.796 148.381 133.596 148.802 133.704 148.906Z" fill="#263238"/>
<path d="M126.77 164.107C126.779 163.998 125.585 163.795 123.653 163.551C123.163 163.501 122.698 163.405 122.616 163.071C122.5 162.718 122.703 162.188 122.94 161.618C123.398 160.432 123.878 159.188 124.381 157.884C126.382 152.568 127.83 148.198 127.615 148.119C127.4 148.041 125.604 152.285 123.603 157.601C123.121 158.912 122.661 160.161 122.223 161.357C122.039 161.914 121.721 162.546 121.973 163.281C122.105 163.646 122.465 163.911 122.779 163.995C123.093 164.091 123.369 164.096 123.611 164.109C125.556 164.21 126.763 164.216 126.77 164.107Z" fill="#263238"/>
<path d="M133.193 142.346C133.384 142.867 135.299 142.616 137.55 142.883C139.807 143.104 141.624 143.76 141.921 143.291C142.054 143.067 141.736 142.577 141.001 142.074C140.273 141.571 139.111 141.094 137.76 140.946C136.408 140.801 135.172 141.018 134.352 141.353C133.526 141.688 133.111 142.098 133.193 142.346Z" fill="#263238"/>
<path d="M115.538 143.99C115.876 144.425 117.197 143.97 118.786 143.946C120.375 143.866 121.722 144.233 122.031 143.776C122.166 143.555 121.953 143.119 121.365 142.707C120.784 142.297 119.814 141.963 118.722 141.999C117.63 142.036 116.684 142.433 116.132 142.88C115.572 143.329 115.389 143.778 115.538 143.99Z" fill="#263238"/>
<path d="M152.96 156.386C153.173 156.294 161.534 153.831 161.278 162.368C161.023 170.904 152.506 168.887 152.498 168.642C152.491 168.396 152.96 156.386 152.96 156.386Z" fill="#B78876"/>
<path d="M154.657 165.485C154.696 165.459 154.803 165.593 155.051 165.716C155.293 165.835 155.712 165.925 156.162 165.772C157.074 165.468 157.876 164.059 157.963 162.521C158.008 161.745 157.867 161.001 157.61 160.38C157.368 159.748 156.978 159.299 156.526 159.204C156.077 159.086 155.747 159.349 155.636 159.586C155.514 159.821 155.563 159.993 155.518 160.006C155.493 160.027 155.339 159.858 155.418 159.507C155.458 159.339 155.565 159.141 155.77 158.983C155.98 158.822 156.284 158.747 156.599 158.79C157.256 158.856 157.83 159.479 158.113 160.16C158.431 160.845 158.607 161.683 158.557 162.555C158.451 164.274 157.522 165.857 156.277 166.176C155.672 166.315 155.177 166.119 154.924 165.91C154.666 165.691 154.627 165.499 154.657 165.485Z" fill="#AA6550"/>
<path d="M147.57 131.012L111.974 131.796C113.081 129.341 115.057 127.375 117.204 125.747C121.83 122.239 127.517 120.048 133.322 119.946C139.127 119.845 150.944 126.915 155.149 130.919C158.514 134.122 158.493 136.894 158.493 136.894C159.028 141.509 156.444 146.756 155.417 151.287C154.888 153.624 153.865 160.694 153.865 160.694H153.864C151.903 160.687 151.174 159.127 151.471 157.188L151.838 149.581C151.838 149.581 145.168 144.84 148.328 136.164C148.838 135.473 149.92 132.303 147.57 131.012Z" fill="#455A64"/>
<path d="M140.095 158.008C140.21 158.031 140.323 157.948 140.348 157.822C140.373 157.696 140.3 157.576 140.185 157.554C140.071 157.531 139.957 157.614 139.933 157.74C139.908 157.865 139.981 157.985 140.095 158.008Z" fill="#AA6550"/>
<path d="M136.428 157.184C136.543 157.207 136.659 157.109 136.687 156.965C136.715 156.821 136.645 156.686 136.531 156.663C136.416 156.641 136.3 156.739 136.272 156.883C136.244 157.027 136.314 157.162 136.428 157.184Z" fill="#AA6550"/>
<path d="M133.96 157.128C134.076 157.142 134.189 157 134.213 156.811C134.236 156.621 134.161 156.456 134.045 156.441C133.929 156.427 133.816 156.569 133.792 156.759C133.769 156.949 133.844 157.114 133.96 157.128Z" fill="#AA6550"/>
<path d="M138.298 160.312C138.415 160.312 138.51 160.252 138.509 160.177C138.509 160.102 138.414 160.041 138.297 160.042C138.181 160.042 138.086 160.103 138.086 160.178C138.086 160.252 138.181 160.312 138.298 160.312Z" fill="#AA6550"/>
<path d="M134.935 159.54C135.052 159.55 135.155 159.451 135.166 159.319C135.177 159.186 135.092 159.071 134.976 159.061C134.859 159.052 134.756 159.15 134.744 159.283C134.733 159.415 134.818 159.53 134.935 159.54Z" fill="#AA6550"/>
<path d="M117.434 157.487C117.549 157.51 117.663 157.423 117.688 157.294C117.714 157.164 117.641 157.041 117.527 157.018C117.412 156.996 117.298 157.082 117.273 157.211C117.247 157.341 117.32 157.464 117.434 157.487Z" fill="#AA6550"/>
<path d="M114.936 157.264C115.052 157.275 115.158 157.165 115.172 157.019C115.186 156.873 115.103 156.744 114.987 156.733C114.871 156.722 114.765 156.832 114.751 156.978C114.736 157.124 114.819 157.253 114.936 157.264Z" fill="#AA6550"/>
<path d="M119.641 157.545C119.756 157.567 119.865 157.504 119.885 157.403C119.905 157.303 119.827 157.202 119.713 157.18C119.599 157.158 119.49 157.221 119.47 157.322C119.449 157.422 119.526 157.522 119.641 157.545Z" fill="#AA6550"/>
<path d="M117.794 160.046C117.901 160.093 118.031 160.031 118.086 159.908C118.14 159.784 118.098 159.646 117.991 159.599C117.884 159.552 117.753 159.614 117.699 159.737C117.644 159.861 117.687 160 117.794 160.046Z" fill="#AA6550"/>
<path d="M115.659 159.624C115.771 159.593 115.842 159.491 115.816 159.397C115.789 159.302 115.677 159.25 115.564 159.281C115.452 159.313 115.382 159.415 115.408 159.509C115.434 159.603 115.547 159.655 115.659 159.624Z" fill="#AA6550"/>
<path d="M110.295 166.062C109.083 165.951 108.211 167.316 108.178 168.533C108.144 169.75 108.631 170.926 108.692 172.142C108.82 174.686 107.125 176.915 106.296 179.324C105.233 182.411 105.66 185.974 107.421 188.723C109.004 191.194 112.203 193.032 114.871 191.81C114.675 192.998 114.031 194.107 113.096 194.867C114.245 195.676 115.879 195.371 117.055 194.601C118.231 193.831 124.908 195.368 126.314 195.345C135.773 195.191 144.104 190.694 147.855 180.583C149.126 177.159 149.707 174.003 150.973 170.578C152.238 167.152 152.916 163.543 153.587 159.954C153.797 158.834 153.851 157.38 152.827 156.881C151.758 156.359 150.553 157.488 150.26 158.641C149.967 159.793 150.154 161.049 149.727 162.16C148.84 164.465 145.777 165.064 143.362 164.541C140.948 164.018 138.734 163.495 136.265 163.394C130.951 163.175 127.635 164.533 121.878 165.299C119.905 165.561 117.385 164.859 115.469 164.319C113.554 163.778 110.987 164.381 110.52 166.315" fill="#263238"/>
<path d="M155.385 131.406C156.293 128.288 155.388 124.815 153.386 122.258C151.385 119.701 148.115 118.189 144.87 118.322C143.207 118.391 141.555 118.861 139.901 118.681C139.901 118.681 136.253 117.833 132.831 118.15C129.409 118.467 124.397 120.668 121.89 121.151C119.382 121.634 117.675 118.998 117.675 118.998C117.505 120.32 117.788 121.318 118.779 121.812C116.165 122.066 114.158 118.998 114.158 118.998C113.49 121.669 115.338 123.148 115.338 123.148C113.904 124.029 112.149 125.244 110.512 125.639C110.512 125.639 107.089 126.125 107.571 124.201C107.571 124.201 101.618 132.269 110.846 140.124C113.438 142.33 117.709 141.085 120.684 139.43C123.369 137.935 125.775 135.386 128.846 135.476C132.029 135.569 134.809 138.57 137.932 137.947C139.568 137.621 140.83 136.361 142.028 135.199C143.227 134.037 144.606 132.855 146.272 132.757C147.938 132.659 149.402 133.389 148.805 134.947L155.385 131.406Z" fill="#263238"/>
<path d="M143.701 110.998C143.734 111.018 143.492 111.305 143.3 111.922C143.107 112.529 143.026 113.502 143.402 114.591C143.755 115.685 144.647 116.792 145.892 117.678C147.126 118.589 148.69 119.274 150.26 120.159C151.044 120.606 151.788 121.099 152.429 121.676C153.07 122.256 153.59 122.917 153.99 123.598C154.799 124.963 155.131 126.385 155.207 127.568C155.273 128.759 155.094 129.718 154.906 130.351C154.819 130.67 154.72 130.908 154.649 131.067C154.58 131.226 154.539 131.308 154.527 131.303C154.432 131.288 155.135 129.92 154.954 127.587C154.849 126.439 154.5 125.072 153.706 123.768C153.314 123.117 152.809 122.489 152.194 121.938C151.576 121.387 150.853 120.91 150.082 120.471C148.538 119.599 146.957 118.897 145.696 117.944C144.426 117.02 143.499 115.832 143.161 114.669C142.798 113.515 142.925 112.495 143.167 111.876C143.287 111.563 143.422 111.339 143.524 111.197C143.631 111.058 143.691 110.99 143.701 110.998Z" fill="#263238"/>
<path d="M154.198 131.661C154.165 131.654 154.237 131.297 154.288 130.649C154.345 130.003 154.36 129.052 154.141 127.913C153.915 126.783 153.479 125.448 152.641 124.169C151.827 122.877 150.602 121.676 149.046 120.84C147.494 119.996 145.865 119.433 144.518 118.616C143.167 117.823 142.103 116.776 141.616 115.662C141.119 114.557 141.141 113.528 141.315 112.888C141.396 112.562 141.514 112.329 141.598 112.177C141.692 112.028 141.745 111.954 141.756 111.961C141.793 111.979 141.572 112.284 141.451 112.919C141.325 113.542 141.345 114.519 141.846 115.554C142.335 116.591 143.361 117.573 144.686 118.33C146.005 119.112 147.626 119.661 149.219 120.525C150.823 121.385 152.1 122.651 152.921 123.991C153.77 125.322 154.192 126.705 154.391 127.869C154.583 129.042 154.528 130.013 154.427 130.664C154.394 130.993 154.317 131.24 154.281 131.409C154.238 131.577 154.211 131.664 154.198 131.661Z" fill="#263238"/>
<path d="M140.361 113.219C140.358 113.231 140.264 113.229 140.091 113.213C139.924 113.224 139.65 113.219 139.402 113.419C138.867 113.808 138.889 114.942 139.489 115.932C140.067 116.959 141.208 117.855 142.528 118.712C143.853 119.577 145.406 120.377 146.978 121.346C148.543 122.305 150.016 123.318 151.103 124.523C152.207 125.712 152.832 127.107 153.022 128.316C153.226 129.531 153.023 130.545 152.755 131.169C152.625 131.486 152.491 131.717 152.385 131.86C152.281 132.006 152.222 132.078 152.212 132.071C152.18 132.051 152.404 131.746 152.624 131.12C152.843 130.5 152.999 129.523 152.771 128.36C152.553 127.199 151.941 125.888 150.859 124.747C149.794 123.593 148.349 122.607 146.789 121.652C145.236 120.693 143.678 119.88 142.347 118.988C141.024 118.107 139.855 117.164 139.267 116.054C138.969 115.513 138.813 114.955 138.818 114.454C138.806 113.955 139.014 113.509 139.319 113.305C139.625 113.094 139.924 113.129 140.098 113.14C140.275 113.18 140.364 113.207 140.361 113.219Z" fill="#263238"/>
<path d="M103.749 129.943C103.813 129.938 103.847 130.822 104.214 132.18C104.573 133.531 105.342 135.359 106.727 136.99C108.113 138.623 109.79 139.679 111.065 140.252C112.345 140.835 113.213 141.012 113.197 141.074C113.192 141.097 112.972 141.076 112.58 140.993C112.189 140.912 111.63 140.753 110.964 140.486C109.638 139.961 107.883 138.909 106.453 137.223C105.024 135.539 104.27 133.637 103.968 132.242C103.813 131.542 103.747 130.965 103.73 130.566C103.712 130.166 103.727 129.945 103.749 129.943Z" fill="#263238"/>
<path d="M138.237 113.442C138.217 113.48 137.883 113.21 137.193 112.989C136.859 112.892 136.359 112.854 136.034 113.221C135.722 113.594 135.686 114.218 135.776 114.85C135.884 115.485 136.038 116.204 136.441 116.836C136.843 117.474 137.449 118.039 138.167 118.512C139.607 119.478 141.431 120.109 143.314 120.872C144.252 121.265 145.162 121.699 145.955 122.267C146.751 122.825 147.432 123.479 147.997 124.166C148.568 124.851 149.017 125.575 149.359 126.287C149.71 126.995 149.959 127.692 150.123 128.343C150.463 129.644 150.491 130.743 150.441 131.486C150.428 131.86 150.375 132.145 150.341 132.339C150.308 132.532 150.284 132.632 150.272 132.63C150.234 132.626 150.3 132.218 150.301 131.481C150.308 130.747 150.241 129.672 149.878 128.41C149.702 127.778 149.446 127.104 149.092 126.42C148.747 125.733 148.302 125.036 147.741 124.377C147.186 123.717 146.523 123.09 145.753 122.556C144.988 122.013 144.101 121.592 143.174 121.203C141.313 120.448 139.459 119.799 137.981 118.786C137.242 118.288 136.607 117.684 136.187 116.992C135.761 116.291 135.62 115.545 135.524 114.881C135.45 114.217 135.488 113.537 135.885 113.087C136.087 112.873 136.356 112.776 136.597 112.758C136.839 112.752 137.051 112.799 137.233 112.855C137.592 112.987 137.844 113.138 138.004 113.253C138.164 113.367 138.244 113.432 138.237 113.442Z" fill="#263238"/>
<path d="M158.358 145.165C158.303 145.248 157.827 145.027 157.296 144.673C156.764 144.318 156.378 143.964 156.433 143.882C156.488 143.799 156.963 144.02 157.495 144.374C158.027 144.728 158.413 145.083 158.358 145.165Z" fill="#263238"/>
<path d="M153.51 144.186C153.44 144.256 153.224 144.156 153.028 143.962C152.832 143.768 152.729 143.554 152.799 143.482C152.869 143.412 153.085 143.512 153.281 143.707C153.477 143.901 153.58 144.115 153.51 144.186Z" fill="#263238"/>
<path d="M154.441 142.046C154.406 142.139 154.124 142.115 153.814 141.994C153.503 141.873 153.28 141.7 153.316 141.607C153.352 141.515 153.633 141.538 153.944 141.659C154.254 141.781 154.477 141.954 154.441 142.046Z" fill="#263238"/>
<path d="M156.486 139.59C156.475 139.688 156.181 139.737 155.83 139.697C155.478 139.658 155.202 139.546 155.213 139.448C155.224 139.349 155.518 139.301 155.87 139.34C156.221 139.379 156.497 139.491 156.486 139.59Z" fill="#263238"/>
<path d="M152.67 138.028C152.714 138.117 152.561 138.284 152.327 138.4C152.092 138.518 151.866 138.54 151.822 138.451C151.778 138.362 151.932 138.196 152.166 138.079C152.4 137.962 152.626 137.939 152.67 138.028Z" fill="#263238"/>
<path d="M154.366 134.423C154.42 134.506 154.242 134.716 153.969 134.892C153.696 135.068 153.431 135.143 153.377 135.059C153.323 134.976 153.501 134.766 153.774 134.59C154.048 134.414 154.313 134.339 154.366 134.423Z" fill="#263238"/>
<path d="M156.982 136.049C157.041 136.129 156.914 136.321 156.699 136.477C156.484 136.633 156.263 136.694 156.204 136.614C156.146 136.534 156.273 136.342 156.487 136.186C156.702 136.03 156.923 135.968 156.982 136.049Z" fill="#263238"/>
<path d="M159.102 138.24C159.062 138.332 158.779 138.297 158.448 138.243C158.118 138.187 157.838 138.128 157.83 138.027C157.821 137.93 158.127 137.825 158.507 137.889C158.886 137.952 159.142 138.151 159.102 138.24Z" fill="#263238"/>
<path d="M158.678 142.056C158.623 142.139 158.388 142.079 158.154 141.923C157.92 141.767 157.775 141.573 157.83 141.491C157.885 141.409 158.12 141.469 158.354 141.625C158.588 141.78 158.733 141.974 158.678 142.056Z" fill="#263238"/>
<path d="M155.78 149.266C155.701 149.325 155.494 149.184 155.318 148.95C155.142 148.716 155.064 148.477 155.144 148.418C155.223 148.358 155.43 148.5 155.605 148.734C155.781 148.968 155.859 149.206 155.78 149.266Z" fill="#263238"/>
<path d="M132.334 166.24C132.061 166.186 131.8 168.023 130.046 169.107C128.294 170.196 126.365 169.717 126.314 169.972C126.273 170.084 126.701 170.389 127.525 170.527C128.331 170.668 129.552 170.573 130.625 169.91C131.696 169.244 132.258 168.235 132.426 167.489C132.602 166.731 132.461 166.247 132.334 166.24Z" fill="#FAFAFA"/>
<path d="M147.826 175.008C147.726 174.952 148.804 173.279 149.339 170.933C149.9 168.591 149.673 166.615 149.788 166.608C149.831 166.603 149.945 167.089 149.985 167.892C150.027 168.694 149.967 169.814 149.689 171.014C149.407 172.213 148.963 173.244 148.571 173.944C148.179 174.647 147.861 175.032 147.826 175.008Z" fill="#455A64"/>
<path d="M138.229 189.85C138.175 189.799 139.192 188.833 140.533 187.032C141.21 186.137 141.93 185.01 142.642 183.711C143.331 182.4 143.998 180.911 144.541 179.289C145.067 177.661 145.413 176.066 145.637 174.601C145.835 173.133 145.924 171.798 145.911 170.676C145.899 168.431 145.654 167.051 145.729 167.041C145.753 167.037 145.822 167.379 145.925 168.004C145.982 168.315 146.039 168.698 146.07 169.147C146.105 169.595 146.169 170.105 146.165 170.672C146.212 171.805 146.148 173.157 145.966 174.646C145.758 176.132 145.417 177.751 144.884 179.4C144.334 181.044 143.648 182.549 142.934 183.868C142.198 185.175 141.447 186.301 140.737 187.186C140.403 187.644 140.049 188.016 139.754 188.356C139.463 188.699 139.19 188.973 138.959 189.191C138.505 189.634 138.246 189.868 138.229 189.85Z" fill="#455A64"/>
<path d="M139.247 185.936C139.156 185.889 139.584 184.894 140.062 183.653C140.543 182.412 140.895 181.388 140.994 181.415C141.087 181.438 140.886 182.521 140.396 183.782C139.911 185.044 139.332 185.981 139.247 185.936Z" fill="#455A64"/>
<path d="M135.257 187.899C135.163 187.843 136.107 186.192 136.912 184.004C137.73 181.82 138.093 179.952 138.2 179.972C138.289 179.981 138.081 181.906 137.249 184.129C136.428 186.356 135.331 187.95 135.257 187.899Z" fill="#455A64"/>
<path d="M126.442 180.641C126.37 180.566 126.945 179.913 127.531 179.026C128.122 178.143 128.501 177.36 128.598 177.398C128.688 177.428 128.446 178.304 127.83 179.225C127.219 180.15 126.505 180.711 126.442 180.641Z" fill="#455A64"/>
<path d="M114.031 185.934C113.992 185.93 113.998 185.411 114.227 184.609C114.454 183.81 114.952 182.743 115.781 181.768C116.613 180.796 117.588 180.136 118.343 179.787C119.098 179.434 119.61 179.347 119.621 179.384C119.639 179.441 119.161 179.613 118.461 180.012C117.76 180.407 116.853 181.07 116.055 182.001C115.26 182.936 114.749 183.935 114.469 184.69C114.185 185.444 114.09 185.944 114.031 185.934Z" fill="#455A64"/>
<path d="M111.096 181.769C111.021 181.715 111.633 180.797 112.701 179.981C113.766 179.158 114.81 178.803 114.842 178.891C114.886 178.987 113.943 179.474 112.92 180.266C111.891 181.051 111.178 181.836 111.096 181.769Z" fill="#455A64"/>
<path d="M117.931 186.537C117.894 186.533 117.924 185.881 118.22 184.875C118.513 183.871 119.128 182.528 120.134 181.273C121.147 180.021 122.328 179.135 123.246 178.636C124.167 178.131 124.798 177.963 124.81 177.999C124.833 178.056 124.242 178.306 123.377 178.854C122.512 179.398 121.396 180.286 120.415 181.499C119.439 182.715 118.809 183.994 118.462 184.956C118.111 185.916 117.991 186.548 117.931 186.537Z" fill="#455A64"/>
<path d="M122.909 171.002C122.909 171.042 122.523 171.088 121.94 170.889C121.367 170.699 120.602 170.207 120.137 169.366C119.677 168.523 119.672 167.614 119.819 167.028C119.964 166.429 120.209 166.127 120.244 166.15C120.296 166.174 120.141 166.508 120.07 167.073C119.995 167.63 120.043 168.445 120.453 169.195C120.865 169.943 121.527 170.419 122.037 170.655C122.551 170.897 122.916 170.944 122.909 171.002Z" fill="#455A64"/>
<path d="M124.706 170.517C124.714 170.559 124.406 170.664 123.893 170.608C123.389 170.557 122.674 170.299 122.127 169.708C121.581 169.115 121.38 168.383 121.369 167.875C121.354 167.359 121.483 167.061 121.524 167.072C121.579 167.081 121.545 167.385 121.622 167.851C121.695 168.311 121.913 168.946 122.391 169.464C122.87 169.982 123.484 170.25 123.938 170.359C124.396 170.472 124.702 170.461 124.706 170.517Z" fill="#455A64"/>
<path d="M127.954 168.995C127.97 169.037 127.727 169.191 127.282 169.325C126.844 169.456 126.169 169.563 125.458 169.346C124.74 169.121 124.253 168.583 124.074 168.138C123.886 167.684 123.965 167.374 124.004 167.38C124.062 167.377 124.082 167.661 124.301 168.024C124.511 168.384 124.956 168.812 125.565 169.004C126.182 169.193 126.795 169.142 127.226 169.077C127.662 169.012 127.936 168.945 127.954 168.995Z" fill="#455A64"/>
<path d="M115.855 121.225C115.912 121.211 115.825 121.934 116.386 123.013C116.92 124.062 118.256 125.454 120.403 125.826C121.457 126.026 122.656 125.989 123.894 125.728C125.135 125.471 126.411 124.977 127.717 124.382C130.313 123.163 133.202 121.73 136.489 121.002C138.126 120.637 139.775 120.466 141.363 120.556C142.949 120.646 144.463 120.994 145.818 121.546C147.165 122.11 148.356 122.881 149.276 123.805C150.218 124.714 150.847 125.784 151.271 126.801C152.097 128.873 151.979 130.753 151.661 131.93C151.316 133.12 150.881 133.663 150.881 133.663C150.838 133.643 151.229 133.072 151.525 131.897C151.795 130.732 151.868 128.901 151.035 126.898C150.608 125.914 149.987 124.886 149.068 124.018C148.167 123.131 147.007 122.393 145.692 121.852C144.371 121.323 142.893 120.99 141.343 120.906C139.794 120.823 138.178 120.993 136.568 121.352C133.329 122.07 130.473 123.472 127.853 124.683C126.533 125.274 125.231 125.768 123.954 126.019C122.681 126.274 121.443 126.298 120.355 126.075C119.264 125.861 118.335 125.395 117.661 124.828C116.978 124.267 116.531 123.632 116.262 123.076C115.989 122.518 115.894 122.039 115.863 121.717C115.839 121.557 115.848 121.432 115.846 121.349C115.845 121.267 115.849 121.225 115.855 121.225Z" fill="#455A64"/>
<path d="M149.873 134.74C149.824 134.724 150.222 133.981 150.425 132.52C150.591 131.085 150.495 128.824 149.127 126.562C148.802 125.993 148.36 125.465 147.873 124.948C147.366 124.447 146.777 123.995 146.112 123.612C144.781 122.847 143.153 122.414 141.426 122.338C139.698 122.26 137.867 122.529 136.076 123.126C134.28 123.721 132.519 124.61 130.784 125.634C127.324 127.695 124.181 129.998 120.918 131.381C119.298 132.082 117.669 132.556 116.108 132.765C114.546 132.973 113.045 132.878 111.753 132.492C110.462 132.108 109.398 131.412 108.701 130.598C107.995 129.788 107.61 128.92 107.446 128.189C107.279 127.454 107.316 126.859 107.386 126.474C107.454 126.086 107.546 125.897 107.546 125.897C107.612 125.896 107.227 126.716 107.581 128.156C107.762 128.861 108.155 129.694 108.851 130.464C109.538 131.237 110.569 131.89 111.826 132.247C114.356 132.99 117.616 132.48 120.787 131.076C123.999 129.696 127.117 127.401 130.603 125.323C132.35 124.293 134.135 123.393 135.966 122.79C137.796 122.186 139.668 121.917 141.442 122.006C143.213 122.093 144.89 122.551 146.261 123.353C146.944 123.753 147.552 124.23 148.07 124.753C148.569 125.291 149.017 125.842 149.345 126.431C150.722 128.773 150.775 131.085 150.564 132.539C150.437 133.275 150.268 133.832 150.122 134.197C149.97 134.558 149.884 134.744 149.873 134.74Z" fill="#455A64"/>
<path d="M106.932 131.923C106.967 131.898 107.343 132.531 108.255 133.471C109.162 134.399 110.678 135.62 112.883 136.397C113.981 136.781 115.244 137.041 116.61 137.067C117.975 137.086 119.432 136.826 120.875 136.292C123.79 135.241 126.525 133.133 129.319 130.898C130.73 129.785 132.13 128.713 133.585 127.822C135.034 126.925 136.551 126.229 138.072 125.821C139.59 125.407 141.111 125.278 142.507 125.455C143.898 125.641 145.164 126.125 146.126 126.841C148.091 128.25 148.916 130.184 149.075 131.484C149.171 132.145 149.114 132.666 149.06 133.008C148.986 133.35 148.941 133.526 148.929 133.523C148.864 133.519 149.155 132.798 148.937 131.506C148.74 130.245 147.901 128.385 145.979 127.048C145.039 126.37 143.822 125.921 142.47 125.751C141.117 125.593 139.64 125.728 138.159 126.14C135.159 126.934 132.334 128.953 129.542 131.18C126.751 133.411 123.974 135.546 120.989 136.603C119.512 137.14 118.009 137.398 116.606 137.364C115.204 137.326 113.914 137.043 112.799 136.636C110.558 135.811 109.041 134.535 108.155 133.567C107.924 133.329 107.742 133.098 107.586 132.897C107.424 132.7 107.3 132.524 107.209 132.376C107.016 132.085 106.922 131.93 106.932 131.923Z" fill="#455A64"/>
<path d="M36.4211 298.543L122.615 205.004L122.819 198.8L153.681 187.898L155.62 195.344C155.62 195.344 169.052 210.582 176.944 228.986C184.837 247.39 187.006 298.352 187.006 298.352L36.4211 298.543Z" fill="#743089"/>
<path d="M153.492 193.064C153.496 193.076 153.393 193.125 153.192 193.207C152.951 193.301 152.659 193.414 152.308 193.55C151.539 193.842 150.418 194.245 149.029 194.73C146.252 195.701 142.391 196.974 138.117 198.34C133.868 199.703 130.025 200.935 127.174 201.849C125.816 202.288 124.697 202.65 123.861 202.921C123.501 203.032 123.202 203.124 122.955 203.2C122.747 203.26 122.636 203.287 122.632 203.275C122.628 203.263 122.731 203.214 122.932 203.132C123.173 203.038 123.465 202.925 123.815 202.789C124.584 202.497 125.705 202.094 127.093 201.609C129.87 200.638 133.731 199.365 138.007 197.998C142.254 196.636 146.097 195.404 148.948 194.489C150.306 194.05 151.425 193.688 152.262 193.418C152.621 193.306 152.92 193.215 153.167 193.138C153.376 193.079 153.488 193.053 153.492 193.064Z" fill="#FAFAFA"/>
<path d="M155.15 196.051C155.154 196.063 155.049 196.106 154.844 196.177C154.599 196.257 154.303 196.354 153.947 196.471C153.108 196.728 151.986 197.072 150.626 197.488C147.817 198.333 143.929 199.476 139.629 200.717C135.326 201.958 131.427 203.063 128.6 203.845C127.226 204.217 126.094 204.524 125.246 204.753C124.883 204.844 124.58 204.92 124.33 204.982C124.119 205.03 124.007 205.05 124.003 205.038C124 205.027 124.106 204.983 124.31 204.912C124.555 204.832 124.852 204.735 125.208 204.617C126.047 204.36 127.169 204.016 128.53 203.6C131.339 202.755 135.226 201.613 139.526 200.371C143.825 199.131 147.724 198.027 150.551 197.245C151.926 196.872 153.058 196.566 153.905 196.336C154.27 196.245 154.573 196.169 154.823 196.106C155.034 196.059 155.147 196.039 155.15 196.051Z" fill="#263238"/>
<path d="M165.748 226.475C165.724 226.482 165.579 226.12 165.337 225.46C165.101 224.799 164.738 223.849 164.267 222.686C163.329 220.359 161.878 217.204 159.935 213.905C157.986 210.609 155.925 207.813 154.342 205.867C153.552 204.892 152.896 204.115 152.431 203.588C151.971 203.058 151.724 202.755 151.742 202.738C151.76 202.721 152.041 202.991 152.534 203.494C153.031 203.993 153.719 204.746 154.537 205.704C156.177 207.616 158.283 210.406 160.244 213.722C162.198 217.04 163.622 220.233 164.503 222.593C164.945 223.773 165.273 224.739 165.47 225.415C165.671 226.091 165.771 226.467 165.748 226.475Z" fill="#263238"/>
<path d="M159.675 290.848C159.576 290.836 161.039 277.625 162.941 261.342C164.843 245.054 166.465 231.863 166.563 231.875C166.662 231.887 165.2 245.095 163.298 261.384C161.395 277.666 159.774 290.859 159.675 290.848Z" fill="#263238"/>
<path d="M156.39 209.748C156.403 209.846 146.617 211.263 134.534 212.912C122.446 214.562 112.64 215.819 112.627 215.72C112.614 215.622 122.398 214.206 134.485 212.556C146.569 210.907 156.377 209.649 156.39 209.748Z" fill="#FAFAFA"/>
<path d="M164.737 209.242C164.782 209.331 163.654 209.989 162.219 210.712C160.784 211.435 159.584 211.949 159.539 211.861C159.494 211.773 160.622 211.114 162.057 210.391C163.492 209.668 164.692 209.154 164.737 209.242Z" fill="#FAFAFA"/>
<path d="M162.77 224.391C162.771 224.397 162.719 224.415 162.618 224.442C162.495 224.473 162.346 224.511 162.165 224.556C161.734 224.655 161.15 224.791 160.414 224.96C159.654 225.136 158.721 225.341 157.633 225.551C156.546 225.765 155.311 226.026 153.935 226.258C151.19 226.763 147.905 227.269 144.245 227.74C140.583 228.19 136.544 228.591 132.294 228.861C128.041 229.116 123.983 229.215 120.292 229.22C116.601 229.203 113.279 229.105 110.493 228.942C109.099 228.882 107.841 228.774 106.735 228.696C105.629 228.622 104.679 228.533 103.902 228.452C103.151 228.374 102.555 228.312 102.116 228.266C101.93 228.243 101.778 228.223 101.652 228.208C101.548 228.193 101.495 228.183 101.496 228.177C101.496 228.17 101.55 228.169 101.656 228.172C101.783 228.178 101.936 228.185 102.123 228.194C102.563 228.223 103.161 228.263 103.915 228.312C104.692 228.372 105.643 228.44 106.749 228.495C107.855 228.555 109.113 228.644 110.506 228.689C113.29 228.818 116.608 228.891 120.292 228.889C123.977 228.866 128.027 228.758 132.272 228.502C136.514 228.232 140.546 227.842 144.205 227.411C147.862 226.959 151.145 226.479 153.892 226.007C155.269 225.792 156.506 225.548 157.596 225.353C158.687 225.162 159.623 224.977 160.386 224.822C161.128 224.68 161.717 224.567 162.15 224.484C162.334 224.452 162.485 224.426 162.611 224.404C162.714 224.391 162.768 224.385 162.77 224.391Z" fill="#FAFAFA"/>
<path d="M171.99 219.846C172.034 219.935 170.673 220.707 168.949 221.571C167.225 222.436 165.791 223.064 165.747 222.975C165.703 222.886 167.064 222.114 168.789 221.25C170.512 220.386 171.946 219.757 171.99 219.846Z" fill="#FAFAFA"/>
<path d="M159.788 242.902C159.788 242.908 159.728 242.922 159.61 242.942C159.471 242.964 159.298 242.992 159.085 243.025C158.595 243.094 157.918 243.189 157.06 243.31C156.18 243.435 155.103 243.575 153.847 243.701C152.592 243.831 151.165 244.005 149.581 244.118C147.998 244.252 146.264 244.392 144.398 244.48C142.533 244.604 140.538 244.652 138.438 244.718C134.238 244.798 129.617 244.758 124.775 244.513C119.932 244.246 115.332 243.797 111.163 243.275C109.082 242.987 107.102 242.729 105.261 242.409C103.415 242.124 101.705 241.802 100.145 241.502C98.5812 241.221 97.1805 240.898 95.9467 240.636C94.7116 240.379 93.6546 240.126 92.7935 239.909C91.9537 239.699 91.2906 239.532 90.8097 239.412C90.6013 239.356 90.4323 239.311 90.2963 239.274C90.1811 239.241 90.1232 239.221 90.1245 239.215C90.1259 239.209 90.1873 239.217 90.3053 239.238C90.4433 239.266 90.6151 239.3 90.8269 239.342C91.3113 239.446 91.9786 239.59 92.8245 239.773C93.6898 239.969 94.7503 240.202 95.9882 240.44C97.2246 240.683 98.6267 240.989 100.192 241.252C101.752 241.536 103.462 241.843 105.308 242.115C107.148 242.422 109.126 242.668 111.204 242.946C115.367 243.449 119.959 243.888 124.794 244.154C129.627 244.399 134.238 244.449 138.431 244.387C140.528 244.33 142.52 244.293 144.382 244.182C146.246 244.107 147.978 243.982 149.56 243.864C151.144 243.768 152.571 243.611 153.826 243.5C155.082 243.394 156.161 243.273 157.042 243.17C157.903 243.078 158.582 243.005 159.075 242.952C159.29 242.933 159.465 242.917 159.605 242.904C159.725 242.897 159.786 242.895 159.788 242.902Z" fill="#FAFAFA"/>
<path d="M179.307 237.114C179.332 237.21 176.615 237.993 173.239 238.863C169.862 239.733 167.106 240.361 167.081 240.265C167.056 240.169 169.773 239.386 173.15 238.516C176.526 237.645 179.282 237.018 179.307 237.114Z" fill="#FAFAFA"/>
<path d="M161.713 267.208C161.714 267.214 161.64 267.228 161.493 267.249C161.326 267.271 161.112 267.299 160.84 267.334C160.242 267.403 159.4 267.5 158.328 267.624C157.78 267.685 157.173 267.752 156.511 267.825C155.846 267.888 155.121 267.931 154.343 267.99C152.787 268.093 151.016 268.26 149.051 268.297C148.069 268.331 147.04 268.365 145.969 268.401C144.897 268.433 143.781 268.405 142.626 268.409C140.314 268.439 137.848 268.313 135.253 268.213C130.066 267.913 124.375 267.352 118.454 266.392C112.537 265.393 106.967 264.091 101.96 262.704C99.4698 261.963 97.0942 261.287 94.9158 260.514C93.8236 260.138 92.7582 259.805 91.7536 259.43C90.751 259.05 89.7884 258.686 88.8694 258.339C87.0215 257.67 85.3993 256.941 83.9586 256.343C83.241 256.036 82.569 255.762 81.959 255.488C81.356 255.205 80.8033 254.947 80.3037 254.713C79.328 254.25 78.5628 253.887 78.0191 253.629C77.7742 253.508 77.5796 253.413 77.4292 253.339C77.2974 253.272 77.2311 253.235 77.2332 253.229C77.236 253.224 77.3077 253.25 77.445 253.306C77.5989 253.371 77.799 253.456 78.0502 253.564C78.6001 253.807 79.375 254.15 80.3617 254.586C80.8647 254.811 81.4208 255.061 82.028 255.333C82.6469 255.588 83.3176 255.863 84.0366 256.159C85.4828 256.739 87.1092 257.451 88.9597 258.103C89.8802 258.443 90.8434 258.799 91.8474 259.17C92.8527 259.538 93.9181 259.864 95.0104 260.233C97.1887 260.992 99.5623 261.656 102.05 262.388C107.052 263.754 112.61 265.043 118.513 266.04C124.42 266.997 130.097 267.567 135.271 267.885C137.861 267.993 140.322 268.13 142.629 268.113C143.782 268.115 144.895 268.15 145.965 268.126C147.035 268.098 148.062 268.071 149.043 268.046C151.005 268.024 152.774 267.874 154.33 267.791C155.107 267.743 155.83 267.698 156.498 267.656C157.161 267.594 157.768 267.538 158.316 267.487C159.391 267.391 160.235 267.316 160.834 267.263C161.107 267.242 161.324 267.227 161.49 267.214C161.637 267.203 161.713 267.202 161.713 267.208Z" fill="#FAFAFA"/>
<path d="M184.303 262.445C184.314 262.468 184.073 262.598 183.626 262.816C183.183 263.037 182.523 263.322 181.696 263.642C180.043 264.285 177.685 265.006 175.01 265.452C172.332 265.892 169.868 265.969 168.096 265.894C167.21 265.857 166.494 265.8 166.002 265.734C165.51 265.672 165.24 265.626 165.243 265.601C165.248 265.541 166.339 265.632 168.101 265.64C169.863 265.65 172.299 265.534 174.951 265.098C177.601 264.657 179.945 263.981 181.609 263.404C183.275 262.827 184.279 262.39 184.303 262.445Z" fill="#FAFAFA"/>
<path d="M153.247 294.097C153.247 294.103 153.164 294.103 153.005 294.099C152.828 294.091 152.594 294.081 152.299 294.069C151.657 294.034 150.747 293.983 149.587 293.92C148.409 293.858 146.968 293.766 145.3 293.61C143.631 293.46 141.727 293.325 139.633 293.071C138.584 292.953 137.486 292.83 136.342 292.702C135.198 292.571 134.014 292.391 132.785 292.228C130.323 291.918 127.71 291.473 124.956 291.029C119.461 290.068 113.447 288.847 107.197 287.3C100.952 285.725 95.0692 283.976 89.7672 282.239C87.1273 281.336 84.6122 280.499 82.2931 279.616C81.1312 279.181 80.0016 278.783 78.9301 278.36C77.8606 277.935 76.8338 277.528 75.8527 277.138C73.8848 276.378 72.1412 275.602 70.5976 274.95C69.052 274.303 67.7376 273.706 66.6688 273.207C65.6151 272.718 64.7885 272.335 64.2055 272.064C63.9391 271.937 63.7294 271.836 63.5686 271.759C63.4258 271.688 63.354 271.649 63.3568 271.643C63.3595 271.638 63.4361 271.665 63.5838 271.725C63.748 271.794 63.9633 271.884 64.2351 271.999C64.8251 272.255 65.66 272.618 66.7253 273.08C67.8024 273.559 69.1231 274.136 70.6756 274.765C72.2246 275.399 73.9738 276.159 75.9458 276.902C76.9284 277.285 77.9565 277.685 79.028 278.102C80.101 278.516 81.2319 278.908 82.3946 279.336C84.715 280.206 87.2308 281.032 89.8693 281.925C95.1699 283.642 101.047 285.38 107.283 286.952C113.524 288.497 119.526 289.725 125.011 290.703C127.759 291.156 130.367 291.61 132.825 291.933C134.052 292.102 135.234 292.289 136.375 292.427C137.517 292.563 138.613 292.694 139.66 292.819C141.75 293.089 143.651 293.242 145.316 293.411C146.982 293.586 148.419 293.698 149.595 293.781C150.753 293.874 151.66 293.946 152.302 293.998C152.596 294.025 152.828 294.047 153.006 294.063C153.166 294.079 153.247 294.09 153.247 294.097Z" fill="#FAFAFA"/>
<path d="M186.092 284.746C186.103 284.768 185.831 284.928 185.326 285.199C184.826 285.476 184.077 285.833 183.134 286.233C181.252 287.037 178.544 287.929 175.453 288.442C172.36 288.947 169.509 288.971 167.468 288.813C166.447 288.736 165.624 288.637 165.06 288.536C164.495 288.441 164.186 288.376 164.19 288.352C164.193 288.327 164.51 288.345 165.077 288.397C165.644 288.456 166.466 288.515 167.482 288.559C169.512 288.65 172.332 288.587 175.394 288.087C178.454 287.579 181.144 286.735 183.038 285.997C183.987 285.63 184.747 285.31 185.264 285.074C185.787 284.842 186.081 284.724 186.092 284.746Z" fill="#FAFAFA"/>
<g opacity="0.2">
<path d="M168.607 290.452C166.374 288.129 163.315 286.462 161.942 283.547C160.408 280.291 161.424 276.477 162.272 272.979C163.774 266.777 164.665 260.428 164.928 254.053C165.039 251.38 164.565 248.009 162.01 247.216C159.752 246.517 157.532 248.466 156.34 250.507C153.389 255.557 153.404 261.744 151.882 267.391C148.981 278.164 139.897 287.033 129.058 289.677C123.248 291.094 117.178 290.821 111.216 291.3C105.254 291.778 98.8544 294.403 94.4695 298.472L169.579 298.984C172.07 296.939 170.84 292.774 168.607 290.452Z" fill="black"/>
</g>
<path d="M300.875 298.548C300.875 298.647 233.719 298.727 150.896 298.727C68.0447 298.727 0.902832 298.646 0.902832 298.548C0.902832 298.448 68.0447 298.368 150.896 298.368C233.719 298.367 300.875 298.448 300.875 298.548Z" fill="#263238"/>
</svg>
