<svg width="711" height="422" viewBox="0 0 711 422" fill="none" xmlns="http://www.w3.org/2000/svg">
<path d="M665.96 262.036C665.96 262.036 672.88 151.319 557.838 76.9318C442.796 2.54385 356.299 105.476 311.321 122.776C266.343 140.076 200.604 82.9868 141.786 110.666C82.968 138.345 87.293 211.003 82.103 236.952C76.913 262.901 5.12005 318.259 0.796046 351.993C-3.52795 385.727 14.636 420.326 14.636 420.326H634.629C634.629 420.326 671.15 375.347 665.96 262.036Z" fill="#CB8DE5"/>
<path opacity="0.7" d="M665.96 262.036C665.96 262.036 672.88 151.319 557.838 76.9318C442.796 2.54385 356.299 105.476 311.321 122.776C266.343 140.076 200.604 82.9868 141.786 110.666C82.968 138.345 87.293 211.003 82.103 236.952C76.913 262.901 5.12005 318.259 0.796046 351.993C-3.52795 385.727 14.636 420.326 14.636 420.326H634.629C634.629 420.326 671.15 375.347 665.96 262.036Z" fill="white"/>
<path d="M652.915 286.791H555.115V420.326H652.915V286.791Z" fill="#263238" stroke="#3B3A3A" stroke-miterlimit="10" stroke-linecap="round" stroke-linejoin="round"/>
<path d="M634.629 286.791H555.115V420.326H634.629V286.791Z" fill="white" stroke="#3B3A3A" stroke-miterlimit="10" stroke-linecap="round" stroke-linejoin="round"/>
<path d="M626.299 297.681H563.712V328.19H626.299V297.681Z" fill="white" stroke="#3B3A3A" stroke-miterlimit="10" stroke-linecap="round" stroke-linejoin="round"/>
<path d="M604.105 309.473H585.906V314.112H604.105V309.473Z" fill="#263238" stroke="#3B3A3A" stroke-miterlimit="10" stroke-linecap="round" stroke-linejoin="round"/>
<path d="M626.299 337.841H563.712V368.35H626.299V337.841Z" fill="white" stroke="#3B3A3A" stroke-miterlimit="10" stroke-linecap="round" stroke-linejoin="round"/>
<path d="M604.105 349.633H585.906V354.272H604.105V349.633Z" fill="#263238" stroke="#3B3A3A" stroke-miterlimit="10" stroke-linecap="round" stroke-linejoin="round"/>
<path d="M626.299 378.001H563.712V408.51H626.299V378.001Z" fill="white" stroke="#3B3A3A" stroke-miterlimit="10" stroke-linecap="round" stroke-linejoin="round"/>
<path d="M604.105 389.793H585.906V394.432H604.105V389.793Z" fill="#263238" stroke="#3B3A3A" stroke-miterlimit="10" stroke-linecap="round" stroke-linejoin="round"/>
<path d="M434.076 286.791H336.276V420.326H434.076V286.791Z" fill="#263238" stroke="#3B3A3A" stroke-miterlimit="10" stroke-linecap="round" stroke-linejoin="round"/>
<path d="M415.79 286.791H336.276V420.326H415.79V286.791Z" fill="white" stroke="#3B3A3A" stroke-miterlimit="10" stroke-linecap="round" stroke-linejoin="round"/>
<path d="M407.461 297.681H344.874V328.19H407.461V297.681Z" fill="white" stroke="#3B3A3A" stroke-miterlimit="10" stroke-linecap="round" stroke-linejoin="round"/>
<path d="M385.266 309.473H367.067V314.112H385.266V309.473Z" fill="#263238" stroke="#3B3A3A" stroke-miterlimit="10" stroke-linecap="round" stroke-linejoin="round"/>
<path d="M407.461 337.841H344.874V368.35H407.461V337.841Z" fill="white" stroke="#3B3A3A" stroke-miterlimit="10" stroke-linecap="round" stroke-linejoin="round"/>
<path d="M385.266 349.633H367.067V354.272H385.266V349.633Z" fill="#263238" stroke="#3B3A3A" stroke-miterlimit="10" stroke-linecap="round" stroke-linejoin="round"/>
<path d="M407.461 378.001H344.874V408.51H407.461V378.001Z" fill="white" stroke="#3B3A3A" stroke-miterlimit="10" stroke-linecap="round" stroke-linejoin="round"/>
<path d="M385.266 389.793H367.067V394.432H385.266V389.793Z" fill="#263238" stroke="#3B3A3A" stroke-miterlimit="10" stroke-linecap="round" stroke-linejoin="round"/>
<path d="M184.964 286.791H87.1641V420.326H184.964V286.791Z" fill="#263238" stroke="#3B3A3A" stroke-miterlimit="10" stroke-linecap="round" stroke-linejoin="round"/>
<path d="M166.678 286.791H87.1641V420.326H166.678V286.791Z" fill="white" stroke="#3B3A3A" stroke-miterlimit="10" stroke-linecap="round" stroke-linejoin="round"/>
<path d="M158.348 297.681H95.7612V328.19H158.348V297.681Z" fill="white" stroke="#3B3A3A" stroke-miterlimit="10" stroke-linecap="round" stroke-linejoin="round"/>
<path d="M136.154 309.473H117.955V314.112H136.154V309.473Z" fill="#263238" stroke="#3B3A3A" stroke-miterlimit="10" stroke-linecap="round" stroke-linejoin="round"/>
<path d="M158.348 337.841H95.7612V368.35H158.348V337.841Z" fill="white" stroke="#3B3A3A" stroke-miterlimit="10" stroke-linecap="round" stroke-linejoin="round"/>
<path d="M136.154 349.633H117.955V354.272H136.154V349.633Z" fill="#263238" stroke="#3B3A3A" stroke-miterlimit="10" stroke-linecap="round" stroke-linejoin="round"/>
<path d="M158.348 378.001H95.7612V408.51H158.348V378.001Z" fill="white" stroke="#3B3A3A" stroke-miterlimit="10" stroke-linecap="round" stroke-linejoin="round"/>
<path d="M136.154 389.793H117.955V394.432H136.154V389.793Z" fill="#263238" stroke="#3B3A3A" stroke-miterlimit="10" stroke-linecap="round" stroke-linejoin="round"/>
<path d="M543.638 267.325V263.784V260.984V256.167H503.024C500.921 256.167 499.215 257.872 499.215 259.976C499.215 262.079 500.92 263.785 503.024 263.785H525.844C533.759 267.992 539.953 274.842 543.33 283.155L543.638 283.913H549.209V267.327H543.638V267.325Z" fill="white" stroke="#3B3A3A" stroke-miterlimit="10" stroke-linecap="round" stroke-linejoin="round"/>
<path d="M440.646 267.325V263.784V260.984V256.167H400.032C397.929 256.167 396.223 257.872 396.223 259.976C396.223 262.079 397.928 263.785 400.032 263.785H422.852C430.767 267.992 436.961 274.842 440.338 283.155L440.646 283.913H446.217V267.327H440.646V267.325Z" fill="white" stroke="#3B3A3A" stroke-miterlimit="10" stroke-linecap="round" stroke-linejoin="round"/>
<path d="M405.604 256.167C403.501 256.167 401.795 257.872 401.795 259.976C401.795 262.079 403.5 263.785 405.604 263.785H428.424C436.339 267.992 442.533 274.842 445.91 283.155L446.218 283.913V263.786V260.986V256.169H405.604V256.167Z" fill="#263238" stroke="#3B3A3A" stroke-miterlimit="10" stroke-linecap="round" stroke-linejoin="round"/>
<path d="M549.209 263.784H399.149C397.046 263.784 395.34 262.079 395.34 259.975C395.34 257.872 397.045 256.166 399.149 256.166H549.208L549.209 263.784Z" fill="white" stroke="#3B3A3A" stroke-miterlimit="10" stroke-linecap="round" stroke-linejoin="round"/>
<path d="M508.595 256.167C506.492 256.167 504.786 257.872 504.786 259.976C504.786 262.079 506.491 263.785 508.595 263.785H531.415C539.33 267.992 545.524 274.842 548.901 283.155L549.209 283.913V263.786V260.986V256.169H508.595V256.167Z" fill="#263238" stroke="#3B3A3A" stroke-miterlimit="10" stroke-linecap="round" stroke-linejoin="round"/>
<path d="M477.071 246.299C514.953 246.299 545.663 215.59 545.663 177.707C545.663 139.825 514.953 109.115 477.071 109.115C439.189 109.115 408.479 139.825 408.479 177.707C408.479 215.59 439.189 246.299 477.071 246.299Z" fill="#263238" stroke="#3B3A3A" stroke-miterlimit="10" stroke-linecap="round" stroke-linejoin="round"/>
<path d="M474.423 246.299C512.305 246.299 543.015 215.59 543.015 177.707C543.015 139.825 512.305 109.115 474.423 109.115C436.541 109.115 405.831 139.825 405.831 177.707C405.831 215.59 436.541 246.299 474.423 246.299Z" fill="white" stroke="#3B3A3A" stroke-miterlimit="10" stroke-linecap="round" stroke-linejoin="round"/>
<path d="M526.652 218.877H516.057V255.667H526.652V218.877Z" fill="white" stroke="#3B3A3A" stroke-miterlimit="10" stroke-linecap="round" stroke-linejoin="round"/>
<path d="M526.652 218.877H516.057V229.255H526.652V218.877Z" fill="white" stroke="#3B3A3A" stroke-miterlimit="10" stroke-linecap="round" stroke-linejoin="round"/>
<path d="M508.107 229.728H500.636V255.668H508.107V229.728Z" fill="white" stroke="#3B3A3A" stroke-miterlimit="10" stroke-linecap="round" stroke-linejoin="round"/>
<path d="M508.107 229.728H500.636V237.046H508.107V229.728Z" fill="white" stroke="#3B3A3A" stroke-miterlimit="10" stroke-linecap="round" stroke-linejoin="round"/>
<path d="M451.9 209.411L447.869 213.441" stroke="#3B3A3A" stroke-miterlimit="10" stroke-linecap="round" stroke-linejoin="round"/>
<path d="M516.203 145.107L454.728 206.582" stroke="#3B3A3A" stroke-miterlimit="10" stroke-linecap="round" stroke-linejoin="round"/>
<path d="M499.219 140.775L485.484 154.511" stroke="#3B3A3A" stroke-miterlimit="10" stroke-linecap="round" stroke-linejoin="round"/>
<path d="M504.292 135.703L501.871 138.124" stroke="#3B3A3A" stroke-miterlimit="10" stroke-linecap="round" stroke-linejoin="round"/>
<path d="M341.768 267.325V263.784V260.984V256.167H301.154C299.051 256.167 297.345 257.872 297.345 259.976C297.345 262.079 299.05 263.785 301.154 263.785H323.974C331.889 267.992 338.083 274.842 341.46 283.155L341.768 283.913H347.339V267.327H341.768V267.325Z" fill="white" stroke="#3B3A3A" stroke-miterlimit="10" stroke-linecap="round" stroke-linejoin="round"/>
<path d="M238.777 267.325V263.784V260.984V256.167H198.163C196.06 256.167 194.355 257.872 194.355 259.976C194.355 262.079 196.06 263.785 198.163 263.785H220.983C228.898 267.992 235.092 274.842 238.469 283.155L238.777 283.913H244.348V267.327H238.777V267.325Z" fill="white" stroke="#3B3A3A" stroke-miterlimit="10" stroke-linecap="round" stroke-linejoin="round"/>
<path d="M203.735 256.167C201.632 256.167 199.926 257.872 199.926 259.976C199.926 262.079 201.631 263.785 203.735 263.785H226.555C234.47 267.992 240.664 274.842 244.041 283.155L244.349 283.913V263.786V260.986V256.169H203.735V256.167Z" fill="#263238" stroke="#3B3A3A" stroke-miterlimit="10" stroke-linecap="round" stroke-linejoin="round"/>
<path d="M347.34 263.784H197.28C195.176 263.784 193.471 262.079 193.471 259.975C193.471 257.872 195.176 256.166 197.28 256.166H347.34V263.784Z" fill="white" stroke="#3B3A3A" stroke-miterlimit="10" stroke-linecap="round" stroke-linejoin="round"/>
<path d="M306.726 256.167C304.623 256.167 302.917 257.872 302.917 259.976C302.917 262.079 304.622 263.785 306.726 263.785H329.546C337.461 267.992 343.655 274.842 347.032 283.155L347.34 283.913V263.786V260.986V256.169H306.726V256.167Z" fill="#263238" stroke="#3B3A3A" stroke-miterlimit="10" stroke-linecap="round" stroke-linejoin="round"/>
<path d="M275.202 246.299C313.085 246.299 343.794 215.59 343.794 177.707C343.794 139.825 313.085 109.115 275.202 109.115C237.32 109.115 206.61 139.825 206.61 177.707C206.61 215.59 237.32 246.299 275.202 246.299Z" fill="#263238" stroke="#3B3A3A" stroke-miterlimit="10" stroke-linecap="round" stroke-linejoin="round"/>
<path d="M272.554 246.299C310.437 246.299 341.146 215.59 341.146 177.707C341.146 139.825 310.437 109.115 272.554 109.115C234.672 109.115 203.962 139.825 203.962 177.707C203.962 215.59 234.672 246.299 272.554 246.299Z" fill="white" stroke="#3B3A3A" stroke-miterlimit="10" stroke-linecap="round" stroke-linejoin="round"/>
<path d="M295.526 131.941L270.136 157.332" stroke="#3B3A3A" stroke-miterlimit="10" stroke-linecap="round" stroke-linejoin="round"/>
<path d="M304.303 123.165L299.915 127.553" stroke="#3B3A3A" stroke-miterlimit="10" stroke-linecap="round" stroke-linejoin="round"/>
<path d="M263.553 148.241L254.463 157.332" stroke="#3B3A3A" stroke-miterlimit="10" stroke-linecap="round" stroke-linejoin="round"/>
<path d="M270.449 141.346L265.907 145.888" stroke="#3B3A3A" stroke-miterlimit="10" stroke-linecap="round" stroke-linejoin="round"/>
<path d="M324.783 218.877H314.188V255.667H324.783V218.877Z" fill="white" stroke="#3B3A3A" stroke-miterlimit="10" stroke-linecap="round" stroke-linejoin="round"/>
<path d="M324.783 218.877H314.188V229.255H324.783V218.877Z" fill="white" stroke="#3B3A3A" stroke-miterlimit="10" stroke-linecap="round" stroke-linejoin="round"/>
<path d="M306.238 229.728H298.767V255.668H306.238V229.728Z" fill="white" stroke="#3B3A3A" stroke-miterlimit="10" stroke-linecap="round" stroke-linejoin="round"/>
<path d="M306.238 229.728H298.767V237.046H306.238V229.728Z" fill="white" stroke="#3B3A3A" stroke-miterlimit="10" stroke-linecap="round" stroke-linejoin="round"/>
<path d="M613.279 85.1016H587.33V145.65H613.279V85.1016Z" fill="white" stroke="#3B3A3A" stroke-miterlimit="10" stroke-linecap="round" stroke-linejoin="round"/>
<path d="M600 85L600 1" stroke="#3B3A3A" stroke-miterlimit="10" stroke-linecap="round" stroke-linejoin="round"/>
<path d="M387.871 85.1016H361.922V145.65H387.871V85.1016Z" fill="white" stroke="#3B3A3A" stroke-miterlimit="10" stroke-linecap="round" stroke-linejoin="round"/>
<path d="M375 85L375 1" stroke="#3B3A3A" stroke-miterlimit="10" stroke-linecap="round" stroke-linejoin="round"/>
<path d="M158.743 85.1025H132.794V145.651H158.743V85.1025Z" fill="white" stroke="#3B3A3A" stroke-miterlimit="10" stroke-linecap="round" stroke-linejoin="round"/>
<path d="M146 85L146 1" stroke="#3B3A3A" stroke-miterlimit="10" stroke-linecap="round" stroke-linejoin="round"/>
<path d="M161.639 339.82L196.09 389.318" stroke="#3B3A3A" stroke-width="2" stroke-miterlimit="10" stroke-linecap="round" stroke-linejoin="round"/>
<path d="M195.543 389.515H210.448" stroke="#3B3A3A" stroke-width="2" stroke-miterlimit="10" stroke-linecap="round" stroke-linejoin="round"/>
<path d="M169.757 340.414L209.949 389.12" stroke="#3B3A3A" stroke-width="2" stroke-miterlimit="10" stroke-linecap="round" stroke-linejoin="round"/>
<path d="M121.051 355.064L85.6099 371.3" stroke="#3B3A3A" stroke-width="2" stroke-miterlimit="10" stroke-linecap="round" stroke-linejoin="round"/>
<path d="M131.6 338.544H125.153V410.305H131.6V338.544Z" fill="#3D3D3D" stroke="#3B3A3A" stroke-miterlimit="10" stroke-linecap="round" stroke-linejoin="round"/>
<path d="M143.633 408.919C143.318 408.755 143.016 408.592 142.728 408.428C138.954 406.278 136.692 402.202 136.692 397.858V351.303H120.061V398.066C120.061 402.569 117.626 406.762 113.639 408.855C113.598 408.876 113.558 408.898 113.517 408.919C108.191 411.681 94.0031 415.275 87.8871 416.753C86.2041 417.16 85.0171 418.665 85.0171 420.396V420.402H128.272H128.878H172.133V420.396C172.133 418.664 170.946 417.159 169.263 416.753C163.147 415.276 148.959 411.681 143.633 408.919Z" fill="white" stroke="#3B3A3A" stroke-miterlimit="10" stroke-linecap="round" stroke-linejoin="round"/>
<path d="M112.357 412.034C110.884 412.675 109.319 413.173 107.696 413.517" stroke="#3B3A3A" stroke-miterlimit="10" stroke-linecap="round" stroke-linejoin="round"/>
<path d="M123.758 354.854V395.889C123.758 402.236 120.345 407.328 115.293 410.492" stroke="#3B3A3A" stroke-miterlimit="10" stroke-linecap="round" stroke-linejoin="round"/>
<path d="M133.128 355.064L107.587 371.3" stroke="#3B3A3A" stroke-width="2" stroke-miterlimit="10" stroke-linecap="round" stroke-linejoin="round"/>
<path d="M86.6001 370.509H107.587" stroke="#3B3A3A" stroke-width="4" stroke-miterlimit="10" stroke-linecap="round" stroke-linejoin="round"/>
<path d="M116.893 296.657H170.761C174.061 296.657 176.785 299.349 176.691 302.647C176.69 302.696 176.688 302.745 176.686 302.794C176.488 307.744 176.488 336.849 176.092 338.433C175.696 340.017 174.904 340.611 174.904 340.611H76.3041C76.3041 340.611 74.7201 338.631 73.5321 334.473C72.3441 330.315 62.4441 305.368 65.2161 298.438C66.3091 295.705 70.9581 296.458 70.9581 296.458L116.893 296.657Z" fill="#878787" stroke="#3B3A3A" stroke-miterlimit="10" stroke-linecap="round" stroke-linejoin="round"/>
<path d="M65.217 298.439C62.445 305.369 72.345 330.316 73.533 334.474C74.721 338.632 76.305 340.612 76.305 340.612H119.64C119.714 340.37 119.789 340.106 119.864 339.82C121.052 335.266 121.25 308.339 120.656 302.597C120.062 296.855 116.894 296.657 116.894 296.657L70.96 296.459C70.96 296.459 66.31 295.706 65.217 298.439Z" fill="#3D3D3D" stroke="#3B3A3A" stroke-miterlimit="10" stroke-linecap="round" stroke-linejoin="round"/>
<path d="M69.694 259.237C68.536 259.237 67.382 259.447 66.316 259.9C64.372 260.727 62.851 264.844 63.237 267.29C63.831 271.052 77.888 324.971 79.274 325.367C80.66 325.763 111.745 325.367 111.745 325.367C111.745 325.367 110.161 304.776 111.547 300.618C112.008 299.235 112.785 297.582 115.119 296.732C115.994 296.413 123.806 296.789 124.732 296.658L119.055 266.854C118.213 262.435 114.349 259.237 109.85 259.237H69.694Z" fill="#737373" stroke="#3B3A3A" stroke-miterlimit="10" stroke-linecap="round" stroke-linejoin="round"/>
<path d="M104.121 259.953C108.23 261.195 111.422 264.447 112.587 268.578L116.877 296.605C119.489 296.571 124.039 296.757 124.731 296.659L119.054 266.855C118.212 262.436 114.348 259.238 109.849 259.238H100.793L99.583 259.224L104.121 259.953Z" fill="#878787" stroke="#3B3A3A" stroke-miterlimit="10" stroke-linecap="round" stroke-linejoin="round"/>
<path d="M343.487 326.556L354.971 320.22C354.971 320.22 355.565 331.704 357.941 341.405C360.317 351.107 365.465 373.678 366.851 378.034C368.237 382.39 367.643 388.528 368.633 389.32C369.623 390.112 373.187 389.716 375.365 388.726C377.543 387.736 382.097 385.756 384.077 384.964C386.057 384.172 390.809 381.994 393.185 378.232C395.561 374.47 392.591 377.044 389.423 377.638C386.255 378.232 377.148 375.856 375.366 374.668C373.584 373.48 373.584 343.187 374.178 327.546C374.772 311.905 370.812 299.827 368.04 297.649C365.268 295.471 355.764 298.441 355.764 298.441L346.538 299.263L343.487 326.556Z" fill="white" stroke="#3B3A3A" stroke-miterlimit="10" stroke-linecap="round" stroke-linejoin="round"/>
<path d="M354.971 320.221L363.485 314.875" stroke="#3B3A3A" stroke-miterlimit="10" stroke-linecap="round" stroke-linejoin="round"/>
<path d="M389.422 377.638C386.77 378.135 379.967 376.552 376.773 375.326C376.817 375.438 376.862 375.547 376.894 375.692C377.257 377.324 377.8 379.136 377.8 379.136C377.8 379.136 373.993 381.855 370.005 382.037C369.239 382.072 368.441 382.12 367.65 382.175C368.022 385.548 367.935 388.761 368.633 389.319C369.623 390.111 373.187 389.715 375.365 388.725C377.543 387.735 382.097 385.755 384.077 384.963C386.057 384.171 390.809 381.993 393.185 378.231C395.56 374.471 392.59 377.044 389.422 377.638Z" fill="#263238" stroke="#3B3A3A" stroke-miterlimit="10" stroke-linecap="round" stroke-linejoin="round"/>
<path d="M334.182 339.821L368.633 389.319" stroke="#3B3A3A" stroke-width="2" stroke-miterlimit="10" stroke-linecap="round" stroke-linejoin="round"/>
<path d="M368.085 389.516H382.99" stroke="#3B3A3A" stroke-width="2" stroke-miterlimit="10" stroke-linecap="round" stroke-linejoin="round"/>
<path d="M342.3 340.415L382.492 389.121" stroke="#3B3A3A" stroke-width="2" stroke-miterlimit="10" stroke-linecap="round" stroke-linejoin="round"/>
<path d="M345.269 280.423C345.269 280.423 365.165 273.173 367.246 275.869C380.214 292.666 394.208 334.674 397.178 339.822C400.148 344.97 404.108 346.752 404.108 346.752C404.108 346.752 416.186 344.574 419.947 343.188C423.709 341.802 422.917 343.584 421.927 345.762C420.937 347.94 419.749 351.108 415.789 353.682C411.829 356.256 406.483 358.632 402.919 359.82C399.355 361.008 398.959 361.602 397.771 359.82C396.583 358.038 392.623 348.732 389.059 342.991C385.495 337.249 371.402 319.231 366.254 312.301C361.106 305.371 357.344 298.046 357.344 298.046L343.763 300.253C343.763 300.253 338.931 305.173 337.941 299.629C336.953 294.085 345.269 280.423 345.269 280.423Z" fill="white" stroke="#3B3A3A" stroke-miterlimit="10" stroke-linecap="round" stroke-linejoin="round"/>
<path d="M357.346 298.044C357.346 298.044 354.772 290.52 354.772 284.778" stroke="#3B3A3A" stroke-miterlimit="10" stroke-linecap="round" stroke-linejoin="round"/>
<path d="M419.948 343.189C416.186 344.575 404.109 346.753 404.109 346.753C404.109 346.753 402.819 347.594 403 348.5C403.181 349.406 403.181 349.406 403.181 349.406C403.181 349.406 404.269 350.856 398.467 352.125C396.769 352.496 395.421 352.773 394.352 352.98C395.915 356.207 397.185 358.936 397.773 359.819C398.961 361.601 399.357 361.007 402.921 359.819C406.485 358.631 411.831 356.255 415.791 353.681C419.751 351.107 422.858 345.963 423.848 343.785C424.837 341.609 423.71 341.803 419.948 343.189Z" fill="#263238" stroke="#3B3A3A" stroke-miterlimit="10" stroke-linecap="round" stroke-linejoin="round"/>
<path d="M421.675 344.308C420.625 344.722 419.099 345.843 417.181 347.377C415.502 348.72 414.945 349.242 413.513 350.674C411.156 353.031 409.706 355.025 406.08 356.656C402.835 358.116 399.832 358.887 397.721 359.735C397.737 359.76 397.757 359.796 397.772 359.818C398.96 361.6 399.356 361.006 402.92 359.818C406.484 358.63 411.83 356.254 415.79 353.68C419.75 351.106 422.857 345.962 423.847 343.784C424.137 343.145 422.429 344.011 421.675 344.308Z" fill="white" stroke="#3B3A3A" stroke-miterlimit="10" stroke-linecap="round" stroke-linejoin="round"/>
<path d="M293.592 355.066L258.152 371.302" stroke="#3B3A3A" stroke-width="2" stroke-miterlimit="10" stroke-linecap="round" stroke-linejoin="round"/>
<path d="M304.142 338.545H297.696V410.306H304.142V338.545Z" fill="#3D3D3D" stroke="#3B3A3A" stroke-miterlimit="10" stroke-linecap="round" stroke-linejoin="round"/>
<path d="M316.176 408.92C315.861 408.756 315.559 408.593 315.271 408.429C311.496 406.279 309.235 402.203 309.235 397.859V351.304H292.604V398.067C292.604 402.57 290.169 406.763 286.182 408.856C286.142 408.877 286.101 408.899 286.06 408.92C280.734 411.682 266.546 415.276 260.43 416.754C258.747 417.161 257.56 418.666 257.56 420.397V420.403H300.815H301.421H344.676V420.397C344.676 418.665 343.489 417.16 341.806 416.754C335.69 415.277 321.502 411.682 316.176 408.92Z" fill="white" stroke="#3B3A3A" stroke-miterlimit="10" stroke-linecap="round" stroke-linejoin="round"/>
<path d="M284.9 412.035C283.427 412.676 281.862 413.174 280.239 413.518" stroke="#3B3A3A" stroke-miterlimit="10" stroke-linecap="round" stroke-linejoin="round"/>
<path d="M296.3 354.854V395.89C296.3 402.237 292.887 407.329 287.835 410.493" stroke="#3B3A3A" stroke-miterlimit="10" stroke-linecap="round" stroke-linejoin="round"/>
<path d="M305.67 355.066L280.129 371.302" stroke="#3B3A3A" stroke-width="2" stroke-miterlimit="10" stroke-linecap="round" stroke-linejoin="round"/>
<path d="M259.143 370.51H280.13" stroke="#3B3A3A" stroke-width="4" stroke-miterlimit="10" stroke-linecap="round" stroke-linejoin="round"/>
<path d="M289.435 296.658H346.655C346.655 296.658 349.427 297.846 349.229 302.796C349.031 307.746 349.031 336.851 348.635 338.435C348.239 340.019 347.447 340.613 347.447 340.613H248.847C248.847 340.613 247.263 338.633 246.075 334.475C244.887 330.317 234.988 305.37 237.759 298.44C238.852 295.707 243.501 296.46 243.501 296.46L289.435 296.658Z" fill="#878787" stroke="#3B3A3A" stroke-miterlimit="10" stroke-linecap="round" stroke-linejoin="round"/>
<path d="M237.759 298.44C234.987 305.37 244.887 330.317 246.075 334.475C247.263 338.633 248.847 340.613 248.847 340.613H292.182C292.256 340.371 292.331 340.107 292.406 339.821C293.594 335.267 293.792 308.34 293.198 302.598C292.604 296.856 289.436 296.658 289.436 296.658L243.502 296.46C243.502 296.46 238.853 295.707 237.759 298.44Z" fill="#3D3D3D" stroke="#3B3A3A" stroke-miterlimit="10" stroke-linecap="round" stroke-linejoin="round"/>
<path d="M240.729 259.238C240.729 259.238 233.997 261.02 234.591 264.782C235.185 268.544 250.43 324.972 251.816 325.368C253.202 325.764 284.287 325.368 284.287 325.368C284.287 325.368 282.703 304.777 284.089 300.619C284.913 298.149 289.435 296.659 289.435 296.659L282.307 259.238H240.729Z" fill="#737373" stroke="#3B3A3A" stroke-miterlimit="10" stroke-linecap="round" stroke-linejoin="round"/>
<path d="M296.365 173.31C296.365 173.31 297.355 176.874 297.751 179.646C298.147 182.418 296.563 185.586 297.157 187.368C297.751 189.15 302.107 191.724 301.117 192.912C300.127 194.1 297.949 196.278 297.949 196.278C297.949 196.278 296.959 203.802 295.375 205.386C293.791 206.97 290.227 205.98 289.237 205.782C288.247 205.584 286.663 205.188 286.663 205.188L284.089 202.218C284.089 202.218 280.129 201.822 281.515 197.07C282.901 192.318 284.089 186.378 285.079 184.596C286.069 182.814 288.247 180.24 288.247 180.24C288.247 180.24 290.623 177.666 291.415 176.874C292.207 176.082 296.365 173.31 296.365 173.31Z" fill="white" stroke="#3B3A3A" stroke-miterlimit="10" stroke-linecap="round" stroke-linejoin="round"/>
<path d="M295.678 187.672C295.678 188.112 295.606 188.487 295.507 188.733C295.496 188.762 295.484 188.788 295.473 188.811C295.462 188.788 295.451 188.762 295.439 188.733C295.34 188.487 295.268 188.112 295.268 187.672C295.268 187.233 295.34 186.858 295.439 186.611C295.451 186.582 295.462 186.556 295.473 186.533C295.484 186.556 295.496 186.582 295.507 186.611C295.606 186.858 295.678 187.233 295.678 187.672Z" fill="#263238" stroke="#3B3A3A"/>
<path d="M296.848 183.414C296.848 183.414 295.376 181.481 294.233 184.434" stroke="#3B3A3A" stroke-miterlimit="10" stroke-linecap="round" stroke-linejoin="round"/>
<path d="M297.412 198.778C297.412 198.778 295.825 199.307 294.592 198.073" stroke="#3B3A3A" stroke-miterlimit="10" stroke-linecap="round" stroke-linejoin="round"/>
<path d="M289.04 223.995C289.04 223.995 297.356 226.965 299.138 232.707C300.92 238.449 316.561 258.05 320.323 262.406C324.085 266.762 347.448 280.225 347.448 280.225C347.448 280.225 344.28 294.282 341.31 297.054H344.874C344.874 297.054 345.468 300.618 342.696 305.172C339.924 309.726 327.055 314.874 319.135 318.833C311.215 322.793 314.185 327.545 308.443 329.525C302.701 331.505 294.386 331.307 293 329.723C291.614 328.139 282.308 259.238 282.308 259.238H240.73C240.73 259.238 245.68 240.627 249.442 233.499C253.204 226.371 263.301 220.828 275.577 220.828C287.852 220.827 289.04 223.995 289.04 223.995Z" fill="#CB8DE5" stroke="#3B3A3A" stroke-miterlimit="10" stroke-linecap="round" stroke-linejoin="round"/>
<path d="M266.831 259.238L259.341 240.429C259.341 240.429 258.549 242.013 255.777 246.765C253.932 249.927 252.177 255.717 251.207 259.239H266.831V259.238Z" fill="white" stroke="#3B3A3A" stroke-miterlimit="10" stroke-linecap="round" stroke-linejoin="round"/>
<path d="M281.912 257.852L280.328 241.418" stroke="#3B3A3A" stroke-miterlimit="10" stroke-linecap="round" stroke-linejoin="round"/>
<path d="M299.335 237.657C299.335 237.657 306.265 259.436 312.799 270.722" stroke="#3B3A3A" stroke-miterlimit="10" stroke-linecap="round" stroke-linejoin="round"/>
<path d="M322.104 265.573C322.104 265.573 334.974 290.916 339.329 295.074" stroke="#3B3A3A" stroke-miterlimit="10" stroke-linecap="round" stroke-linejoin="round"/>
<path d="M313.789 320.616C313.789 320.616 297.95 250.131 296.96 242.607" stroke="#3B3A3A" stroke-miterlimit="10" stroke-linecap="round" stroke-linejoin="round"/>
<path d="M297.355 169.745C297.355 169.745 296.959 176.675 295.969 177.665C294.979 178.655 291.217 181.031 290.425 183.605C289.633 186.179 293.791 190.535 291.019 194.495C288.247 198.455 284.683 198.455 286.069 203.405C287.455 208.355 292.009 215.681 292.405 219.64C292.801 223.6 290.029 228.946 287.257 229.54C284.485 230.134 283.693 225.184 281.911 225.778C280.129 226.372 276.565 229.738 276.961 233.698C277.357 237.658 277.753 239.044 277.753 239.044C277.753 239.044 274.783 240.43 270.031 240.43C265.279 240.43 262.705 239.836 262.111 239.836C261.517 239.836 259.933 233.5 259.933 233.5L258.745 238.45C258.745 238.45 257.161 240.43 253.003 238.45C248.845 236.47 245.281 234.688 245.083 233.5C244.885 232.312 243.103 230.134 246.469 224.194C249.835 218.254 251.815 216.868 251.419 211.522C251.023 206.176 252.013 197.861 252.013 197.861C252.013 197.861 257.953 182.418 257.557 175.29C257.161 168.162 270.823 160.837 280.524 163.41C290.226 165.984 290.622 166.776 291.81 166.578C292.999 166.379 297.751 164.597 297.355 169.745Z" fill="#263238" stroke="#3B3A3A" stroke-miterlimit="10" stroke-linecap="round" stroke-linejoin="round"/>
<path d="M208.119 107.504C208.119 107.504 211.982 115.047 211.247 118.91C210.511 122.773 210.511 126.269 211.799 128.293C213.087 130.317 215.662 131.421 214.375 132.892C213.087 134.364 210.511 135.652 210.511 135.652C210.511 135.652 209.407 140.619 208.487 143.747C207.567 146.875 207.751 147.427 204.44 147.794C201.128 148.162 199.289 147.978 199.289 147.978C199.289 147.978 197.817 140.619 196.713 126.453C195.608 112.287 208.119 107.504 208.119 107.504Z" fill="white" stroke="#3B3A3A" stroke-miterlimit="10" stroke-linecap="round" stroke-linejoin="round"/>
<path d="M209.025 125.16C209.025 125.747 208.948 126.257 208.837 126.605C208.824 126.644 208.812 126.679 208.799 126.711C208.787 126.679 208.774 126.644 208.762 126.605C208.65 126.258 208.573 125.747 208.573 125.16C208.573 124.574 208.65 124.063 208.762 123.716C208.774 123.677 208.787 123.642 208.799 123.609C208.812 123.642 208.824 123.677 208.837 123.716C208.948 124.063 209.025 124.574 209.025 125.16ZM208.665 126.962C208.665 126.961 208.666 126.96 208.668 126.959C208.666 126.961 208.665 126.962 208.665 126.962ZM208.931 126.959C208.933 126.96 208.934 126.961 208.934 126.961C208.934 126.962 208.933 126.961 208.931 126.959ZM208.934 123.359C208.934 123.359 208.933 123.36 208.931 123.362C208.933 123.36 208.934 123.359 208.934 123.359ZM208.668 123.362C208.666 123.36 208.665 123.359 208.665 123.359C208.665 123.359 208.666 123.36 208.668 123.362Z" fill="#263238" stroke="#3B3A3A"/>
<path d="M206.459 121.126C206.459 121.126 209.257 116.694 211.246 118.91" stroke="#3B3A3A" stroke-miterlimit="10" stroke-linecap="round" stroke-linejoin="round"/>
<path d="M209.525 139.197C209.525 139.197 207.266 139.036 206.298 137.584" stroke="#3B3A3A" stroke-miterlimit="10" stroke-linecap="round" stroke-linejoin="round"/>
<path d="M223.02 196.547L213.27 209.425L210.878 201.698L219.709 191.211L223.02 196.547Z" fill="white" stroke="#3B3A3A" stroke-miterlimit="10" stroke-linecap="round" stroke-linejoin="round"/>
<path d="M229.46 181.277L234.427 184.588L220.946 199.353C219.919 200.478 218.123 200.398 217.2 199.186C216.514 198.286 216.537 197.032 217.254 196.157L229.46 181.277Z" fill="#263238" stroke="#3B3A3A" stroke-miterlimit="10" stroke-linecap="round" stroke-linejoin="round"/>
<path d="M229.828 186.796C229.828 186.796 228.172 189.188 229.092 189.556C230.012 189.924 233.691 190.66 234.611 190.292C235.531 189.924 237.187 188.452 236.267 187.532C235.347 186.612 231.115 186.98 229.828 186.796Z" fill="white" stroke="#3B3A3A" stroke-miterlimit="10" stroke-linecap="round" stroke-linejoin="round"/>
<path d="M226.884 191.211C226.884 191.211 225.228 193.603 226.148 193.971C227.068 194.339 230.747 195.075 231.667 194.707C232.587 194.339 234.243 192.867 233.323 191.947C232.403 191.027 228.172 191.395 226.884 191.211Z" fill="white" stroke="#3B3A3A" stroke-miterlimit="10" stroke-linecap="round" stroke-linejoin="round"/>
<path d="M223.756 193.787C223.756 193.787 222.1 196.179 223.02 196.547C223.94 196.915 227.619 197.651 228.539 197.283C229.459 196.915 231.115 195.443 230.195 194.523C229.276 193.603 225.044 193.971 223.756 193.787Z" fill="white" stroke="#3B3A3A" stroke-miterlimit="10" stroke-linecap="round" stroke-linejoin="round"/>
<path d="M222.033 197.1C222.033 197.1 220.79 198.895 221.481 199.172C222.171 199.448 224.934 200.001 225.624 199.724C226.315 199.448 227.558 198.343 226.867 197.652C226.176 196.962 223 197.238 222.033 197.1Z" fill="white" stroke="#3B3A3A" stroke-miterlimit="10" stroke-linecap="round" stroke-linejoin="round"/>
<path d="M254.296 181.646C254.296 181.646 248.961 174.103 245.281 168.952C241.601 163.801 235.783 161.216 230.379 163.801C226.148 165.825 223.94 170.976 225.596 175.575C227.252 180.174 231.851 183.486 234.427 184.59C237.003 185.694 248.041 188.454 248.041 188.454L254.296 181.646Z" fill="#878787" stroke="#3B3A3A" stroke-miterlimit="10" stroke-linecap="round" stroke-linejoin="round"/>
<path d="M218.605 194.708C218.605 194.708 226.884 187.533 227.62 184.957C228.356 182.381 228.725 182.381 229.461 181.277C230.197 180.173 231.485 177.046 229.829 174.838C228.173 172.63 227.804 177.966 225.965 179.989C224.125 182.013 220.815 183.852 219.527 184.956C218.239 186.06 216.583 190.107 216.583 190.107L214.926 196.178L212.167 199.673L218.605 194.708Z" fill="white" stroke="#3B3A3A" stroke-miterlimit="10" stroke-linecap="round" stroke-linejoin="round"/>
<path d="M251.353 193.052C251.353 193.052 242.707 181.646 245.283 179.438C247.859 177.23 261.288 184.037 261.288 184.037L251.353 193.052Z" fill="#878787" stroke="#3B3A3A" stroke-miterlimit="10" stroke-linecap="round" stroke-linejoin="round"/>
<path d="M175.003 223.96C175.003 223.96 166.356 242.725 166.724 255.236C167.092 267.746 173.347 281.728 174.267 284.12C175.187 286.512 179.418 308.221 178.498 317.419C177.578 326.618 171.139 329.929 167.643 339.68C164.148 349.431 159.364 379.051 158.812 386.226C158.26 393.401 155.868 412.718 155.501 415.11C155.133 417.502 155.133 420.077 156.789 420.077C158.445 420.077 184.753 420.077 184.753 420.077C184.753 420.077 186.593 419.893 186.225 418.789C185.857 417.685 181.994 416.029 178.498 412.718C175.003 409.406 168.747 405.359 168.379 402.599C168.011 399.839 170.771 387.881 173.714 381.074C176.658 374.267 181.257 368.196 181.257 368.196C181.257 368.196 194.871 344.095 198.183 323.674C201.494 303.253 208.118 269.585 208.118 269.585V226.535L175.003 223.96Z" fill="#CB8DE5" stroke="#3B3A3A" stroke-miterlimit="10" stroke-linecap="round" stroke-linejoin="round"/>
<path d="M178.499 412.717C175.003 409.405 168.748 405.359 168.38 402.599C168.138 400.787 169.248 395.01 170.87 389.329L158.694 387.646C157.981 395.663 155.847 412.861 155.501 415.109C155.133 417.501 155.133 420.076 156.789 420.076C158.445 420.076 184.753 420.076 184.753 420.076C184.753 420.076 186.593 419.892 186.225 418.788C185.858 417.685 181.994 416.028 178.499 412.717Z" fill="white" stroke="#3B3A3A" stroke-miterlimit="10" stroke-linecap="round" stroke-linejoin="round"/>
<path d="M178.499 412.717C176.221 410.559 172.779 408.09 170.55 405.867L169.254 409.467C169.254 409.467 160.394 408.843 156.348 408.586C155.944 411.853 155.62 414.345 155.502 415.108C155.134 417.5 155.134 420.075 156.79 420.075C158.446 420.075 184.754 420.075 184.754 420.075C184.754 420.075 186.594 419.891 186.226 418.787C185.858 417.684 181.994 416.028 178.499 412.717Z" fill="white" stroke="#3B3A3A" stroke-miterlimit="10" stroke-linecap="round" stroke-linejoin="round"/>
<path d="M175.187 267.378L179.97 273.265C179.97 273.265 183.649 292.766 184.937 306.38C186.225 319.994 185.305 319.994 183.097 331.033C180.889 342.072 177.946 347.959 179.601 357.157C181.257 366.356 184.016 411.613 184.384 413.637C184.752 415.661 183.86 419.34 185.884 420.076C187.908 420.812 218.42 420.076 218.42 420.076C218.42 420.076 220.628 417.684 219.34 416.581C218.052 415.477 207.709 412.158 203.11 408.478C198.511 404.798 196.548 403.558 196.18 401.35C195.812 399.142 197.631 367.092 200.943 353.845C204.254 340.599 208.118 317.418 210.694 305.644C213.27 293.87 215.845 279.52 214.006 252.659C213.522 245.598 211.982 242.54 211.982 241.253C211.982 239.965 211.614 227.455 211.798 226.719C211.982 225.983 179.97 224.143 179.97 224.143" fill="#CB8DE5"/>
<path d="M175.187 267.378L179.97 273.265C179.97 273.265 183.649 292.766 184.937 306.38C186.225 319.994 185.305 319.994 183.097 331.033C180.889 342.072 177.946 347.959 179.601 357.157C181.257 366.356 184.016 411.613 184.384 413.637C184.752 415.661 183.86 419.34 185.884 420.076C187.908 420.812 218.42 420.076 218.42 420.076C218.42 420.076 220.628 417.684 219.34 416.581C218.052 415.477 207.709 412.158 203.11 408.478C198.511 404.798 196.548 403.558 196.18 401.35C195.812 399.142 197.631 367.092 200.943 353.845C204.254 340.599 208.118 317.418 210.694 305.644C213.27 293.87 215.845 279.52 214.006 252.659C213.522 245.598 211.982 242.54 211.982 241.253C211.982 239.965 211.614 227.455 211.798 226.719C211.982 225.983 179.97 224.143 179.97 224.143" stroke="#3B3A3A" stroke-miterlimit="10" stroke-linecap="round" stroke-linejoin="round"/>
<path d="M196.344 160.489C196.344 160.489 214.19 187.349 214.19 194.708C214.19 202.067 216.214 225.984 213.638 227.088C211.062 228.192 194.689 228.928 188.434 228.192C182.179 227.456 175.556 226.168 173.9 224.144C172.244 222.12 171.436 221.497 170.7 213.77C169.964 206.043 166.182 187.74 165.998 177.438C165.814 167.135 180.523 155.338 185.674 156.441C190.825 157.545 196.344 160.489 196.344 160.489Z" fill="white" stroke="#3B3A3A" stroke-miterlimit="10" stroke-linecap="round" stroke-linejoin="round"/>
<path d="M210.148 106.712C210.148 106.712 211.002 107.907 207.075 116.103C203.148 124.299 202.806 127.884 205.197 132.495C207.587 137.105 207.417 142.227 204.856 147.008C202.295 151.789 200.587 150.081 202.124 157.082C203.661 164.083 197.002 166.985 193.075 166.985C189.148 166.985 184.026 159.984 180.611 162.546C177.196 165.107 182.148 171.595 178.562 173.986C174.976 176.376 164.049 173.474 161.829 169.034C159.609 164.595 163.024 161.009 159.609 156.911C156.194 152.813 151.755 151.959 154.145 144.276C156.535 136.592 165.243 136.08 165.073 131.129C164.902 126.177 164.049 110.81 168.659 103.981C173.269 97.1506 184.538 96.2976 191.197 97.3216C197.855 98.3446 210.148 103.809 210.148 106.712Z" fill="#263238" stroke="#3B3A3A" stroke-miterlimit="10" stroke-linecap="round" stroke-linejoin="round"/>
<path d="M241.05 209.534C240.42 209.534 239.79 209.298 239.304 208.823C238.316 207.859 238.297 206.276 239.261 205.288L246.529 197.84C247.493 196.852 249.076 196.833 250.064 197.797C251.052 198.761 251.071 200.344 250.107 201.332L242.84 208.78C242.349 209.282 241.7 209.534 241.05 209.534Z" fill="#878787" stroke="#3B3A3A" stroke-miterlimit="10" stroke-linecap="round" stroke-linejoin="round"/>
<path d="M248.317 203.586C247.31 203.586 246.302 203.208 245.524 202.449C243.943 200.906 243.912 198.374 245.455 196.793L260.448 181.428C261.991 179.847 264.523 179.816 266.104 181.359C267.685 182.902 267.716 185.434 266.173 187.015L251.18 202.38C250.397 203.183 249.357 203.586 248.317 203.586Z" fill="#878787" stroke="#3B3A3A" stroke-miterlimit="10" stroke-linecap="round" stroke-linejoin="round"/>
<path d="M258.797 185.982L263.474 189.418L260.376 192.86L256.557 190.186L255.875 190.902L258.8 194.677L257.209 195.834L251.282 191.573L258.934 183.634L262.541 186.409L259.277 185.114L258.797 185.982Z" fill="#263238" stroke="#3B3A3A"/>
<path d="M178.683 178.886C178.683 178.886 173.9 186.613 179.235 206.298C184.57 225.983 194.137 238.494 194.137 238.494L240.315 216.233C240.315 216.233 246.018 216.049 246.754 214.761C247.49 213.473 248.042 211.082 248.778 210.53C249.514 209.978 253.01 207.77 252.274 206.115C251.538 204.459 249.33 204.643 249.33 204.643L241.603 202.987C241.603 202.987 243.811 200.779 244.179 198.939C244.547 197.099 243.259 195.811 242.155 197.099C241.051 198.387 240.867 198.387 238.659 200.779C236.451 203.171 236.083 207.402 235.531 208.874C234.979 210.346 232.219 212.553 230.38 213.289C228.54 214.025 203.152 217.152 203.152 217.152C203.152 217.152 198.185 191.763 195.241 184.772C192.297 177.781 186.778 170.974 183.834 171.526C180.89 172.079 178.683 178.886 178.683 178.886Z" fill="white" stroke="#3B3A3A" stroke-miterlimit="10" stroke-linecap="round" stroke-linejoin="round"/>
<path d="M203.111 408.477C198.512 404.797 196.549 403.557 196.181 401.349C196.05 400.564 196.197 396.004 196.587 389.865H182.608C183.491 401.886 184.21 412.671 184.386 413.636C184.754 415.66 183.862 419.339 185.885 420.075C187.909 420.811 218.421 420.075 218.421 420.075C218.421 420.075 220.629 417.683 219.341 416.579C218.053 415.476 207.71 412.157 203.111 408.477Z" fill="white" stroke="#3B3A3A" stroke-miterlimit="10" stroke-linecap="round" stroke-linejoin="round"/>
<path d="M218.421 420.076C218.421 420.076 220.629 417.684 219.341 416.58C218.053 415.476 207.71 412.157 203.111 408.477C201.341 407.061 199.965 406.008 198.916 405.12C198.806 405.395 198.689 405.705 198.557 406.101C197.765 408.477 197.171 410.655 197.171 410.655L184.044 409.717C184.209 411.901 184.328 413.315 184.386 413.636C184.754 415.66 183.862 419.339 185.885 420.075C187.909 420.812 218.421 420.076 218.421 420.076Z" fill="white" stroke="#3B3A3A" stroke-miterlimit="10" stroke-linecap="round" stroke-linejoin="round"/>
<path d="M649.586 317.162L649.586 317.162C648.161 317.355 647.312 318.796 647.654 320.222L649.586 317.162ZM649.586 317.162C650.586 317.027 651.806 317.637 652.963 318.649C654.098 319.641 655.046 320.91 655.489 321.838C655.489 321.837 655.49 321.839 655.493 321.847C655.499 321.863 655.514 321.902 655.54 321.974C655.574 322.065 655.618 322.188 655.669 322.333C655.771 322.622 655.899 322.992 656.023 323.357C656.118 323.636 656.21 323.911 656.287 324.143M649.586 317.162L656.287 324.143M656.287 324.143C655.855 324.141 655.25 324.129 654.587 324.093C653.269 324.02 651.826 323.851 651.032 323.504C650.314 323.19 649.548 322.736 648.921 322.169C648.291 321.6 647.827 320.943 647.654 320.222L656.287 324.143Z" fill="#263238" stroke="#3B3A3A"/>
<mask id="path-135-inside-1_226_4" fill="white">
<path d="M652.332 336.549C654.175 336.818 658.053 335.693 658.361 335.602C658.973 337.773 659.778 339.951 660.713 342.11C661.246 343.345 661.822 344.572 662.415 345.796C662.061 345.278 661.741 344.817 661.69 344.757C660.243 343.085 656.466 340.705 654.187 341.673C652.545 342.37 652.065 344.335 652.889 345.835C653.73 347.366 655.746 348.124 657.38 348.362C659.038 348.604 662.363 347.711 663.241 347.463C663.473 347.93 663.7 348.399 663.934 348.865C665.057 351.101 666.187 353.327 667.229 355.545C667.597 356.326 667.93 357.11 668.266 357.892C667.951 357.432 667.683 357.047 667.635 356.992C666.189 355.32 662.411 352.94 660.132 353.908C658.49 354.605 658.009 356.571 658.834 358.07C659.676 359.602 661.691 360.359 663.325 360.597C664.907 360.828 667.984 360.032 669.027 359.742C669.347 360.553 669.669 361.366 669.943 362.166C670.117 362.717 670.324 363.235 670.468 363.799C670.623 364.354 670.776 364.903 670.928 365.446C671.182 366.504 671.45 367.594 671.672 368.632C671.832 369.353 671.97 370.043 672.112 370.737C671.755 369.955 671.025 368.438 670.949 368.318C669.773 366.447 666.4 363.522 664 364.133C662.272 364.574 661.499 366.443 662.087 368.051C662.687 369.692 664.564 370.746 666.143 371.229C667.882 371.76 671.731 371.275 672.211 371.211C672.442 372.361 672.655 373.482 672.84 374.543C673.253 376.884 673.564 378.983 673.801 380.759H675.424C675.141 378.921 674.771 376.732 674.282 374.274C674.053 373.105 673.784 371.861 673.496 370.586C673.785 370.471 675.427 369.807 676.882 368.994C678.149 370.366 681.396 371.972 681.816 372.176C681.374 373.263 680.934 374.315 680.502 375.302C679.604 377.368 678.752 379.201 677.999 380.76H679.754C680.401 379.323 681.113 377.687 681.854 375.873C682.307 374.771 682.77 373.585 683.233 372.363C683.699 372.46 687.509 373.234 689.285 372.833C690.895 372.469 692.846 371.558 693.567 369.965C694.273 368.406 693.641 366.484 691.95 365.916C689.604 365.127 686.021 367.793 684.709 369.572C684.631 369.677 683.919 370.909 683.482 371.694C683.669 371.194 683.855 370.71 684.041 370.192C684.416 369.171 684.759 368.141 685.133 367.035C685.295 366.494 685.458 365.948 685.623 365.397C685.798 364.853 685.914 364.257 686.064 363.682C686.383 362.342 686.641 360.968 686.871 359.579C687.766 359.905 690.96 361.016 692.614 360.899C694.261 360.783 696.327 360.178 697.281 358.714C698.215 357.28 697.882 355.284 696.297 354.466C694.096 353.331 690.152 355.423 688.585 356.983C688.487 357.08 687.489 358.326 686.954 359.02C687.085 358.184 687.22 357.35 687.326 356.499C687.631 354.044 687.862 351.55 688.105 349.063C688.179 348.301 688.262 347.543 688.342 346.783C688.659 346.903 692.427 348.305 694.28 348.175C695.927 348.06 697.993 347.454 698.947 345.99C699.881 344.556 699.548 342.56 697.963 341.743C695.763 340.608 691.818 342.7 690.252 344.259C690.134 344.376 688.7 346.17 688.357 346.645C688.534 344.972 688.725 343.308 688.981 341.674C689.33 339.42 689.798 337.227 690.408 335.136C690.555 335.192 694.481 336.674 696.379 336.541C698.026 336.425 700.093 335.82 701.046 334.355C701.98 332.921 701.647 330.925 700.061 330.108C697.86 328.973 693.916 331.065 692.349 332.625C692.226 332.747 690.684 334.678 690.43 335.048C690.467 334.924 690.491 334.791 690.529 334.668C691.208 332.444 692.146 330.375 693.119 328.481C693.682 327.379 694.282 326.358 694.888 325.377C695.591 325.728 698.821 327.296 700.542 327.365C702.192 327.431 704.312 327.056 705.421 325.705C706.507 324.382 706.395 322.362 704.909 321.375C702.846 320.005 698.696 321.652 696.968 323.029C696.874 323.104 696.003 323.972 695.377 324.612C695.657 324.173 695.938 323.716 696.215 323.301C697.251 321.741 698.295 320.377 699.23 319.176C699.767 318.498 700.266 317.895 700.739 317.335C701.608 317.32 705.111 317.213 706.643 316.494C708.137 315.792 709.847 314.483 710.208 312.773C710.562 311.099 709.531 309.357 707.758 309.166C705.297 308.901 702.372 312.274 701.472 314.294C701.395 314.469 700.493 317.338 700.538 317.337C700.538 317.337 700.58 317.337 700.591 317.336C700.125 317.865 699.632 318.437 699.105 319.074C698.142 320.257 697.065 321.602 695.992 323.145C694.915 324.684 693.788 326.387 692.763 328.288C691.733 330.192 690.747 332.247 690.006 334.496C689.997 334.521 689.992 334.549 689.984 334.574C689.997 333.849 689.965 331.82 689.944 331.665C689.66 329.473 687.822 325.403 685.388 324.953C683.634 324.629 682.149 326.003 682.009 327.709C681.867 329.451 683.129 331.194 684.361 332.294C685.75 333.535 689.605 334.736 689.912 334.831C689.225 336.979 688.695 339.239 688.283 341.556C688.047 342.881 687.85 344.222 687.669 345.569C687.66 344.941 687.647 344.38 687.637 344.302C687.353 342.109 685.515 338.041 683.081 337.591C681.327 337.267 679.842 338.641 679.702 340.346C679.559 342.088 680.822 343.831 682.053 344.931C683.303 346.047 686.569 347.138 687.437 347.415C687.373 347.932 687.304 348.449 687.242 348.967C686.945 351.451 686.66 353.932 686.305 356.356C686.181 357.211 686.026 358.047 685.875 358.885C685.866 358.328 685.854 357.859 685.845 357.788C685.561 355.595 683.723 351.526 681.289 351.076C679.535 350.752 678.049 352.126 677.91 353.832C677.767 355.573 679.03 357.317 680.262 358.417C681.454 359.482 684.46 360.516 685.49 360.85C685.31 361.703 685.13 362.558 684.916 363.378C684.757 363.934 684.643 364.48 684.453 365.029C684.276 365.576 684.101 366.119 683.928 366.656C683.556 367.678 683.179 368.735 682.791 369.723C682.526 370.412 682.261 371.064 681.997 371.722C682.131 370.873 682.358 369.205 682.361 369.064C682.395 367.595 681.874 365.208 680.835 363.53C680.841 363.313 680.829 363.097 680.795 362.882C680.523 361.192 678.936 359.938 677.212 360.396C674.82 361.033 673.302 365.232 673.189 367.44C673.182 367.57 673.268 368.991 673.336 369.887C673.215 369.366 673.105 368.86 672.974 368.326C672.723 367.268 672.441 366.219 672.143 365.09C671.98 364.55 671.814 364.004 671.647 363.453C671.494 362.903 671.261 362.342 671.069 361.78C670.596 360.487 670.053 359.198 669.478 357.913C670.404 357.691 673.681 356.856 674.997 355.846C676.307 354.841 677.696 353.196 677.684 351.449C677.672 349.738 676.293 348.257 674.52 348.449C672.059 348.716 669.923 352.637 669.476 354.802C669.448 354.937 669.302 356.527 669.239 357.401C668.887 356.631 668.54 355.861 668.159 355.093C667.059 352.877 665.877 350.669 664.707 348.461C664.348 347.785 663.999 347.107 663.647 346.43C663.978 346.354 667.894 345.446 669.368 344.315C670.678 343.31 672.067 341.665 672.055 339.918C672.043 338.207 670.664 336.726 668.891 336.919C666.43 337.186 664.294 341.107 663.847 343.272C663.813 343.435 663.607 345.723 663.583 346.307C662.808 344.815 662.049 343.32 661.361 341.817C660.409 339.744 659.589 337.657 658.944 335.577C659.098 335.542 663.19 334.612 664.7 333.454C666.01 332.449 667.399 330.805 667.387 329.057C667.375 327.346 665.996 325.865 664.223 326.058C661.762 326.325 659.626 330.246 659.179 332.411C659.144 332.581 658.923 335.042 658.915 335.491C658.877 335.367 658.824 335.244 658.787 335.12C658.127 332.89 657.768 330.647 657.534 328.531C657.396 327.302 657.333 326.119 657.297 324.967C658.077 324.872 661.636 324.398 663.11 323.506C664.523 322.651 666.084 321.169 666.264 319.43C666.44 317.728 665.232 316.104 663.449 316.101C660.973 316.096 658.42 319.759 657.738 321.862C657.701 321.977 657.452 323.181 657.284 324.06C657.276 323.54 657.258 323.003 657.26 322.504C657.264 320.632 657.382 318.918 657.499 317.401C657.573 316.539 657.656 315.76 657.743 315.033C658.459 314.54 661.322 312.519 662.203 311.075C663.062 309.665 663.765 307.63 663.124 306.005C662.496 304.413 660.676 303.529 659.091 304.348C656.892 305.485 656.313 309.912 656.677 312.093C656.709 312.281 657.539 315.172 657.577 315.147C657.577 315.147 657.612 315.123 657.62 315.117C657.523 315.815 657.428 316.565 657.34 317.386C657.189 318.904 657.033 320.62 656.989 322.499C656.94 324.377 656.94 326.419 657.134 328.569C657.326 330.725 657.637 332.983 658.259 335.268C658.266 335.294 658.277 335.32 658.284 335.346C657.894 334.734 656.748 333.06 656.645 332.941C655.199 331.269 651.421 328.889 649.142 329.856C647.5 330.553 647.019 332.519 647.844 334.019C648.683 335.554 650.698 336.311 652.332 336.549Z"/>
</mask>
<path d="M652.332 336.549C654.175 336.818 658.053 335.693 658.361 335.602C658.973 337.773 659.778 339.951 660.713 342.11C661.246 343.345 661.822 344.572 662.415 345.796C662.061 345.278 661.741 344.817 661.69 344.757C660.243 343.085 656.466 340.705 654.187 341.673C652.545 342.37 652.065 344.335 652.889 345.835C653.73 347.366 655.746 348.124 657.38 348.362C659.038 348.604 662.363 347.711 663.241 347.463C663.473 347.93 663.7 348.399 663.934 348.865C665.057 351.101 666.187 353.327 667.229 355.545C667.597 356.326 667.93 357.11 668.266 357.892C667.951 357.432 667.683 357.047 667.635 356.992C666.189 355.32 662.411 352.94 660.132 353.908C658.49 354.605 658.009 356.571 658.834 358.07C659.676 359.602 661.691 360.359 663.325 360.597C664.907 360.828 667.984 360.032 669.027 359.742C669.347 360.553 669.669 361.366 669.943 362.166C670.117 362.717 670.324 363.235 670.468 363.799C670.623 364.354 670.776 364.903 670.928 365.446C671.182 366.504 671.45 367.594 671.672 368.632C671.832 369.353 671.97 370.043 672.112 370.737C671.755 369.955 671.025 368.438 670.949 368.318C669.773 366.447 666.4 363.522 664 364.133C662.272 364.574 661.499 366.443 662.087 368.051C662.687 369.692 664.564 370.746 666.143 371.229C667.882 371.76 671.731 371.275 672.211 371.211C672.442 372.361 672.655 373.482 672.84 374.543C673.253 376.884 673.564 378.983 673.801 380.759H675.424C675.141 378.921 674.771 376.732 674.282 374.274C674.053 373.105 673.784 371.861 673.496 370.586C673.785 370.471 675.427 369.807 676.882 368.994C678.149 370.366 681.396 371.972 681.816 372.176C681.374 373.263 680.934 374.315 680.502 375.302C679.604 377.368 678.752 379.201 677.999 380.76H679.754C680.401 379.323 681.113 377.687 681.854 375.873C682.307 374.771 682.77 373.585 683.233 372.363C683.699 372.46 687.509 373.234 689.285 372.833C690.895 372.469 692.846 371.558 693.567 369.965C694.273 368.406 693.641 366.484 691.95 365.916C689.604 365.127 686.021 367.793 684.709 369.572C684.631 369.677 683.919 370.909 683.482 371.694C683.669 371.194 683.855 370.71 684.041 370.192C684.416 369.171 684.759 368.141 685.133 367.035C685.295 366.494 685.458 365.948 685.623 365.397C685.798 364.853 685.914 364.257 686.064 363.682C686.383 362.342 686.641 360.968 686.871 359.579C687.766 359.905 690.96 361.016 692.614 360.899C694.261 360.783 696.327 360.178 697.281 358.714C698.215 357.28 697.882 355.284 696.297 354.466C694.096 353.331 690.152 355.423 688.585 356.983C688.487 357.08 687.489 358.326 686.954 359.02C687.085 358.184 687.22 357.35 687.326 356.499C687.631 354.044 687.862 351.55 688.105 349.063C688.179 348.301 688.262 347.543 688.342 346.783C688.659 346.903 692.427 348.305 694.28 348.175C695.927 348.06 697.993 347.454 698.947 345.99C699.881 344.556 699.548 342.56 697.963 341.743C695.763 340.608 691.818 342.7 690.252 344.259C690.134 344.376 688.7 346.17 688.357 346.645C688.534 344.972 688.725 343.308 688.981 341.674C689.33 339.42 689.798 337.227 690.408 335.136C690.555 335.192 694.481 336.674 696.379 336.541C698.026 336.425 700.093 335.82 701.046 334.355C701.98 332.921 701.647 330.925 700.061 330.108C697.86 328.973 693.916 331.065 692.349 332.625C692.226 332.747 690.684 334.678 690.43 335.048C690.467 334.924 690.491 334.791 690.529 334.668C691.208 332.444 692.146 330.375 693.119 328.481C693.682 327.379 694.282 326.358 694.888 325.377C695.591 325.728 698.821 327.296 700.542 327.365C702.192 327.431 704.312 327.056 705.421 325.705C706.507 324.382 706.395 322.362 704.909 321.375C702.846 320.005 698.696 321.652 696.968 323.029C696.874 323.104 696.003 323.972 695.377 324.612C695.657 324.173 695.938 323.716 696.215 323.301C697.251 321.741 698.295 320.377 699.23 319.176C699.767 318.498 700.266 317.895 700.739 317.335C701.608 317.32 705.111 317.213 706.643 316.494C708.137 315.792 709.847 314.483 710.208 312.773C710.562 311.099 709.531 309.357 707.758 309.166C705.297 308.901 702.372 312.274 701.472 314.294C701.395 314.469 700.493 317.338 700.538 317.337C700.538 317.337 700.58 317.337 700.591 317.336C700.125 317.865 699.632 318.437 699.105 319.074C698.142 320.257 697.065 321.602 695.992 323.145C694.915 324.684 693.788 326.387 692.763 328.288C691.733 330.192 690.747 332.247 690.006 334.496C689.997 334.521 689.992 334.549 689.984 334.574C689.997 333.849 689.965 331.82 689.944 331.665C689.66 329.473 687.822 325.403 685.388 324.953C683.634 324.629 682.149 326.003 682.009 327.709C681.867 329.451 683.129 331.194 684.361 332.294C685.75 333.535 689.605 334.736 689.912 334.831C689.225 336.979 688.695 339.239 688.283 341.556C688.047 342.881 687.85 344.222 687.669 345.569C687.66 344.941 687.647 344.38 687.637 344.302C687.353 342.109 685.515 338.041 683.081 337.591C681.327 337.267 679.842 338.641 679.702 340.346C679.559 342.088 680.822 343.831 682.053 344.931C683.303 346.047 686.569 347.138 687.437 347.415C687.373 347.932 687.304 348.449 687.242 348.967C686.945 351.451 686.66 353.932 686.305 356.356C686.181 357.211 686.026 358.047 685.875 358.885C685.866 358.328 685.854 357.859 685.845 357.788C685.561 355.595 683.723 351.526 681.289 351.076C679.535 350.752 678.049 352.126 677.91 353.832C677.767 355.573 679.03 357.317 680.262 358.417C681.454 359.482 684.46 360.516 685.49 360.85C685.31 361.703 685.13 362.558 684.916 363.378C684.757 363.934 684.643 364.48 684.453 365.029C684.276 365.576 684.101 366.119 683.928 366.656C683.556 367.678 683.179 368.735 682.791 369.723C682.526 370.412 682.261 371.064 681.997 371.722C682.131 370.873 682.358 369.205 682.361 369.064C682.395 367.595 681.874 365.208 680.835 363.53C680.841 363.313 680.829 363.097 680.795 362.882C680.523 361.192 678.936 359.938 677.212 360.396C674.82 361.033 673.302 365.232 673.189 367.44C673.182 367.57 673.268 368.991 673.336 369.887C673.215 369.366 673.105 368.86 672.974 368.326C672.723 367.268 672.441 366.219 672.143 365.09C671.98 364.55 671.814 364.004 671.647 363.453C671.494 362.903 671.261 362.342 671.069 361.78C670.596 360.487 670.053 359.198 669.478 357.913C670.404 357.691 673.681 356.856 674.997 355.846C676.307 354.841 677.696 353.196 677.684 351.449C677.672 349.738 676.293 348.257 674.52 348.449C672.059 348.716 669.923 352.637 669.476 354.802C669.448 354.937 669.302 356.527 669.239 357.401C668.887 356.631 668.54 355.861 668.159 355.093C667.059 352.877 665.877 350.669 664.707 348.461C664.348 347.785 663.999 347.107 663.647 346.43C663.978 346.354 667.894 345.446 669.368 344.315C670.678 343.31 672.067 341.665 672.055 339.918C672.043 338.207 670.664 336.726 668.891 336.919C666.43 337.186 664.294 341.107 663.847 343.272C663.813 343.435 663.607 345.723 663.583 346.307C662.808 344.815 662.049 343.32 661.361 341.817C660.409 339.744 659.589 337.657 658.944 335.577C659.098 335.542 663.19 334.612 664.7 333.454C666.01 332.449 667.399 330.805 667.387 329.057C667.375 327.346 665.996 325.865 664.223 326.058C661.762 326.325 659.626 330.246 659.179 332.411C659.144 332.581 658.923 335.042 658.915 335.491C658.877 335.367 658.824 335.244 658.787 335.12C658.127 332.89 657.768 330.647 657.534 328.531C657.396 327.302 657.333 326.119 657.297 324.967C658.077 324.872 661.636 324.398 663.11 323.506C664.523 322.651 666.084 321.169 666.264 319.43C666.44 317.728 665.232 316.104 663.449 316.101C660.973 316.096 658.42 319.759 657.738 321.862C657.701 321.977 657.452 323.181 657.284 324.06C657.276 323.54 657.258 323.003 657.26 322.504C657.264 320.632 657.382 318.918 657.499 317.401C657.573 316.539 657.656 315.76 657.743 315.033C658.459 314.54 661.322 312.519 662.203 311.075C663.062 309.665 663.765 307.63 663.124 306.005C662.496 304.413 660.676 303.529 659.091 304.348C656.892 305.485 656.313 309.912 656.677 312.093C656.709 312.281 657.539 315.172 657.577 315.147C657.577 315.147 657.612 315.123 657.62 315.117C657.523 315.815 657.428 316.565 657.34 317.386C657.189 318.904 657.033 320.62 656.989 322.499C656.94 324.377 656.94 326.419 657.134 328.569C657.326 330.725 657.637 332.983 658.259 335.268C658.266 335.294 658.277 335.32 658.284 335.346C657.894 334.734 656.748 333.06 656.645 332.941C655.199 331.269 651.421 328.889 649.142 329.856C647.5 330.553 647.019 332.519 647.844 334.019C648.683 335.554 650.698 336.311 652.332 336.549Z" fill="#263238" stroke="#3B3A3A" stroke-width="2" mask="url(#path-135-inside-1_226_4)"/>
<path d="M694.5 324.135C694.565 323.899 694.639 323.618 694.714 323.333C694.812 322.96 694.909 322.581 694.983 322.284C695.021 322.135 695.052 322.008 695.074 321.913C695.092 321.837 695.102 321.796 695.105 321.779L694.5 324.135ZM694.5 324.135C694.141 323.894 693.643 323.551 693.11 323.155C692.051 322.367 690.941 321.43 690.47 320.702C690.044 320.044 689.656 319.243 689.445 318.423C689.234 317.602 689.21 316.797 689.463 316.102L689.463 316.101C689.964 314.722 691.467 313.989 692.762 314.615L692.762 314.615C693.671 315.054 694.352 316.236 694.759 317.718C695.158 319.171 695.249 320.751 695.107 321.771L694.5 324.135Z" fill="#263238" stroke="#3B3A3A"/>
<path d="M666.422 419.826L663.817 378.172H689.43L686.825 419.826H666.422Z" fill="#263238" stroke="#3B3A3A"/>
<path d="M8.35596 317.162L8.35591 317.162C6.93118 317.355 6.08215 318.796 6.42409 320.222L8.35596 317.162ZM8.35596 317.162C9.35566 317.027 10.5761 317.637 11.7333 318.649C12.8684 319.641 13.8158 320.91 14.2595 321.838C14.2589 321.837 14.2599 321.839 14.2627 321.847C14.269 321.863 14.2843 321.902 14.3105 321.974C14.344 322.065 14.3881 322.188 14.4391 322.333C14.5409 322.622 14.669 322.992 14.7932 323.357C14.8882 323.636 14.9805 323.911 15.0569 324.143M8.35596 317.162L15.0569 324.143M15.0569 324.143C14.6246 324.141 14.0205 324.129 13.3573 324.093C12.0394 324.02 10.5964 323.851 9.802 323.504C9.0838 323.19 8.31844 322.736 7.69071 322.169C7.06121 321.6 6.597 320.943 6.42411 320.222L15.0569 324.143Z" fill="#263238" stroke="#3B3A3A"/>
<mask id="path-139-inside-2_226_4" fill="white">
<path d="M11.1019 336.549C12.9449 336.818 16.8229 335.693 17.1309 335.602C17.7429 337.773 18.5479 339.951 19.4829 342.11C20.0159 343.345 20.5919 344.572 21.1849 345.796C20.8309 345.278 20.5109 344.817 20.4599 344.757C19.0129 343.085 15.2359 340.705 12.9569 341.673C11.3149 342.37 10.8349 344.335 11.6589 345.835C12.4999 347.366 14.5159 348.124 16.1499 348.362C17.8079 348.604 21.1329 347.711 22.0109 347.463C22.2429 347.93 22.4699 348.399 22.7039 348.865C23.8269 351.101 24.9569 353.327 25.9989 355.545C26.3669 356.326 26.6999 357.11 27.0359 357.892C26.7209 357.432 26.4529 357.047 26.4049 356.992C24.9589 355.32 21.1809 352.94 18.9019 353.908C17.2599 354.605 16.7789 356.571 17.6039 358.07C18.4459 359.602 20.4609 360.359 22.0949 360.597C23.6769 360.828 26.7539 360.032 27.7969 359.742C28.1169 360.553 28.4389 361.366 28.7129 362.166C28.8869 362.717 29.0939 363.235 29.2379 363.799C29.3929 364.354 29.5459 364.903 29.6979 365.446C29.9519 366.504 30.2199 367.594 30.4419 368.632C30.6019 369.353 30.7399 370.043 30.8819 370.737C30.5249 369.955 29.7949 368.438 29.7189 368.318C28.5429 366.447 25.1699 363.522 22.7699 364.133C21.0419 364.574 20.2689 366.443 20.8569 368.051C21.4569 369.692 23.3339 370.746 24.9129 371.229C26.6519 371.76 30.5009 371.275 30.9809 371.211C31.2119 372.361 31.4249 373.482 31.6099 374.543C32.0229 376.884 32.3339 378.983 32.5709 380.759H34.1939C33.9109 378.921 33.5409 376.732 33.0519 374.274C32.8229 373.105 32.5539 371.861 32.2659 370.586C32.5549 370.471 34.1969 369.807 35.6519 368.994C36.9189 370.366 40.1659 371.972 40.5859 372.176C40.1439 373.263 39.7039 374.315 39.2719 375.302C38.3739 377.368 37.5219 379.201 36.7689 380.76H38.5239C39.1709 379.323 39.8829 377.687 40.6239 375.873C41.0769 374.771 41.5399 373.585 42.0029 372.363C42.4689 372.46 46.2789 373.234 48.0549 372.833C49.6649 372.469 51.6159 371.558 52.3369 369.965C53.0429 368.406 52.4109 366.484 50.7199 365.916C48.3739 365.127 44.7909 367.793 43.4789 369.572C43.4009 369.677 42.6889 370.909 42.2519 371.694C42.4389 371.194 42.6249 370.71 42.8109 370.192C43.1859 369.171 43.5289 368.141 43.9029 367.035C44.0649 366.494 44.2279 365.948 44.3929 365.397C44.5679 364.853 44.6839 364.257 44.8339 363.682C45.1529 362.342 45.4109 360.968 45.6409 359.579C46.5359 359.905 49.7299 361.016 51.3839 360.899C53.0309 360.783 55.0969 360.178 56.0509 358.714C56.9849 357.28 56.6519 355.284 55.0669 354.466C52.8659 353.331 48.9219 355.423 47.3549 356.983C47.2569 357.08 46.2589 358.326 45.7239 359.02C45.8549 358.184 45.9909 357.35 46.0959 356.499C46.4009 354.044 46.6319 351.55 46.8749 349.063C46.9489 348.301 47.0319 347.543 47.1119 346.783C47.4289 346.903 51.1969 348.305 53.0499 348.175C54.6969 348.06 56.7629 347.454 57.7169 345.99C58.6509 344.556 58.3179 342.56 56.7319 341.743C54.5319 340.608 50.5869 342.7 49.0199 344.259C48.9019 344.376 47.4679 346.17 47.1249 346.645C47.3019 344.972 47.4929 343.308 47.7489 341.674C48.0979 339.42 48.5659 337.227 49.1759 335.136C49.3229 335.192 53.2489 336.674 55.1469 336.541C56.7939 336.425 58.8609 335.82 59.8139 334.355C60.7479 332.921 60.4149 330.925 58.8289 330.108C56.6279 328.973 52.6839 331.065 51.1169 332.625C50.9939 332.747 49.4519 334.678 49.1969 335.048C49.2339 334.924 49.2579 334.791 49.2959 334.668C49.9759 332.444 50.9129 330.375 51.8859 328.481C52.4489 327.379 53.0489 326.358 53.6549 325.377C54.3579 325.728 57.5879 327.296 59.3089 327.365C60.9589 327.431 63.0789 327.056 64.1879 325.705C65.2739 324.382 65.1619 322.362 63.6759 321.375C61.6129 320.005 57.4629 321.652 55.7339 323.029C55.6399 323.104 54.7689 323.972 54.1429 324.612C54.4229 324.173 54.7039 323.716 54.9809 323.301C56.0169 321.741 57.0609 320.377 57.9959 319.176C58.5329 318.498 59.0319 317.895 59.5049 317.335C60.3739 317.32 63.8769 317.213 65.4089 316.494C66.9029 315.792 68.6129 314.483 68.9739 312.773C69.3279 311.099 68.2969 309.357 66.5239 309.166C64.0629 308.901 61.1379 312.274 60.2379 314.294C60.1609 314.469 59.2589 317.338 59.3039 317.337C59.3039 317.337 59.3459 317.337 59.3569 317.336C58.8909 317.865 58.3979 318.437 57.8709 319.074C56.9079 320.257 55.8309 321.602 54.7579 323.145C53.6809 324.684 52.5539 326.387 51.5289 328.288C50.4989 330.192 49.5129 332.247 48.7719 334.496C48.7629 334.521 48.7579 334.549 48.7499 334.574C48.7629 333.849 48.7309 331.82 48.7099 331.665C48.4259 329.473 46.5879 325.403 44.1539 324.953C42.3999 324.629 40.9149 326.003 40.7749 327.709C40.6329 329.451 41.8949 331.194 43.1269 332.294C44.5159 333.535 48.3709 334.736 48.6779 334.831C47.9909 336.979 47.4609 339.239 47.0489 341.556C46.8129 342.881 46.6159 344.222 46.4349 345.569C46.4259 344.941 46.4129 344.38 46.4029 344.302C46.1189 342.109 44.2819 338.041 41.8469 337.591C40.0929 337.267 38.6079 338.641 38.4679 340.346C38.3249 342.088 39.5879 343.831 40.8189 344.931C42.0689 346.047 45.3349 347.138 46.2029 347.415C46.1389 347.932 46.0699 348.449 46.0079 348.967C45.7109 351.451 45.4259 353.932 45.0709 356.356C44.9469 357.211 44.7919 358.047 44.6409 358.885C44.6319 358.328 44.6199 357.859 44.6109 357.788C44.3269 355.595 42.4889 351.526 40.0549 351.076C38.3009 350.752 36.8149 352.126 36.6749 353.832C36.5319 355.573 37.7949 357.317 39.0269 358.417C40.2189 359.482 43.2249 360.516 44.2549 360.85C44.0739 361.703 43.8949 362.558 43.6809 363.378C43.5219 363.934 43.4079 364.48 43.2179 365.029C43.0409 365.576 42.8659 366.119 42.6929 366.656C42.3209 367.678 41.9439 368.735 41.5559 369.723C41.2909 370.412 41.0259 371.064 40.7619 371.722C40.8959 370.873 41.1229 369.205 41.1259 369.064C41.1599 367.595 40.6389 365.208 39.5999 363.53C39.6059 363.313 39.5939 363.097 39.5599 362.882C39.2879 361.192 37.7009 359.938 35.9769 360.396C33.5849 361.033 32.0669 365.232 31.9539 367.44C31.9469 367.57 32.0319 368.991 32.1009 369.887C31.9799 369.366 31.8699 368.86 31.7389 368.326C31.4879 367.268 31.2059 366.219 30.9079 365.09C30.7449 364.55 30.5789 364.004 30.4129 363.453C30.2589 362.903 30.0269 362.342 29.8349 361.78C29.3619 360.487 28.8189 359.198 28.2439 357.913C29.1699 357.691 32.4469 356.856 33.7629 355.846C35.0729 354.841 36.4619 353.196 36.4499 351.449C36.4379 349.738 35.0599 348.257 33.2859 348.449C30.8249 348.716 28.6889 352.637 28.2419 354.802C28.2139 354.937 28.0679 356.527 28.0049 357.401C27.6529 356.631 27.3059 355.861 26.9249 355.093C25.8249 352.877 24.6429 350.669 23.4729 348.461C23.1139 347.785 22.7649 347.107 22.4129 346.43C22.7439 346.354 26.6599 345.446 28.1339 344.315C29.4439 343.31 30.8329 341.665 30.8209 339.918C30.8089 338.207 29.4299 336.726 27.6569 336.919C25.1959 337.186 23.0599 341.107 22.6129 343.272C22.5789 343.435 22.3729 345.723 22.3489 346.307C21.5739 344.815 20.8149 343.32 20.1269 341.817C19.1749 339.744 18.3549 337.657 17.7099 335.577C17.8639 335.542 21.9559 334.612 23.4659 333.454C24.7759 332.449 26.1649 330.805 26.1529 329.057C26.1409 327.346 24.7619 325.865 22.9889 326.058C20.5279 326.325 18.3919 330.246 17.9449 332.411C17.9099 332.581 17.6889 335.042 17.6809 335.491C17.6429 335.367 17.5899 335.244 17.5529 335.12C16.8929 332.89 16.5339 330.647 16.3009 328.531C16.1629 327.302 16.0999 326.119 16.0639 324.967C16.8439 324.872 20.4029 324.398 21.8769 323.506C23.2899 322.651 24.8509 321.169 25.0309 319.43C25.2069 317.728 23.9989 316.104 22.2159 316.101C19.7399 316.096 17.1869 319.759 16.5049 321.862C16.4679 321.977 16.2189 323.181 16.0509 324.06C16.0429 323.54 16.0239 323.003 16.0269 322.504C16.0309 320.632 16.1489 318.918 16.2659 317.401C16.3399 316.539 16.4229 315.76 16.5099 315.033C17.2259 314.54 20.0889 312.519 20.9699 311.075C21.8299 309.665 22.5319 307.63 21.8909 306.005C21.2629 304.413 19.4419 303.529 17.8579 304.348C15.6589 305.485 15.0799 309.912 15.4439 312.093C15.4759 312.281 16.3069 315.172 16.3439 315.147C16.3439 315.147 16.3789 315.123 16.3869 315.117C16.2899 315.815 16.1949 316.565 16.1069 317.386C15.9559 318.904 15.7999 320.62 15.7559 322.499C15.7069 324.377 15.7069 326.419 15.9009 328.569C16.0929 330.725 16.4039 332.983 17.0259 335.268C17.0329 335.294 17.0439 335.32 17.0509 335.346C16.6609 334.734 15.5149 333.06 15.4119 332.941C13.9659 331.269 10.1879 328.889 7.90889 329.856C6.26689 330.553 5.78589 332.519 6.61089 334.019C7.45389 335.554 9.46889 336.311 11.1019 336.549Z"/>
</mask>
<path d="M11.1019 336.549C12.9449 336.818 16.8229 335.693 17.1309 335.602C17.7429 337.773 18.5479 339.951 19.4829 342.11C20.0159 343.345 20.5919 344.572 21.1849 345.796C20.8309 345.278 20.5109 344.817 20.4599 344.757C19.0129 343.085 15.2359 340.705 12.9569 341.673C11.3149 342.37 10.8349 344.335 11.6589 345.835C12.4999 347.366 14.5159 348.124 16.1499 348.362C17.8079 348.604 21.1329 347.711 22.0109 347.463C22.2429 347.93 22.4699 348.399 22.7039 348.865C23.8269 351.101 24.9569 353.327 25.9989 355.545C26.3669 356.326 26.6999 357.11 27.0359 357.892C26.7209 357.432 26.4529 357.047 26.4049 356.992C24.9589 355.32 21.1809 352.94 18.9019 353.908C17.2599 354.605 16.7789 356.571 17.6039 358.07C18.4459 359.602 20.4609 360.359 22.0949 360.597C23.6769 360.828 26.7539 360.032 27.7969 359.742C28.1169 360.553 28.4389 361.366 28.7129 362.166C28.8869 362.717 29.0939 363.235 29.2379 363.799C29.3929 364.354 29.5459 364.903 29.6979 365.446C29.9519 366.504 30.2199 367.594 30.4419 368.632C30.6019 369.353 30.7399 370.043 30.8819 370.737C30.5249 369.955 29.7949 368.438 29.7189 368.318C28.5429 366.447 25.1699 363.522 22.7699 364.133C21.0419 364.574 20.2689 366.443 20.8569 368.051C21.4569 369.692 23.3339 370.746 24.9129 371.229C26.6519 371.76 30.5009 371.275 30.9809 371.211C31.2119 372.361 31.4249 373.482 31.6099 374.543C32.0229 376.884 32.3339 378.983 32.5709 380.759H34.1939C33.9109 378.921 33.5409 376.732 33.0519 374.274C32.8229 373.105 32.5539 371.861 32.2659 370.586C32.5549 370.471 34.1969 369.807 35.6519 368.994C36.9189 370.366 40.1659 371.972 40.5859 372.176C40.1439 373.263 39.7039 374.315 39.2719 375.302C38.3739 377.368 37.5219 379.201 36.7689 380.76H38.5239C39.1709 379.323 39.8829 377.687 40.6239 375.873C41.0769 374.771 41.5399 373.585 42.0029 372.363C42.4689 372.46 46.2789 373.234 48.0549 372.833C49.6649 372.469 51.6159 371.558 52.3369 369.965C53.0429 368.406 52.4109 366.484 50.7199 365.916C48.3739 365.127 44.7909 367.793 43.4789 369.572C43.4009 369.677 42.6889 370.909 42.2519 371.694C42.4389 371.194 42.6249 370.71 42.8109 370.192C43.1859 369.171 43.5289 368.141 43.9029 367.035C44.0649 366.494 44.2279 365.948 44.3929 365.397C44.5679 364.853 44.6839 364.257 44.8339 363.682C45.1529 362.342 45.4109 360.968 45.6409 359.579C46.5359 359.905 49.7299 361.016 51.3839 360.899C53.0309 360.783 55.0969 360.178 56.0509 358.714C56.9849 357.28 56.6519 355.284 55.0669 354.466C52.8659 353.331 48.9219 355.423 47.3549 356.983C47.2569 357.08 46.2589 358.326 45.7239 359.02C45.8549 358.184 45.9909 357.35 46.0959 356.499C46.4009 354.044 46.6319 351.55 46.8749 349.063C46.9489 348.301 47.0319 347.543 47.1119 346.783C47.4289 346.903 51.1969 348.305 53.0499 348.175C54.6969 348.06 56.7629 347.454 57.7169 345.99C58.6509 344.556 58.3179 342.56 56.7319 341.743C54.5319 340.608 50.5869 342.7 49.0199 344.259C48.9019 344.376 47.4679 346.17 47.1249 346.645C47.3019 344.972 47.4929 343.308 47.7489 341.674C48.0979 339.42 48.5659 337.227 49.1759 335.136C49.3229 335.192 53.2489 336.674 55.1469 336.541C56.7939 336.425 58.8609 335.82 59.8139 334.355C60.7479 332.921 60.4149 330.925 58.8289 330.108C56.6279 328.973 52.6839 331.065 51.1169 332.625C50.9939 332.747 49.4519 334.678 49.1969 335.048C49.2339 334.924 49.2579 334.791 49.2959 334.668C49.9759 332.444 50.9129 330.375 51.8859 328.481C52.4489 327.379 53.0489 326.358 53.6549 325.377C54.3579 325.728 57.5879 327.296 59.3089 327.365C60.9589 327.431 63.0789 327.056 64.1879 325.705C65.2739 324.382 65.1619 322.362 63.6759 321.375C61.6129 320.005 57.4629 321.652 55.7339 323.029C55.6399 323.104 54.7689 323.972 54.1429 324.612C54.4229 324.173 54.7039 323.716 54.9809 323.301C56.0169 321.741 57.0609 320.377 57.9959 319.176C58.5329 318.498 59.0319 317.895 59.5049 317.335C60.3739 317.32 63.8769 317.213 65.4089 316.494C66.9029 315.792 68.6129 314.483 68.9739 312.773C69.3279 311.099 68.2969 309.357 66.5239 309.166C64.0629 308.901 61.1379 312.274 60.2379 314.294C60.1609 314.469 59.2589 317.338 59.3039 317.337C59.3039 317.337 59.3459 317.337 59.3569 317.336C58.8909 317.865 58.3979 318.437 57.8709 319.074C56.9079 320.257 55.8309 321.602 54.7579 323.145C53.6809 324.684 52.5539 326.387 51.5289 328.288C50.4989 330.192 49.5129 332.247 48.7719 334.496C48.7629 334.521 48.7579 334.549 48.7499 334.574C48.7629 333.849 48.7309 331.82 48.7099 331.665C48.4259 329.473 46.5879 325.403 44.1539 324.953C42.3999 324.629 40.9149 326.003 40.7749 327.709C40.6329 329.451 41.8949 331.194 43.1269 332.294C44.5159 333.535 48.3709 334.736 48.6779 334.831C47.9909 336.979 47.4609 339.239 47.0489 341.556C46.8129 342.881 46.6159 344.222 46.4349 345.569C46.4259 344.941 46.4129 344.38 46.4029 344.302C46.1189 342.109 44.2819 338.041 41.8469 337.591C40.0929 337.267 38.6079 338.641 38.4679 340.346C38.3249 342.088 39.5879 343.831 40.8189 344.931C42.0689 346.047 45.3349 347.138 46.2029 347.415C46.1389 347.932 46.0699 348.449 46.0079 348.967C45.7109 351.451 45.4259 353.932 45.0709 356.356C44.9469 357.211 44.7919 358.047 44.6409 358.885C44.6319 358.328 44.6199 357.859 44.6109 357.788C44.3269 355.595 42.4889 351.526 40.0549 351.076C38.3009 350.752 36.8149 352.126 36.6749 353.832C36.5319 355.573 37.7949 357.317 39.0269 358.417C40.2189 359.482 43.2249 360.516 44.2549 360.85C44.0739 361.703 43.8949 362.558 43.6809 363.378C43.5219 363.934 43.4079 364.48 43.2179 365.029C43.0409 365.576 42.8659 366.119 42.6929 366.656C42.3209 367.678 41.9439 368.735 41.5559 369.723C41.2909 370.412 41.0259 371.064 40.7619 371.722C40.8959 370.873 41.1229 369.205 41.1259 369.064C41.1599 367.595 40.6389 365.208 39.5999 363.53C39.6059 363.313 39.5939 363.097 39.5599 362.882C39.2879 361.192 37.7009 359.938 35.9769 360.396C33.5849 361.033 32.0669 365.232 31.9539 367.44C31.9469 367.57 32.0319 368.991 32.1009 369.887C31.9799 369.366 31.8699 368.86 31.7389 368.326C31.4879 367.268 31.2059 366.219 30.9079 365.09C30.7449 364.55 30.5789 364.004 30.4129 363.453C30.2589 362.903 30.0269 362.342 29.8349 361.78C29.3619 360.487 28.8189 359.198 28.2439 357.913C29.1699 357.691 32.4469 356.856 33.7629 355.846C35.0729 354.841 36.4619 353.196 36.4499 351.449C36.4379 349.738 35.0599 348.257 33.2859 348.449C30.8249 348.716 28.6889 352.637 28.2419 354.802C28.2139 354.937 28.0679 356.527 28.0049 357.401C27.6529 356.631 27.3059 355.861 26.9249 355.093C25.8249 352.877 24.6429 350.669 23.4729 348.461C23.1139 347.785 22.7649 347.107 22.4129 346.43C22.7439 346.354 26.6599 345.446 28.1339 344.315C29.4439 343.31 30.8329 341.665 30.8209 339.918C30.8089 338.207 29.4299 336.726 27.6569 336.919C25.1959 337.186 23.0599 341.107 22.6129 343.272C22.5789 343.435 22.3729 345.723 22.3489 346.307C21.5739 344.815 20.8149 343.32 20.1269 341.817C19.1749 339.744 18.3549 337.657 17.7099 335.577C17.8639 335.542 21.9559 334.612 23.4659 333.454C24.7759 332.449 26.1649 330.805 26.1529 329.057C26.1409 327.346 24.7619 325.865 22.9889 326.058C20.5279 326.325 18.3919 330.246 17.9449 332.411C17.9099 332.581 17.6889 335.042 17.6809 335.491C17.6429 335.367 17.5899 335.244 17.5529 335.12C16.8929 332.89 16.5339 330.647 16.3009 328.531C16.1629 327.302 16.0999 326.119 16.0639 324.967C16.8439 324.872 20.4029 324.398 21.8769 323.506C23.2899 322.651 24.8509 321.169 25.0309 319.43C25.2069 317.728 23.9989 316.104 22.2159 316.101C19.7399 316.096 17.1869 319.759 16.5049 321.862C16.4679 321.977 16.2189 323.181 16.0509 324.06C16.0429 323.54 16.0239 323.003 16.0269 322.504C16.0309 320.632 16.1489 318.918 16.2659 317.401C16.3399 316.539 16.4229 315.76 16.5099 315.033C17.2259 314.54 20.0889 312.519 20.9699 311.075C21.8299 309.665 22.5319 307.63 21.8909 306.005C21.2629 304.413 19.4419 303.529 17.8579 304.348C15.6589 305.485 15.0799 309.912 15.4439 312.093C15.4759 312.281 16.3069 315.172 16.3439 315.147C16.3439 315.147 16.3789 315.123 16.3869 315.117C16.2899 315.815 16.1949 316.565 16.1069 317.386C15.9559 318.904 15.7999 320.62 15.7559 322.499C15.7069 324.377 15.7069 326.419 15.9009 328.569C16.0929 330.725 16.4039 332.983 17.0259 335.268C17.0329 335.294 17.0439 335.32 17.0509 335.346C16.6609 334.734 15.5149 333.06 15.4119 332.941C13.9659 331.269 10.1879 328.889 7.90889 329.856C6.26689 330.553 5.78589 332.519 6.61089 334.019C7.45389 335.554 9.46889 336.311 11.1019 336.549Z" fill="#263238" stroke="#3B3A3A" stroke-width="2" mask="url(#path-139-inside-2_226_4)"/>
<path d="M51.5316 314.615L51.5316 314.615C50.2366 313.989 48.7344 314.722 48.233 316.101L48.2329 316.102C47.9796 316.797 48.0039 317.602 48.2152 318.423C48.4259 319.243 48.814 320.044 49.2398 320.702L51.5316 314.615ZM51.5316 314.615C52.4406 315.054 53.1219 316.236 53.5291 317.718C53.9283 319.171 54.0187 320.751 53.8771 321.771M51.5316 314.615L53.8771 321.771M53.8771 321.771C53.8772 321.77 53.8766 321.773 53.8752 321.779C53.8716 321.795 53.8624 321.837 53.8443 321.913C53.8218 322.008 53.7906 322.135 53.7533 322.284C53.679 322.581 53.5817 322.96 53.484 323.333C53.4093 323.618 53.3348 323.898 53.2702 324.134C53.2606 324.128 53.251 324.122 53.2413 324.115C52.8843 323.875 52.3982 323.54 51.8805 323.155C50.8214 322.367 49.7111 321.43 49.2398 320.702L53.8771 321.771Z" fill="#263238" stroke="#3B3A3A"/>
<path d="M25.1926 419.826L22.5872 378.172H48.2007L45.5962 419.826H25.1926Z" fill="#263238" stroke="#3B3A3A"/>
<path d="M708.51 420.326L15 421" stroke="#3B3A3A" stroke-miterlimit="10" stroke-linecap="round" stroke-linejoin="round"/>
</svg>
